<!-- Generator: Adobe Illustrator 18.1.1, SVG Export Plug-In  -->
<svg version="1.1"
	 xmlns="http://www.w3.org/2000/svg" xmlns:xlink="http://www.w3.org/1999/xlink" xmlns:a="http://ns.adobe.com/AdobeSVGViewerExtensions/3.0/"
	 x="0px" y="0px" width="25.992px" height="10.413px" viewBox="0 0 25.992 10.413" enable-background="new 0 0 25.992 10.413"
	 xml:space="preserve">
<defs>
</defs>
<g>
	<path fill="#FF4A4C" d="M25.689,4.009c-4.411,2.716-6.822,6.697-12.122,4.437C10.481,7.131,6.962,6.835,2.692,5.864
		c5.115-1.924,9.098-4.147,13.311-4.745C18.711,0.734,21.759,2.741,25.689,4.009z"/>
	<g>
		<path fill="#FF4A4C" d="M25.484,4.643c0.051-0.074,0.097-0.264,0.017-0.25L25.349,4.69L25.484,4.643z"/>
		<path fill="#FF4A4C" d="M25.216,3.905c-0.131,0.125-0.318,0.36-0.365,0.665c0.185-0.273,0.161-0.141,0.369-0.471
			c0.081-0.013,0.085,0.141,0.035,0.253c0.051-0.072,0.084,0.105,0.186-0.08c-0.009-0.274-0.116-0.321-0.302-0.16
			C25.138,4.034,25.191,3.961,25.216,3.905z"/>
		<path fill="#FF4A4C" d="M18.825,0.929l0.034,0.051C18.853,0.956,18.841,0.94,18.825,0.929z"/>
		<path fill="#FF4A4C" d="M14.285,0.787c0.032-0.015,0.038-0.05,0.033-0.079C14.292,0.735,14.271,0.761,14.285,0.787z"/>
		<path fill="#FF4A4C" d="M13.452,0.622c0.019,0.004,0.034,0.007,0.05,0.01C13.477,0.607,13.456,0.595,13.452,0.622z"/>
		<path fill="#FF4A4C" d="M18.825,0.929l-0.09-0.131C18.699,0.901,18.776,0.888,18.825,0.929z"/>
		<path fill="#FF4A4C" d="M24.027,4.328c0.029-0.006,0.059-0.028,0.091-0.06c-0.024,0.007-0.047,0.011-0.069,0.012L24.027,4.328z"/>
		<path fill="#FF4A4C" d="M20.773,1.31l0.034,0.013c0.022-0.032,0.048-0.071,0.077-0.114L20.773,1.31z"/>
		<path fill="#FF4A4C" d="M22.165,1.818c-0.026-0.024-0.144,0.231-0.203,0.34c0.062-0.1,0.105-0.141,0.14-0.15
			C22.124,1.959,22.145,1.898,22.165,1.818z"/>
		<path fill="#FF4A4C" d="M24.122,3.144l0.052-0.021C24.16,3.129,24.141,3.137,24.122,3.144z"/>
		<path fill="#FF4A4C" d="M19.778,0.881c0.011-0.04,0.018-0.077,0.019-0.099C19.785,0.815,19.78,0.849,19.778,0.881z"/>
		<path fill="#FF4A4C" d="M23.51,3.887c0.012,0.016,0.019,0.026,0.029,0.04C23.53,3.9,23.52,3.882,23.51,3.887z"/>
		<polygon fill="#FF4A4C" points="25.727,4.071 25.715,4.097 25.793,4.234 		"/>
		<path fill="#FF4A4C" d="M11.995,0.684l0.008,0.003C12.028,0.645,12.01,0.657,11.995,0.684z"/>
		<path fill="#FF4A4C" d="M2.066,6.913c0.347-0.182,1.023-0.111,1.331-0.33C3.199,6.653,2.156,6.765,2.066,6.913z"/>
		<path fill="#FF4A4C" d="M24.003,4.28c-0.02-0.004-0.04-0.009-0.058-0.019C23.967,4.28,23.986,4.285,24.003,4.28z"/>
		<path fill="#FF4A4C" d="M3.396,6.583l0.005-0.001l0.03-0.02C3.417,6.57,3.408,6.576,3.396,6.583z"/>
		<path fill="#FF4A4C" d="M9.046,1.958c0.025,0.043,0.05,0.073,0.076,0.102C9.11,2.034,9.09,2.004,9.046,1.958z"/>
		<path fill="#FF4A4C" d="M11.4,1.487l-0.068-0.016C11.363,1.487,11.383,1.489,11.4,1.487z"/>
		<path fill="#FF4A4C" d="M8.073,2.79C8.035,2.782,8.01,2.75,7.985,2.802c0.009,0.012,0.017,0.019,0.025,0.026
			C8.01,2.787,8.022,2.762,8.073,2.79z"/>
		<path fill="#FF4A4C" d="M6.696,3.372c0.025,0.012,0.046,0.022,0.069,0.032l0.044-0.035L6.696,3.372z"/>
		<path fill="#FF4A4C" d="M20.546,6.294c0.067,0.049,0.132,0.111,0.193,0.174C20.607,6.316,20.707,6.158,20.546,6.294z"/>
		<path fill="#FF4A4C" d="M24.082,4.179c-0.032,0.064-0.055,0.093-0.078,0.1c0.015,0.002,0.03,0.002,0.045,0.001
			C24.067,4.242,24.081,4.206,24.082,4.179z"/>
		<path fill="#FF4A4C" d="M8.882,4.855L8.684,4.893C8.745,4.897,8.817,4.882,8.882,4.855z"/>
		<path fill="#FF4A4C" d="M13.219,7.081l0.058-0.015C13.261,7.053,13.242,7.055,13.219,7.081z"/>
		<path fill="#FF4A4C" d="M8.208,5.138C8.162,5.05,8.128,5.002,8.1,4.973c0.01,0.02,0.018,0.037,0.031,0.065L8.208,5.138z"/>
		<path fill="#FF4A4C" d="M20.74,6.469l-0.002-0.002L20.74,6.469z"/>
		<path fill="#FF4A4C" d="M21.361,5.167c-0.153,0.108,0.15,0.341,0.248,0.533c-0.114,0.221-0.247-0.152-0.423-0.256
			c-0.052,0.164,0.07,0.494-0.021,0.545c-0.043-0.044-0.072-0.05-0.099-0.125c0.06,0.322-0.335,0.268-0.254,0.667
			c-0.029-0.019-0.053-0.041-0.072-0.062c0.131,0.135,0.245,0.284,0.319,0.396c-0.064,0.052,0.008,0.279-0.157,0.1
			c0.046-0.023-0.007-0.105-0.031-0.18l-0.01,0.135c-0.265-0.239,0.028-0.165-0.122-0.374c-0.07,0.186-0.068,0.535-0.231,0.528
			c-0.213-0.266,0.182-0.266-0.13-0.417l0.236-0.006c-0.431-0.353,0.118-0.037-0.324-0.427c-0.263,0.062-0.134,0.306-0.397,0.366
			c0.057,0.187,0.17,0.223,0.225,0.411c-0.128,0.479-0.691-0.576-0.671-0.055c0.06,0.228,0.253,0.622-0.024,0.508L19.288,7.09
			c-0.22,0.073,0.146,0.547-0.196,0.435c-0.029-0.155,0.105-0.199,0.052-0.223c-0.279-0.195,0.002,0.245-0.109,0.305l-0.173-0.293
			c-0.189,0.161-0.339,0.47-0.575,0.643c-0.02-0.101-0.015-0.219-0.107-0.293c-0.256,0.25-0.683,0.167-0.993-0.009l-0.072,0.31
			c-0.028,0.001-0.065-0.123-0.043-0.185c-0.126-0.091,0.016,0.186-0.028,0.31c-0.067,0.033-0.105-0.156-0.072-0.247
			c-0.17,0.241-0.603,0.575-0.816,0.22l0.05-0.082c-0.16-0.139-0.258,0.576-0.403,0.285l0.04-0.048
			c-0.37-0.15-0.886-0.042-1.055-0.537c-0.188,0.38-0.315-0.318-0.542,0.227c-0.132-0.361,0.001-0.418-0.267-0.733
			c-0.09-0.065-0.289,0.281-0.431,0.29l0.111-0.287l-0.283,0.235l0.044-0.379l-0.144,0.032c0.04,0.034,0.049,0.165,0.01,0.245
			c-0.225,0.067-0.361-0.358-0.316-0.51L12.46,6.904c0.048-0.115,0.133-0.132,0.215-0.189c-0.328,0.225,0.059-0.322-0.242-0.116
			c0.007,0.076-0.071,0.17-0.094,0.228c-0.048-0.213-0.288-0.289-0.486-0.262l0.094-0.194c-0.308-0.149-0.704-0.091-1.061-0.187
			c0.105,0.13-0.016,0.479-0.128,0.486l0.037-0.327c-0.116,0.18,0.079,0.145-0.118,0.352c-0.122-0.068-0.001-0.381,0.102-0.466
			l-0.189,0.071c0.013-0.097,0.063-0.138,0.103-0.256c-0.113,0.181-0.206-0.385-0.383-0.066l0.013-0.097
			C9.963,5.798,9.777,5.873,9.484,5.826C9.42,6.1,9.32,6.016,9.188,6.221C8.997,6.089,8.805,5.823,8.546,5.798
			C8.341,5.901,8.449,6.022,8.336,6.17c0.036-0.254-0.222-0.28-0.055-0.435C8.093,5.741,8.169,5.766,7.88,5.922
			C7.832,6.02,7.831,6.066,7.767,6.143C7.7,6.173,7.75,6.03,7.841,5.922L7.866,5.9c-0.224,0.153-0.226-0.037-0.1-0.184
			c0.103-0.151,0.32-0.262-0.114-0.072l0.044-0.019c0.017,0.003-0.542,0.181-0.559,0.178c0.015-0.042,0.358-0.128,0.589-0.246
			c-0.41,0.14-0.459,0.115-0.43,0.086C7.313,5.612,7.402,5.577,7.03,5.651c0.817-0.23,0.799-0.219,0.636-0.203
			C7.518,5.467,7.205,5.489,7.91,5.38L7.379,5.458C6.836,5.53,7.665,5.409,7.789,5.392c-0.404,0.056-0.46,0.064-0.783,0.109
			c-0.165,0.01-0.259,0.006-0.291-0.004C6.7,5.491,6.7,5.484,6.715,5.477l0.19-0.034c0.471-0.077,1.156-0.127,1.392-0.12
			c0.097,0.011-2.228-0.068-1.12-0.069l0.737,0.05c-0.426-0.036-0.327-0.073-0.258-0.09c0.083-0.022,0.136-0.025-0.024-0.14
			C7.727,5.117,7.864,5.166,7.853,5.17C8.2,5.284,7.921,5.154,7.714,5.029c0.048,0.004,0.211,0.103,0.332,0.16
			C8.2,5.277,7.779,4.969,8.027,5.123C8.065,5.15,8.095,5.179,8.111,5.192C8.012,5.108,8.178,5.196,7.943,4.995
			C8.08,5.08,7.966,4.852,8.1,4.973C8.049,4.827,8.06,4.862,8.14,4.851c0.08-0.011,0.145-0.033,0.075-0.241
			c0.163,0.422,0.468,0.198,0.503-0.046c0.014,0.143,0.157,0.088,0.184,0.282c0.131-0.062,0.222-0.191,0.109-0.395
			c0.454,0.396,0.33-0.608,0.732-0.023c0.304-0.389,0.611-0.686,0.932-0.927c0.151,0.425-0.38,0.198-0.19,0.632
			c0.268-0.306,0.326-0.746,0.703-0.77c0.109,0.025,0.019,0.202,0.017,0.285c0.274-0.304,0.667-0.206,0.887-0.541
			c0.013,0.04-0.005,0.095-0.024,0.138c0.055-0.035,0.16,0.014,0.086-0.178l-0.04,0.073c-0.195-0.247,0.035-0.671-0.004-0.825
			c0.087,0.59,0.351,0.039,0.425,0.797c0.027-0.049,0.046-0.157-0.007-0.285c0.071,0.019,0.115,0.089,0.104,0.256
			c0.178-0.175,0.036-0.358,0.232-0.417c0.029,0.095,0.002,0.144,0.017,0.262c0.039-0.215,0.081-0.436,0.272-0.404
			c0.008,0.06,0.049,0.129,0,0.142c0.273-0.109,0.342-0.639,0.709-0.546c0.019,0.44,0.144,0.11,0.256,0.467l0.139-0.15l-0.112-0.158
			c0.148-0.031,0.216-0.329,0.373-0.242l-0.074,0.178l0.262-0.135l-0.19-0.103c0.108-0.223-0.124-0.457,0.102-0.4
			c-0.033,0.046,0.155-0.028,0.28,0.17l0,0.001c0.05-0.132,0.104-0.271,0.234-0.204c0.052,0.111,0.057,0.41,0.091,0.484
			c0.013-0.326,0.333-0.149,0.371-0.492c-0.018,0.082,0.013,0.275,0.03,0.313l0.02-0.26c0.084,0.068,0.1,0.105,0.114,0.261
			c0.217,0.011-0.142-0.456,0.141-0.297c-0.017,0.024-0.002,0.06-0.037,0.104c0.27,0.054,0.448-0.212,0.682-0.111
			c0.074,0.37-0.18,0.107-0.092,0.418c0.271-0.086,0.631-0.452,0.939-0.325l-0.053-0.047c0.11-0.525,0.198,0.284,0.387,0.069
			c-0.045,0.032-0.099,0.281-0.079,0.225c0.19,0.115,0.444-0.051,0.814-0.129l-0.074,0.122c0.094,0.143,0.309,0.16,0.425,0.257
			c0.079-0.119,0.15-0.074,0.161-0.278c0.173,0.865,0.937-0.126,1.09,0.622c-0.045-0.015-0.147,0.073-0.112,0.086l0.358,0.002
			c0.059-0.225,0.01-0.147,0.008-0.341c0.089-0.112,0.217-0.176,0.296-0.145c-0.198,0.086-0.134,0.346-0.12,0.49
			c0.016-0.07,0.065-0.134,0.087-0.203c0.013,0.447,0.199-0.421,0.323-0.075l-0.057,0.108c0.107-0.024,0.245-0.14,0.324-0.071
			c-0.063,0.263-0.137,0.079-0.225,0.28c0.133,0.038,0.443-0.366,0.458-0.072c-0.083,0.047-0.161,0.016-0.243,0.062
			c0.007,0.342,0.051,0.274,0.126,0.358l-0.006-0.01l0.161,0.22l-0.022-0.102c0.426-0.578,0.374,0.017,0.764-0.315
			c-0.375,0.312-0.13,0.217-0.262,0.49c0.022,0.101,0.07,0.222,0.014,0.291c0.196-0.184,0.098,0.249,0.379-0.022
			c-0.031,0.093,0.106,0.054-0.01,0.271c0.162-0.016,0.033-0.17,0.091-0.278c0.33-0.223,0.333,0.572,0.802,0.269
			c0.326-0.071,0.496-0.361,0.791-0.421c0.024,0.177-0.194,0.306-0.194,0.306c0.078,0.184,0.186,0.198,0.348,0.141
			c-0.055,0.07-0.055,0.148-0.056,0.264c0.109,0.013,0.191-0.308,0.272-0.126c-0.06,0.094-0.15,0.246-0.236,0.331
			c0.15-0.041,0.329-0.169,0.48-0.207c-0.025,0.172-0.161,0.216-0.242,0.304c0.164-0.022,0.409-0.014,0.54-0.254L24.84,3.989
			c0.054,0.006-0.051,0.227-0.105,0.26c-0.188,0.156-0.138-0.15-0.111-0.244l0.107-0.027c0.106-0.57-0.376-0.04-0.54-0.135
			l0.218-0.363l-0.298,0.258c0.001-0.116,0.058-0.343,0.164-0.368c-0.049-0.239-0.161,0.096-0.184-0.158
			c0.001-0.038,0.014-0.054,0.03-0.066l-0.164,0.07c0.055-0.072,0.086-0.281,0.138-0.197c-0.125-0.306-0.458,0.158-0.422-0.168
			l0.027-0.017c-0.347,0.012-0.141,0.272-0.497,0.515l0.133-0.759L23.194,2.86c-0.026-0.022-0.078-0.068-0.021-0.177
			c-0.192,0.148-0.031,0.131-0.171,0.287C22.96,2.654,22.548,2.925,22.7,2.462c-0.141,0.193,0.072,0.223-0.146,0.308
			c0.155-0.502-0.215,0.008-0.257-0.269c0.145-0.232,0.216-0.048,0.175-0.326c-0.256,0.388-0.223-0.201-0.369-0.167
			c-0.145,0.334-0.303,0.038-0.54,0.072c0.058-0.108-0.282-0.332-0.413-0.526L21.177,1.5c-0.172,0.327-0.331,0.19-0.493,0.207
			c0.085-0.203,0.141-0.274,0.25-0.336l-0.128-0.049c-0.073,0.098-0.135,0.14-0.232,0.147l0.131-0.243
			c-0.179-0.052-0.461,0.173-0.618-0.081c-0.098,0.237-0.07,0.734-0.356,0.811c0.038-0.133,0.109-0.36,0.189-0.391
			c-0.026,0.01-0.109,0.082-0.13,0.013l0.171-0.187c-0.066-0.133-0.118,0.165-0.191,0.117c0.067-0.186-0.013-0.153,0.05-0.297
			c0.027-0.011,0.044,0.101,0.101,0.039c-0.08-0.065-0.154-0.213-0.144-0.367c-0.028,0.109-0.085,0.252-0.161,0.253
			c-0.179-0.045,0.015-0.246-0.057-0.377c-0.084,0.115-0.157-0.056-0.248,0.226c-0.052-0.017-0.021-0.151-0.018-0.234
			c-0.132,0.097-0.449-0.094-0.428,0.24l0.018,0.027c-0.007,0.003-0.011,0.005-0.018,0.008l0.001,0l-0.001,0
			c-0.375,0.205-0.591-0.331-0.938-0.257l0.018-0.097c-0.205,0.073-0.433-0.005-0.59,0.198c-0.054-0.006-0.114-0.193-0.08-0.307
			c-0.156,0.061-0.173,0.162-0.383-0.001c0.159-0.17-0.048-0.153,0.162-0.124c-0.193-0.088-0.247-0.247-0.459,0.021
			c0.072-0.253-0.163-0.322-0.261-0.231l0.154,0.169c-0.107,0.046-0.202,0.031-0.301,0.018l0.025-0.336
			c-0.528-0.369-0.613,0.781-1.026,0.155c-0.059,0.246,0.235,0.127,0.192,0.41c-0.178-0.018-0.448-0.454-0.504-0.441
			c-0.276-0.13-0.124,0.523-0.395,0.452c0.057,0.109,0.153,0.413-0.001,0.559c-0.176-0.008-0.319-0.435-0.234-0.556
			c0.039-0.019,0.067,0.014,0.074,0.053c0.045-0.054,0.107-0.119,0.011-0.23l0.004,0.12c-0.113-0.103-0.344-0.027-0.335-0.231
			c-0.103,0.143-0.009,0.203,0.1,0.239c-0.259-0.112-0.342,0.081-0.596,0.027c0.053,0.054,0.121,0.181,0.086,0.188
			c-0.366-0.057-0.084,0.256-0.288,0.367c-0.173-0.138-0.073-0.428-0.252-0.219c-0.169-0.078-0.117-0.294-0.089-0.403
			c-0.139,0.279-0.425-0.035-0.554-0.037l0.079-0.124c-0.049,0.073-0.101,0.089-0.154,0.106l0.131,0.207
			c-0.074-0.02-0.127-0.003-0.156-0.098c-0.017,0.169,0.167,0.361,0.106,0.604c-0.119-0.088-0.208,0.203-0.334-0.087
			c0.291,0.018-0.127-0.291,0.078-0.411c-0.031,0.05-0.083,0.065-0.159,0.046c-0.02-0.03-0.011-0.065,0-0.088
			c-0.339-0.186-0.004,0.375-0.262,0.452c-0.025-0.179-0.167-0.298-0.197-0.247c0.104-0.033,0.144,0.263,0.096,0.424
			C11.424,1.24,11.49,1.472,11.4,1.487l0.118,0.027c0.026,0.179-0.062,0.185-0.155,0.277c-0.056-0.127,0.07-0.125,0.009-0.169
			c-0.018,0.338-0.392-0.207-0.492,0.057c-0.121-0.083-0.123-0.31-0.222-0.36c-0.113,0.289-0.296-0.148-0.434,0.107
			c0.144,0.201,0.133,0.143,0.073,0.414l0.274-0.283l-0.091,0.405c0.101-0.034,0.159-0.22,0.233-0.205
			c-0.034,0.221-0.043,0.161,0.074,0.328c-0.263-0.283-0.196,0.297-0.44,0.13L10.14,1.664C9.806,1.511,9.829,2.112,9.467,2.095
			l0.137,0.056c0.046,0.234-0.178,0.104-0.24,0.233C9.299,2.198,9.21,2.157,9.122,2.06c0.06,0.134-0.229,0.079-0.107,0.455
			L8.781,2.33c-0.287,0.002-0.066,0.634-0.325,0.67c-0.012-0.228-0.172-0.312-0.074-0.52C8.303,2.512,8.218,2.508,8.27,2.635
			C8.176,2.54,8.155,2.971,8.011,2.828c0,0.094,0.07,0.289-0.024,0.311c-0.025-0.033-0.037-0.09-0.037-0.09
			c0.037,0.09-0.086,0.18,0.075,0.349c-0.24-0.234-0.403-0.152-0.558-0.063C7.258,3.447,7.084,3.557,6.764,3.404
			C6.557,3.564,6.327,3.729,6.131,3.827C6.087,3.781,6.036,3.76,6.097,3.757c-0.5,0.01,0.41,0.444-0.099,0.435
			C5.455,4.073,5.961,4.019,5.719,3.99C5.32,3.804,5.224,3.869,5.154,3.956C5.081,4.045,5.06,4.151,4.657,4.11l0.008-0.044
			C4.121,4.047,4.548,4.377,4.194,4.471c0,0-0.086-0.027-0.172-0.037c0.364,0.21,0.251,0.374,0.213,0.49
			C3.756,4.839,4.063,4.847,3.451,4.81C3.407,4.867,4.374,4.893,4.329,4.99C3.951,4.99,3.502,5.036,2.808,5.01l0.22-0.103
			c-0.964-0.007-0.316,0.137-0.59,0.178L2.066,5.062C1.754,5.237,2.811,5.25,2.361,5.396l0.376-0.019
			c0.943,0.055-0.811,0.079-0.145,0.134L1.32,5.578C1.448,5.631,2.035,5.712,2.091,5.77C1.205,5.797,1.02,5.707,0.684,5.65
			C0.517,5.712,0.232,5.855,0.823,5.837C0.75,5.824,0.505,5.815,0.766,5.779c0.762,0.008,1.121,0.033,0.989,0.106
			c0.001,0.006-0.004,0.013-0.015,0.02c-0.668,0.056-1.051,0.1-1.252,0.139c-0.098,0.019-0.17,0.038-0.187,0.055
			c0.003,0.015,0.032,0.03,0.067,0.044C0.514,6.203,0.748,6.26,0,6.399c0.709,0.012,0.883,0.08,1.023,0.171
			c0.135,0.09,0.242,0.206,0.643,0.27c1.14-0.362,0.234,0.033,1.569-0.304c0.215,0.005,0.24,0.02,0.165,0.045
			c-0.017-0.004-0.36,0.295-0.343,0.299C2.811,7.011,2.641,6.93,2.372,7.013C2.637,7.119,1.998,7.2,1.945,7.356
			c0.372-0.145,0.732-0.165,0.792-0.066C2.729,7.289,2.963,7.047,2.97,7.049c1.059-0.11-0.484,0.428,0.604,0.328L3.091,7.473
			c0.442-0.018,1.106,0.233,1.963-0.099c-0.045,0.064-0.18,0.208-0.356,0.219C4.983,7.69,5.512,7.655,5.926,7.63
			c0.424-0.024,0.746-0.038,0.902,0.146L6.697,7.902c0.152-0.015,0.349-0.22,0.424-0.053C7.086,7.906,7.006,7.98,7.059,7.999
			C7.155,7.964,7.474,7.81,7.597,7.922L7.414,8.059c0.349,0.165,0.471,0.086,0.628-0.026C8.199,7.922,8.359,7.771,8.52,7.752
			C8.433,8.184,8.685,8.382,8.81,8.48L8.792,8.54c0.399,0.141,0.776-0.208,1.196-0.284c0.124,0.519,0.746,0.388,1.036,0.753
			c-0.033-0.093,0.103-0.327,0.181-0.351c0.061,0.11,0.327-0.223,0.197,0.159l-0.028-0.016c-0.048,0.396,0.152,0.351,0.283,0.405
			l0.184-0.495c0.11,0.836,1.026,0.059,0.966,0.78c0.131-0.09,0.232-0.047,0.366-0.136l-0.115,0.259
			c0.247,0.17,0.382,0.257,0.752,0.32l-0.138,0.165c0.198,0.09,0.505-0.682,0.68-0.642l-0.065,0.419
			c0.35,0.074,0.646,0.546,1.08,0.225c-0.016,0.06-0.046,0.18-0.111,0.189c0.172,0.033,0.673,0.364,0.656-0.222
			c-0.028,0.377,0.388,0.086,0.583-0.101l-0.033,0.279c0.174-0.36,0.173-0.457,0.395-0.562c0.055,0.035,0.06,0.221-0.017,0.152
			c0.192,0.137,0.123-0.261,0.349-0.133L17.125,9.89c0.189-0.001,0.165-0.099,0.237-0.318c0.095-0.128,0.347,0.016,0.425,0.258
			c-0.002-0.155,0.054-0.373,0.174-0.319c0.036,0.09,0.01,0.155-0.004,0.186c0.352,0.107,0.354-0.436,0.632-0.231
			c0.033,0.087,0.06,0.127,0.086,0.148c-0.242,0.065-0.439,0.106-0.426,0.081c0.063,0.249,0.281,0.233,0.211,0.623
			c0.123-0.239,0.267-0.713,0.488-0.665c0.017,0.02,0.034,0.039,0.055,0.074l-0.009,0.035c0.051,0.007,0.081-0.031,0.101-0.087
			c0.073,0.015,0.122,0.029,0.18,0.009c0.101,0.188,0.263,0.014,0.362-0.016c-0.122-0.254,0.016-0.263-0.192-0.427
			c0.023,0.013-0.003,0.038-0.059,0.074c-0.01,0.013-0.025,0.024-0.027,0.043l-0.004-0.025c-0.058,0.03-0.134,0.068-0.219,0.112
			c0.02-0.163,0.044-0.303,0.205-0.202c-0.025-0.185-0.05-0.375-0.062-0.466c0.283,0.315,0.6,0.376,0.744,0.577
			c0.197-0.278,0.582-0.427,0.452-0.978c0.032-0.1,0.158,0.08,0.227,0.135c-0.012,0.07-0.064,0.093-0.046,0.171
			c0.068-0.202,0.385-0.302,0.213-0.63c0.257,0.026,0.096,0.348,0.289,0.14l0.032,0.115c0.798,0.167,0.176-1.27,1.091-1.014
			c-0.061-0.012-0.09-0.017-0.134-0.062c0.739-0.14,0.9-1.088,1.737-1.061c0.211-0.025,0.084-0.224,0.067-0.435l0.213,0.218
			L24.11,5.558c0.069-0.374,0.814,0.322,0.81-0.266l-0.153-0.141c0.122-0.04,0.251-0.324,0.366-0.119
			c-0.011-0.038-0.087-0.199,0.013-0.138l0.092,0.129l0.102-0.389c0.258-0.031,0.315,0.544,0.61,0.388
			c0.069-0.117,0.053-0.583-0.041-0.648c-0.047,0.021-0.162-0.013-0.249-0.145l0.055-0.134C25.487,3.69,25.321,3.23,24.891,3.12
			l-0.025,0.356l-0.18-0.153l0.143-0.11c-0.2-0.124-0.154,0.07-0.143,0.217c-0.08-0.091-0.151-0.145-0.211-0.16l0.071,0.484
			c-0.123-0.137-0.122-0.352-0.296-0.358c0.034,0.224,0.306,0.288,0.247,0.488c-0.203-0.12-0.275-0.277-0.269-0.061
			c-0.081-0.089-0.104-0.167-0.096-0.237c-0.005,0.179-0.193,0.211-0.095,0.445C23.8,3.88,23.788,4.292,23.539,3.928
			c0.035,0.106,0.05,0.386-0.014,0.458c-0.173-0.53-0.303,0.188-0.604-0.293c0.181,0.458-0.251,0.449-0.268,0.795
			c-0.013-0.037-0.04-0.113-0.009-0.106c-0.124,0.046-0.24-0.045-0.359-0.067c0.226,0.321,0.125,0.512,0.189,0.768
			c-0.353-0.205-0.207-0.422-0.467-0.68c0.2,0.247-0.02,0.415,0.184,0.592c-0.237-0.113-0.15-0.028-0.396-0.248
			c0.284,0.4-0.035,0.132,0.073,0.429c-0.281-0.089-0.314-0.337-0.37-0.107C21.337,5.404,21.361,5.167,21.361,5.167z M18.318,8.045
			L18.316,8.04c0.029-0.02,0.054-0.036,0.07-0.047C18.373,8.004,18.353,8.019,18.318,8.045z M18.003,8.141
			c0.042-0.001,0.09-0.013,0.141-0.03c0.041,0.089,0.06,0.188,0.025,0.193C18.167,8.237,18.073,8.206,18.003,8.141z M19.421,9.7
			c-0.048,0.063-0.09,0.021-0.12-0.029c0.028-0.017,0.059-0.04,0.096-0.077l-0.006-0.035C19.406,9.611,19.419,9.66,19.421,9.7z"/>
		<path fill="#FF4A4C" d="M19.387,9.314c0.006-0.009,0.006-0.022,0.017-0.029c-0.023-0.016-0.044-0.03-0.061-0.043l0.014,0.09
			L19.387,9.314z"/>
		<path fill="#FF4A4C" d="M18.865,0.989L18.859,0.98c0.003,0.013,0.006,0.025,0.006,0.043C18.865,1.009,18.865,1.001,18.865,0.989z"
			/>
		<polygon fill="#FF4A4C" points="13.685,7.111 13.659,7.178 13.715,7.133 		"/>
		<path fill="#FF4A4C" d="M20.492,2.573c-0.005,0.024-0.008,0.051-0.002,0.077C20.496,2.632,20.495,2.605,20.492,2.573z"/>
		<path fill="#FF4A4C" d="M21.283,2.961l0.077,0.14C21.332,3.027,21.306,2.988,21.283,2.961z"/>
		<path fill="#FF4A4C" d="M21.859,3.35c0.027-0.042,0.043-0.076,0.059-0.106l-0.001-0.002L21.859,3.35z"/>
		<path fill="#FF4A4C" d="M12.069,3.245c-0.008,0.004-0.015,0.011-0.02,0.021C12.011,3.337,12.042,3.303,12.069,3.245z"/>
		<path fill="#FF4A4C" d="M14.898,1.749c-0.022,0.057-0.044,0.113-0.071,0.151C14.886,1.909,14.93,1.906,14.898,1.749z"/>
		<polygon fill="#FF4A4C" points="8.904,4.851 8.902,4.846 8.882,4.855 		"/>
		<path fill="#FF4A4C" d="M14.684,1.925c0.067,0.043,0.11,0.022,0.144-0.025C14.779,1.891,14.719,1.874,14.684,1.925z"/>
		<path fill="#FF4A4C" d="M24.603,4.566l0.028,0.022c0.006-0.018,0.013-0.031,0.019-0.041L24.603,4.566z"/>
		<path fill="#FF4A4C" d="M24.65,4.547l0.046-0.019C24.68,4.523,24.665,4.52,24.65,4.547z"/>
		<path fill="#FF4A4C" d="M24.794,4.487l-0.098,0.042C24.722,4.538,24.751,4.557,24.794,4.487z"/>
		<path fill="#FF4A4C" d="M23.783,4.123l-0.046,0.091C23.749,4.197,23.765,4.167,23.783,4.123z"/>
		<path fill="#FF4A4C" d="M23.512,4.05c0.054,0.046,0.077,0.263,0.187,0.237l0.037-0.073C23.641,4.34,23.633,3.912,23.512,4.05z"/>
		<path fill="#FF4A4C" d="M22.915,2.452l0.181,0.162c0.004-0.116,0.011-0.27,0.117-0.256C23.069,1.95,23.176,2.607,22.915,2.452z"/>
		<path fill="#FF4A4C" d="M22.318,2.035c0.134,0.001,0.059-0.146,0.089-0.2C22.296,1.896,22.269,1.912,22.318,2.035z"/>
		<path fill="#FF4A4C" d="M17.226,0.455l0.034-0.254C17.15,0.227,17.252,0.3,17.226,0.455z"/>
		<polygon fill="#FF4A4C" points="16.261,1.779 16.354,1.93 16.373,1.693 		"/>
		<polygon fill="#FF4A4C" points="15.43,0.056 15.467,0.013 15.316,0.132 		"/>
		<path fill="#FF4A4C" d="M6.871,3.028l0.207,0.254C7.133,3.198,6.988,2.875,6.871,3.028z"/>
		<path fill="#FF4A4C" d="M1.899,5.383C1.397,5.409,0.928,5.481,1.292,5.507C1.484,5.456,1.957,5.405,1.899,5.383z"/>
		<polygon fill="#FF4A4C" points="11.886,9.143 11.786,9.221 11.94,9.178 		"/>
	</g>
</g>
</svg>