<!-- Generator: Adobe Illustrator 18.1.1, SVG Export Plug-In  -->
<svg version="1.1"
	 xmlns="http://www.w3.org/2000/svg" xmlns:xlink="http://www.w3.org/1999/xlink" xmlns:a="http://ns.adobe.com/AdobeSVGViewerExtensions/3.0/"
	 x="0px" y="0px" width="11.854px" height="27.532px" viewBox="0 0 11.854 27.532" enable-background="new 0 0 11.854 27.532"
	 xml:space="preserve">
<defs>
</defs>
<g>
	<path d="M2.153,0.167c3.079,8.672,6.158,17.344,9.237,26.016c-0.303,0.111-0.607,0.223-0.91,0.334
		C7.426,17.836-0.823,11.06,1.142,0.539C1.479,0.415,1.816,0.291,2.153,0.167z"/>
	<g>
		<path fill="#202020" d="M2.383,0.792c0-0.092-0.09-0.267-0.134-0.209L2.343,0.9L2.383,0.792z"/>
		<path fill="#202020" d="M1.657,0.405c0.005,0.169,0.142,0.419,0.402,0.647C1.892,0.775,1.992,0.88,1.837,0.533
			c0.048-0.059,0.177,0.048,0.229,0.159C2.046,0.609,2.189,0.724,2.129,0.525C1.935,0.324,1.773,0.372,1.793,0.59
			C1.721,0.539,1.689,0.459,1.657,0.405z"/>
		<path fill="#202020" d="M1.074,8.523l0.012-0.092C1.074,8.464,1.071,8.494,1.074,8.523z"/>
		<path fill="#202020" d="M3.373,14.475c-0.02-0.02-0.024,0.043-0.02,0.114C3.37,14.573,3.383,14.554,3.373,14.475z"/>
		<path fill="#202020" d="M3.975,16.312c-0.015-0.044-0.026-0.077-0.039-0.114C3.958,16.298,3.976,16.364,3.975,16.312z"/>
		<path fill="#202020" d="M1.074,8.523l-0.03,0.249C1.13,8.692,1.079,8.62,1.074,8.523z"/>
		<path fill="#202020" d="M1.88,1.451C1.866,1.432,1.838,1.409,1.801,1.382L1.83,1.43L1.88,1.451z"/>
		<path fill="#202020" d="M0.275,6.065L0.271,6.022C0.232,6.017,0.186,6.01,0.134,6.003L0.275,6.065z"/>
		<path fill="#202020" d="M0.073,4.279C0.06,4.32,0.34,4.324,0.463,4.335c-0.115-0.018-0.17-0.046-0.191-0.081
			C0.218,4.255,0.154,4.263,0.073,4.279z"/>
		<path fill="#202020" d="M0.726,1.498L0.694,1.44C0.704,1.457,0.712,1.482,0.726,1.498z"/>
		<path fill="#202020" d="M0.449,7.366C0.409,7.38,0.375,7.398,0.356,7.413C0.39,7.404,0.421,7.387,0.449,7.366z"/>
		<path fill="#202020" d="M1.16,1.314c0.025,0.011,0.041,0.018,0.063,0.028C1.186,1.322,1.16,1.314,1.16,1.314z"/>
		<polygon fill="#202020" points="2.222,0.143 2.245,0.164 2.396,0.117 		"/>
		<path fill="#202020" d="M5.194,19.137c-0.004-0.012-0.005-0.014-0.008-0.024C5.175,19.157,5.189,19.169,5.194,19.137z"/>
		<path fill="#202020" d="M11.673,26.633c-0.057-0.069-0.22-0.549-0.263-0.563C11.451,26.146,11.665,26.683,11.673,26.633z"/>
		<path fill="#202020" d="M1.841,1.46C1.843,1.472,1.844,1.484,1.84,1.495C1.851,1.482,1.851,1.472,1.841,1.46z"/>
		<polygon fill="#202020" points="11.41,26.07 11.409,26.068 11.406,26.068 		"/>
		<path fill="#202020" d="M8.183,24.576c-0.092-0.285-0.165-0.51-0.237-0.731C8,24.009,8.063,24.206,8.183,24.576z"/>
		<path fill="#202020" d="M5.451,18.465l0.073,0.202C5.487,18.551,5.466,18.497,5.451,18.465z"/>
		<path fill="#202020" d="M8.438,23.926c0.055,0.133,0.13,0.351,0.083,0.161c-0.027-0.077-0.047-0.133-0.068-0.194
			C8.514,24.096,8.537,24.189,8.438,23.926z"/>
		<path fill="#202020" d="M9.03,24.476c-0.038-0.101-0.069-0.183-0.103-0.276l0.007,0.051L9.03,24.476z"/>
		<path fill="#202020" d="M1.989,3.244c0.158,0.199,0.322,0.405,0.484,0.609C2.085,3.356,1.915,3.09,1.989,3.244z"/>
		<path fill="#202020" d="M1.728,1.396c0.068,0.03,0.101,0.048,0.114,0.064C1.839,1.45,1.835,1.441,1.83,1.43
			C1.79,1.413,1.752,1.399,1.728,1.396z"/>
		<path fill="#202020" d="M3.327,8.414L3.453,8.77C3.415,8.664,3.371,8.539,3.327,8.414z"/>
		<path fill="#202020" d="M3.69,7.915L3.559,7.648C3.539,7.61,3.571,7.677,3.69,7.915z"/>
		<path fill="#202020" d="M3.386,8.515c0.265,0.756,0.432,1.234,0.578,1.65c-0.066-0.189-0.12-0.346-0.21-0.605L3.386,8.515z"/>
		<path fill="#202020" d="M2.479,3.86L2.473,3.853L2.479,3.86z"/>
		<path fill="#202020" d="M1.047,1.822c0.004,0.036,0.635,0.708,1.008,1.126c0.23,0.335-0.456-0.471-0.779-0.816
			c0.187,0.234,0.821,1.006,0.818,1.04C1.983,3.039,1.948,2.999,1.802,2.825C2.375,3.561,1.9,3.059,2.653,4.076
			C2.587,3.995,2.53,3.924,2.479,3.86c0.364,0.464,0.724,0.924,0.984,1.255C3.5,5.201,3.975,5.861,3.506,5.262
			C3.504,5.234,3.31,4.979,3.154,4.766L3.387,5.11C2.72,4.266,3.115,4.701,2.61,4.047c0.258,0.388,0.901,1.341,0.74,1.183
			C2.657,4.291,3.038,4.69,2.465,3.979l0.216,0.22C1.64,2.869,2.732,4.233,1.613,2.793C1.447,2.621,2.01,3.393,1.846,3.23
			C2.27,3.829,2.418,4.037,2.842,4.636C3.674,5.964,1.055,2.154,2.087,3.71C2.6,4.478,3.578,5.947,3.114,5.32L2.226,3.968
			C2.18,3.952,3.525,5.975,2.988,5.234C2.738,4.826,2.651,4.684,2.55,4.518C1.876,3.527,3.081,5.363,3.115,5.46L2.316,4.225
			c0.169,0.318,0.833,1.451,1.068,1.929c-0.25-0.41-0.464-0.759-0.79-1.294c0.507,0.921,0.058,0.289-0.456-0.557l0.838,1.483
			C2.877,5.613,2.63,5.184,2.451,4.873C2.162,4.391,2.974,5.789,3.31,6.391c0.076,0.153-0.455-0.777-0.712-1.238
			C3.329,6.468,4.31,8.372,3.427,6.827L3.155,6.321C2.828,5.756,5.031,9.805,4.246,8.413L4.077,8.092
			C3.935,7.882,4.099,8.239,4.14,8.367c0.039,0.122-0.047,0.01-0.75-1.308C4.818,9.816,2.837,6.064,4.846,9.96
			c-0.922-1.755-0.908-1.728-1.944-3.7c0.339,0.678,1.126,2.25,1.57,3.139l-1.097-2.17l1.19,2.385L3.254,7.023l0.306,0.625
			c0.175,0.345,0.531,1.049,0.805,1.589c0.552,1.136-0.692-1.306-1.282-2.497L4.13,8.91C3.737,8.107,3.507,7.638,3.181,6.973
			c1.221,2.499-1.22-2.465-0.101-0.176c0.29,0.589,0.703,1.43,0.938,1.906C3.33,7.322,3.353,7.391,3.689,8.103L2.857,6.394
			C2.681,6.062,3.346,7.468,3.387,7.596c0.649,1.352,1.593,3.32,2.053,4.279L4.117,9.123c0.829,1.732,0.39,0.814,1.519,3.173
			c-0.583-1.217-1.443-3.01-1.95-4.066l0.492,1.049c-0.4-0.838-0.621-1.301-1.13-2.367C3.9,8.702,1.724,4.155,3.2,7.263L2.795,6.413
			C3.074,7.035,3.207,7.33,3.434,7.838c1.072,2.298,1.034,2.218,1.982,4.248c-0.343-0.697-1.284-2.688-1.137-2.345
			c1.034,2.239,1.074,2.325,1.86,4.027c-0.959-2.062-0.964-2.072-1.865-4.007c0.512,1.147,0.644,1.443,1.35,3.028
			c0.495,1.075,0.708,1.537,1.102,2.392c0.216,0.484-0.464-0.987-1.049-2.265l-0.13-0.285c0.956,2.118,0.137,0.37-0.637-1.309
			c-0.767-1.659-1.486-3.238-0.132-0.223l-0.134-0.3l1.459,3.278c-0.846-1.88-0.852-1.892-1.762-3.914
			c1.108,2.482,1.067,2.413,0.921,2.102c-0.143-0.302-0.388-0.841,0.383,0.905C3.698,8.818,3.788,9.029,4.075,9.694l0,0
			C4.3,10.273,4.618,11.28,3.422,8.367l0.873,2.159c0.828,2.124-0.519-1.227-0.717-1.723c0.63,1.587,0.714,1.799,1.238,3.12
			c0.44,1.267,0.089,0.268-0.451-1.086c-0.523-1.342-1.062-2.724-1.571-4.03c-0.185-0.484,3.757,9.745,1.981,5.156L3.46,8.538
			c0.781,2.034,0.716,1.895,0.645,1.732c-0.078-0.179-0.159-0.384,0.385,1.116c-0.24-0.652-0.421-1.142-0.596-1.617
			c-0.845-2.274-0.071-0.168,0.573,1.603c-0.31-0.844-0.578-1.573-0.935-2.546C3.064,7.541,4.503,11.535,3.721,9.38
			C3.618,9.093,3.493,8.744,3.415,8.528c0.224,0.633,0.309,0.874,0.755,2.133c-0.433-1.193,0.308,0.942-0.206-0.496
			c0.877,2.551-0.473-1.316,0.752,2.266C3.444,8.719,3.67,9.403,4.195,11.025C3.84,9.957,3.809,9.864,3.325,8.411
			C3.59,9.236,3.75,9.732,4.112,10.856C3.414,8.742,3.68,9.567,3.867,10.193c0.194,0.637,0.318,1.093-0.469-1.434
			c0.5,1.685,0.717,2.623,0.794,3.119c-0.809-2.927,0.03-0.106-0.885-3.289c0.336,1.212,0.931,3.556,0.644,2.693
			c-0.121-0.419-0.296-1.177-0.419-1.65c0.118,0.52,0.06,0.386,0.023,0.314c-0.04-0.077-0.059-0.094,0.054,0.521
			c-0.039-0.183-0.089-0.425-0.137-0.654c0.004,0.058-0.11-0.415,0.14,0.714L3.56,10.245c0.41,1.724,0.67,3.268,0.826,4.07
			c-0.628-3.08-0.292-1.014-1.039-4.822c0.057,0.293,0.148,0.758,0.271,1.393c-0.06-0.241-0.144-0.656-0.294-1.444
			c0.072,0.5,0.299,1.632,0.234,1.5c-0.082-0.464-0.121-0.683-0.22-1.241c0.163,0.935,0.29,1.808,0.163,1.301
			c-0.045-0.279-0.113-0.661-0.098-0.628C3.367,10.415,3.6,12.429,3.36,11.358c-0.198-1.772-0.112-0.675-0.296-2.233l0.014,0.384
			l0.097,0.772c-0.04-0.099,0.01,0.872-0.078,0.307l-0.014-0.521l-0.065,0.1l0.093,0.637c-0.005,0.608,0.144,1.798,0.02,1.222
			c0.01-0.097-0.078-0.173-0.142-1.014v-0.003c-0.007,0.359-0.03,0.703-0.086,0.286C2.893,10.88,2.871,9.93,2.864,9.656
			c-0.001,0.982-0.094,0.063-0.143,1.003c0.017-0.209,0.026-0.807,0.025-0.936l-0.036,0.72c-0.021-0.301-0.018-0.42-0.001-0.874
			c-0.06-0.28-0.026,1.435-0.093,0.642c0.01-0.042,0.013-0.157,0.032-0.234C2.582,9.51,2.447,10.013,2.409,9.503
			C2.517,8.571,2.492,9.427,2.57,8.605C2.501,8.64,2.224,9.145,2.165,8.7L2.159,8.82C2.005,9.272,2.016,9.088,2.052,8.857
			C2.091,8.619,2.16,8.349,2.06,8.471c0.035-0.024,0.201-0.403,0.161-0.32c0.016-0.263-0.166-0.089-0.387-0.233l0.119-0.096
			C2.023,7.611,1.937,7.51,1.966,7.37C1.838,7.426,1.845,7.342,1.672,7.494c0.314-0.416,0.216-0.383,0.044-0.64
			C1.554,6.644,1.374,6.431,1.65,6.158c0.012,0.054,0.142,0.109,0.135,0.067c0,0-0.193-0.362-0.182-0.364
			C1.376,5.922,1.468,5.93,1.297,6.037c-0.14-0.03-0.255-0.129-0.264-0.228C1.201,5.969,1.401,5.76,1.523,5.67
			C1.454,5.691,1.374,5.675,1.303,5.69c0.39-0.251-0.465,0.018-0.215-0.295L1.21,5.397c-0.071-0.099-0.24-0.182-0.215-0.3
			c0.262-0.069,0.134,0.102,0.354,0.09C1.32,5.033,0.816,4.911,1.069,4.747c0.08,0.063,0.09,0.161,0.17,0.222
			C1.538,4.791,1.457,4.78,1.496,4.662L1.49,4.674l0.118-0.27L1.529,4.474C0.804,4.306,1.395,4.08,0.939,3.818
			c0.427,0.259,0.249,0.041,0.551,0.059c0.086-0.068,0.182-0.17,0.267-0.141C1.515,3.611,1.954,3.534,1.6,3.355
			c0.098-0.006,0.012-0.132,0.256-0.097C1.782,3.096,1.686,3.29,1.564,3.273c-0.318-0.266,0.392-0.56-0.014-0.946
			c-0.147-0.324-0.466-0.417-0.59-0.734c0.168-0.08,0.342,0.124,0.342,0.124c0.165-0.157,0.148-0.226,0.055-0.379
			c0.079,0.049,0.153,0.042,0.263,0.048c-0.015-0.083-0.333-0.19-0.18-0.254c0.099,0.068,0.253,0.174,0.362,0.249
			C1.724,1.274,1.566,1.087,1.5,0.913c0.16,0.088,0.229,0.231,0.33,0.319c-0.021-0.059-0.078-0.164-0.087-0.24
			C1.743,0.926,1.726,0.84,1.641,0.728L1.478,0.686c0.039-0.028,0.213,0.168,0.227,0.215c0.074,0.172-0.156,0.028-0.261-0.033
			c0,0-0.051-0.132-0.041-0.126C1.127,0.569,1.139,0.713,1.206,0.872c0.069,0.167,0.205,0.339,0.179,0.413
			c0,0-0.097-0.056-0.195-0.111C1.094,1.113,0.997,1.051,0.997,1.051C0.995,1.065,1.301,1.383,1.303,1.37
			C1.193,1.378,0.96,1.368,0.915,1.236C0.691,1.359,1.041,1.411,0.797,1.513C0.759,1.523,0.74,1.514,0.726,1.498l0.103,0.167
			c-0.083-0.04-0.295-0.01-0.223-0.096C0.331,1.817,0.859,2.042,0.532,2.113L0.509,2.088C0.6,2.479,0.808,2.154,1.129,2.461
			L0.371,2.598l0.304,0.057C0.663,2.694,0.639,2.77,0.517,2.749C0.723,2.907,0.65,2.732,0.846,2.827
			c-0.281,0.176,0.12,0.518-0.367,0.55C0.709,3.448,0.661,3.2,0.818,3.404C0.294,3.453,0.904,3.636,0.66,3.806
			C0.391,3.754,0.537,3.587,0.293,3.763c0.454,0.102-0.106,0.342-0.022,0.491c0.352-0.004,0.17,0.314,0.313,0.553
			C0.461,4.799,0.426,5.282,0.317,5.528L0.255,5.528c0.369,0.007,0.321,0.249,0.412,0.411C0.449,5.96,0.36,5.94,0.254,5.858
			l0.017,0.164c0.121,0.023,0.185,0.066,0.239,0.165L0.233,6.184c0.051,0.217,0.4,0.382,0.271,0.688
			c0.255-0.033,0.661-0.336,0.883-0.088C1.253,6.819,1.022,6.873,0.952,6.809c0.023,0.021,0.13,0.066,0.081,0.126L0.782,6.863
			C0.705,7.006,0.986,6.892,0.983,6.994c-0.194,0.035-0.124,0.1-0.281,0.115c-0.024-0.022,0.063-0.102-0.02-0.126
			C0.67,7.106,0.578,7.248,0.449,7.366c0.107-0.04,0.259-0.06,0.304,0.035C0.818,7.666,0.543,7.57,0.481,7.784
			c0.139,0.018,0.061,0.27,0.328,0.127c0.017,0.079-0.102,0.168-0.164,0.246C0.793,8.24,0.886,8.802,1.088,8.415l0.007-0.048
			c0.007,0.002,0.009,0.008,0.017,0.011l0-0.001l0,0.001c0.181,0.093,0.202,0.312,0.224,0.587c0.019,0.268,0.037,0.592,0.14,0.722
			L1.416,9.812c0.139,0.114,0.22,0.472,0.389,0.298c0.024,0.062-0.02,0.432-0.083,0.589c0.109,0.065,0.154-0.108,0.199,0.42
			c-0.139,0.108-0.028,0.321-0.126,0.024c0.066,0.375,0.05,0.724,0.242,0.503c-0.116,0.359-0.007,0.766,0.065,0.748l-0.029-0.509
			c0.065,0.061,0.106,0.214,0.151,0.371l-0.099,0.573c0.079,0.673,0.239,0.567,0.354,0.48c0.121-0.078,0.203-0.137,0.293,0.788
			c0.066-0.383-0.128-0.616-0.062-1.09c0.092,0.294,0.22,1.59,0.263,1.671c0.182,0.745,0.111-0.829,0.275-0.234
			c-0.038-0.323-0.094-1.101-0.009-1.174c0.1,0.286,0.222,1.455,0.166,1.556c-0.026-0.025-0.046-0.141-0.051-0.236
			c-0.029,0.039-0.071,0.071-0.004,0.465l-0.004-0.259c0.077,0.396,0.242,0.661,0.245,1.074c0.07-0.115-0.005-0.416-0.083-0.684
			c0.192,0.701,0.237,0.435,0.429,1.013c-0.046-0.216-0.11-0.616-0.086-0.57c0.272,0.787,0.024-0.413,0.145-0.293
			c0.15,0.634,0.134,1.105,0.226,0.969c0.145,0.503,0.153,0.898,0.149,1.086c0.056-0.361,0.365,0.927,0.487,1.219l-0.043,0.119
			c0.027-0.069,0.071,0.01,0.117,0.088l-0.169-0.763c0.071,0.204,0.114,0.279,0.165,0.563c-0.031-0.363-0.241-1.199-0.259-1.653
			c0.127,0.458,0.105-0.072,0.31,0.902c-0.259-0.657,0.207,0.98,0.058,0.827c0.014-0.051,0.057,0.025,0.132,0.236
			c0.028,0.118,0.031,0.182,0.027,0.211c0.378,1.199-0.114-0.901,0.087-0.541c0.088,0.499,0.267,1.118,0.278,1.062
			c-0.089-0.159-0.232-0.979-0.254-1.281c0.218,0.644,0.068-0.079,0.145,0.087l-0.125-0.345c-0.1-0.517-0.023-0.336,0.02-0.37
			c0.114,0.467-0.006,0.173,0.071,0.426c-0.15-0.868,0.481,1.473,0.456,1.025c0.172,0.538,0.296,1.172,0.431,1.572
			c-0.035-0.508,0.422,1.227,0.435,0.884c-0.291-0.987-0.234-0.77-0.346-1.425c0.004,0.008-0.12,0.115-0.124,0.107l-0.151-0.946
			c-0.081-0.149-0.029,0.244-0.117,0.009c-0.095-0.548-0.053-0.36-0.271-1.131c0.444,1.486-0.001-0.416,0.352,0.682l0.604,2.236
			c0.224,0.637,0.309,0.712,0.343,0.635c0.04-0.063,0.037-0.259,0.321,0.468l-0.257-0.721c-0.279-1.006,0.162,0.271,0.129,0.023
			c0.292,0.98,0.473,1.494,0.724,2.255c-0.245-0.793,0.318,0.707-0.339-1.45l0.62,1.812c0.119,0.298,0.156,0.352,0.093,0.098
			c-0.09-0.324-0.195-0.702-0.304-1.094c-0.238-0.832-0.48-1.658-0.349-1.375c0.36,1.196,0.676,2.049,0.881,2.881
			c0.044,0.039,0.147,0.268-0.106-0.514c0.25,0.709-0.372-1.398,0.01-0.312c-0.14-0.462-0.508-1.587-0.427-1.435
			C8.1,22.683,8.2,22.984,8.2,22.984c-0.176-0.532-0.158-0.615-0.594-1.844c0.624,1.754,0.694,1.772,0.751,1.779
			c0.05-0.003,0.082-0.018,0.57,1.282c-0.028-0.22-0.026-0.37,0.031-0.329c0.086,0.247,0.152,0.422,0.106,0.316
			c0.382,0.892-0.797-2.302-0.35-1.235c0.536,1.375,0.187,0.602,0.407,1.148c0.491,1.334,0.489,1.264,0.447,1.086
			c-0.049-0.181-0.128-0.449,0.166,0.299l0.039,0.126c0.343,0.854-0.224-0.766-0.07-0.456c0,0,0.071,0.189,0.124,0.331
			c-0.367-1.052-0.365-1.167-0.368-1.262c0.255,0.695,0.11,0.329,0.419,1.122c-0.004-0.045-0.48-1.263-0.478-1.301
			c0.171,0.432,0.354,0.896,0.655,1.657l-0.039-0.058c0.409,1.045,0.052,0.079,0.149,0.309l0.154,0.403
			c0.015-0.03-0.349-0.974-0.215-0.695l-0.114-0.288c-0.266-0.722,0.235,0.575,0.058,0.083l0.33,0.838
			c-0.041-0.153-0.179-0.49-0.152-0.426c0.116,0.303,0.217,0.566,0.303,0.792c0.029,0.052,0.045,0.106-0.066-0.183
			c0.014,0.036,0.068,0.176,0.017,0.045c-0.186-0.479-0.216-0.557-0.139-0.359c0.318,0.813,0.277,0.709,0.535,1.368
			c0.178-0.266,0.607-0.257,0.978-0.303l0,0c-0.031-0.106-0.062-0.211-0.095-0.323c-0.194-0.368-0.051-0.158-0.299-0.682
			c-0.054-0.148-0.064-0.182-0.051-0.156l0.047-0.014c0.053,0.078,0.093,0.229,0.149,0.342c-0.055-0.208,0.082,0.128,0.106,0.107
			c-0.087-0.162-0.166-0.367-0.17-0.436l-0.067-0.051c-0.256-0.638,0.143,0.155-0.11-0.485l0.123,0.282
			c-0.107-0.281-0.189-0.67-0.488-1.274c0.025,0.029,0.097,0.131,0.142,0.25c-0.085-0.374-0.564-1.411-0.505-1.493l0.092,0.158
			c-0.047-0.118-0.198-0.375-0.145-0.352c0.036,0.056,0.093,0.157,0.087,0.126c-0.041-0.086-0.212-0.432-0.195-0.468l0.123,0.23
			c-0.009-0.268-0.43-0.988-0.608-1.421c0.267,0.351,0.258,0.126,0.256,0.011l0.041,0.054c-0.103-0.464-0.476-1.135-0.737-1.719
			c0.244,0.058-0.15-0.832-0.086-1.12c-0.039,0.019-0.259-0.241-0.317-0.352c0.035-0.051-0.322-0.5-0.01-0.22l0.006,0.034
			c0.277,0.175,0.134-0.123,0.092-0.294l-0.42-0.36c0.474,0.007-0.594-1.362-0.105-1.222c-0.143-0.185-0.182-0.323-0.327-0.504
			l0.242,0.156c-0.029-0.275-0.041-0.417-0.212-0.84l0.2,0.178c-0.045-0.216-0.797-0.669-0.875-0.87l0.357,0.134
			c-0.122-0.377,0.105-0.618-0.36-1.148c0.059,0.03,0.175,0.089,0.209,0.158c-0.044-0.174,0.061-0.601-0.463-0.739
			c0.352,0.129-0.084-0.383-0.308-0.636l0.274,0.12c-0.391-0.286-0.486-0.32-0.658-0.584c0.016-0.045,0.197,0.016,0.153,0.07
			c0.079-0.146-0.3-0.221-0.232-0.404l0.199,0.133c-0.042-0.188-0.129-0.199-0.364-0.357c-0.148-0.147-0.053-0.342,0.184-0.314
			c-0.158-0.062-0.393-0.213-0.359-0.309c0.088,0.005,0.159,0.059,0.194,0.086c0.081-0.286-0.475-0.541-0.28-0.709
			c0.089,0.012,0.13,0.005,0.151-0.009c0.077,0.257,0.13,0.461,0.104,0.437c0.251,0.053,0.229-0.153,0.63,0.088
			c-0.242-0.215-0.75-0.576-0.697-0.759c0.021-0.006,0.042-0.012,0.079-0.013l0.035,0.026c0.01-0.044-0.027-0.09-0.083-0.136
			C6.524,9.578,6.542,9.54,6.525,9.478c0.203,0.005,0.036-0.229,0.012-0.333C6.261,9.12,6.261,8.989,6.072,9.09
			c0.015-0.014,0.04,0.023,0.074,0.094C6.16,9.2,6.17,9.219,6.19,9.231l-0.027-0.01C6.191,9.29,6.226,9.38,6.267,9.481
			C6.098,9.379,5.951,9.28,6.068,9.186C5.871,9.108,5.667,9.029,5.569,8.99C5.911,8.899,6.032,8.644,6.26,8.626
			C5.998,8.293,5.909,7.859,5.314,7.647C5.216,7.558,5.431,7.55,5.503,7.518c0.07,0.053,0.083,0.114,0.168,0.144
			C5.475,7.48,5.439,7.13,5.056,7.089c0.09-0.223,0.383,0.124,0.217-0.183L5.4,6.947c0.382-0.645-1.276-0.931-0.752-1.645
			c-0.03,0.051-0.044,0.076-0.102,0.091c0.067-0.806-0.85-1.498-0.592-2.341c0.03-0.236-0.209-0.209-0.428-0.296l0.278-0.114
			L3.387,2.502c-0.355-0.242,0.526-0.729-0.08-1L3.13,1.609C3.117,1.457,2.857,1.197,3.089,1.153
			C3.049,1.149,2.87,1.168,2.952,1.082l0.149-0.051L2.721,0.766c0.013-0.304,0.612-0.151,0.5-0.56
			C3.11,0.076,2.637-0.062,2.557,0.029c0.013,0.061-0.04,0.182-0.188,0.239L2.245,0.164C1.789,0.27,1.339,0.428,1.076,0.66
			C1.073,0.652,1.398,0.715,1.401,0.724L1.183,0.786L1.138,0.7c-0.196,0.082,0.001,0.075,0.15,0.11
			C1.166,0.826,1.083,0.843,1.042,0.861C1.037,0.848,1.554,0.974,1.559,0.988C1.363,0.981,1.149,0.915,1.061,0.965
			C1.307,1.042,1.49,0.954,1.676,1.073C1.464,1.109,1.258,1.044,1.489,1.153C1.355,1.133,1.262,1.1,1.194,1.068
			c0.182,0.084,0.116,0.145,0.423,0.27c-0.295-0.05,0.161,0.249-0.394,0.004c0.135,0.066,0.472,0.295,0.519,0.373
			C1.018,1.252,1.774,1.896,0.996,1.397c0.669,0.466,0.357,0.374,0.783,0.789C1.721,2.133,1.603,2.029,1.635,2.048
			C1.6,2.067,1.391,1.905,1.265,1.819c0.598,0.513,0.776,0.747,1.188,1.184C1.887,2.54,1.703,2.267,1.144,1.777
			C1.64,2.225,1.689,2.365,2.108,2.754c-0.355-0.3-0.162-0.117-0.685-0.62c0.812,0.822,0.154,0.184,0.676,0.756
			C1.725,2.56,1.327,2.09,1.613,2.449C1.365,2.199,1.047,1.822,1.047,1.822z M3.623,6.545C3.616,6.533,3.608,6.521,3.608,6.521
			C3.582,6.467,3.56,6.42,3.545,6.391C3.561,6.423,3.583,6.467,3.623,6.545z M3.729,6.83c0.017,0.015,0.007-0.018-0.013-0.069
			c0.246,0.404,0.506,0.851,0.506,0.851C4.048,7.317,3.929,7.148,3.729,6.83z M6.553,9.355c0.062,0.076,0.015,0.092-0.039,0.094
			C6.498,9.415,6.477,9.375,6.441,9.322L6.404,9.309C6.46,9.323,6.512,9.337,6.553,9.355z"/>
		<path fill="#202020" d="M6.147,9.183c-0.01-0.011-0.023-0.018-0.03-0.031C6.097,9.164,6.08,9.174,6.068,9.186l0.095,0.035
			L6.147,9.183z"/>
		<path fill="#202020" d="M1.088,8.415L1.086,8.431c0.006-0.017,0.013-0.034,0.025-0.052C1.101,8.394,1.096,8.403,1.088,8.415z"/>
		<polygon fill="#202020" points="3.121,6.727 3.375,7.229 3.148,6.776 		"/>
		<path fill="#202020" d="M1.523,5.67c0.024-0.007,0.049-0.019,0.069-0.039C1.573,5.635,1.549,5.651,1.523,5.67z"/>
		<path fill="#202020" d="M1.496,4.662l0.087-0.146C1.532,4.58,1.509,4.626,1.496,4.662z"/>
		<path fill="#202020" d="M1.611,3.89c-0.049-0.009-0.086-0.012-0.12-0.014L1.489,3.878L1.611,3.89z"/>
		<path fill="#202020" d="M3.473,9.812L3.462,9.75C3.404,9.464,3.424,9.572,3.473,9.812z"/>
		<path fill="#202020" d="M2.989,11.007C2.993,10.865,2.997,10.728,3,10.613C2.978,10.496,2.964,10.447,2.989,11.007z"/>
		<path fill="#202020" d="M3.312,8.373l0.013,0.038C3.323,8.404,3.327,8.414,3.327,8.414L3.312,8.373z"/>
		<path fill="#202020" d="M3.052,10.735C3.018,10.489,3.006,10.505,3,10.613C3.017,10.713,3.045,10.859,3.052,10.735z"/>
		<path fill="#202020" d="M1.987,1.162l0.028,0.002C2,1.15,1.988,1.139,1.979,1.129L1.987,1.162z"/>
		<path fill="#202020" d="M1.979,1.129L1.973,1.096C1.963,1.1,1.956,1.105,1.979,1.129z"/>
		<path fill="#202020" d="M1.965,1.024l0.008,0.072C1.99,1.091,2.016,1.091,1.965,1.024z"/>
		<path fill="#202020" d="M1.756,1.599l0.1,0.02C1.835,1.614,1.803,1.608,1.756,1.599z"/>
		<path fill="#202020" d="M1.746,1.902c0.033-0.071,0.24-0.156,0.19-0.265L1.857,1.618C2.001,1.681,1.585,1.812,1.746,1.902z"/>
		<path fill="#202020" d="M0.393,3.138L0.48,2.865C0.37,2.907,0.223,2.966,0.2,2.837C-0.131,3.176,0.444,2.775,0.393,3.138z"/>
		<path fill="#202020" d="M0.219,4.002C0.171,3.852,0.061,4.006,0,3.999C0.097,4.095,0.122,4.116,0.219,4.002z"/>
		<path fill="#202020" d="M1.707,10.923l-0.118,0.387C1.664,11.388,1.632,11.154,1.707,10.923z"/>
		<polygon fill="#202020" points="2.559,9.232 2.58,8.772 2.505,9.333 		"/>
		<polygon fill="#202020" points="2.586,14.032 2.553,14.051 2.673,14.073 		"/>
		<path fill="#202020" d="M9.352,25.572l-0.543-1.534C8.876,24.277,9.474,26.009,9.352,25.572z"/>
		<path fill="#202020" d="M10.246,26.038c0.152,0.383,0.26,0.638,0.151,0.34C10.356,26.293,10.225,25.973,10.246,26.038z"/>
		<polygon fill="#202020" points="9.063,17.632 9.171,17.786 9.054,17.565 		"/>
	</g>
</g>
</svg>