<!-- Generator: Adobe Illustrator 18.1.1, SVG Export Plug-In  -->
<svg version="1.1"
	 xmlns="http://www.w3.org/2000/svg" xmlns:xlink="http://www.w3.org/1999/xlink" xmlns:a="http://ns.adobe.com/AdobeSVGViewerExtensions/3.0/"
	 x="0px" y="0px" width="27.387px" height="13.953px" viewBox="0 0 27.387 13.953" enable-background="new 0 0 27.387 13.953"
	 xml:space="preserve">
<defs>
</defs>
<g>
	<path d="M27.334,12.746C16.091,13.975,7.215,11.527,0.973,1.202c1.383-0.096,2.82-0.625,3.848-0.19
		c3.396,1.439,6.632,3.251,9.952,4.872c2.903,1.417,5.867,2.711,8.742,4.181C24.694,10.669,25.711,11.59,27.334,12.746z"/>
	<g>
		<path fill="#202020" d="M26.948,13.288c0.076-0.052,0.174-0.221,0.081-0.241l-0.244,0.232L26.948,13.288z"/>
		<path fill="#202020" d="M26.828,12.444c-0.178,0.069-0.441,0.224-0.568,0.509c0.272-0.195,0.213-0.073,0.526-0.314
			c0.093,0.021,0.061,0.176-0.023,0.266c0.075-0.051,0.069,0.139,0.229-0.002c0.057-0.275-0.053-0.367-0.299-0.286
			C26.71,12.54,26.786,12.489,26.828,12.444z"/>
		<path fill="#202020" d="M19.725,7.739l0.032,0.059C19.753,7.772,19.741,7.753,19.725,7.739z"/>
		<path fill="#202020" d="M15.04,5.297c0.039,0.011,0.069-0.012,0.084-0.038C15.081,5.262,15.045,5.267,15.04,5.297z"/>
		<path fill="#202020" d="M14.4,4.573c0.014,0.017,0.025,0.029,0.037,0.044C14.433,4.581,14.422,4.557,14.4,4.573z"/>
		<path fill="#202020" d="M19.725,7.739l-0.081-0.154C19.587,7.677,19.673,7.688,19.725,7.739z"/>
		<path fill="#202020" d="M25.405,12.375c0.033,0.005,0.071-0.005,0.114-0.023c-0.028-0.003-0.054-0.008-0.079-0.015L25.405,12.375z
			"/>
		<path fill="#202020" d="M21.946,8.504l0.039,0.018c0.026-0.03,0.058-0.065,0.093-0.105L21.946,8.504z"/>
		<path fill="#202020" d="M23.582,9.23c-0.031-0.028-0.171,0.216-0.241,0.319c0.073-0.093,0.125-0.129,0.167-0.133
			C23.532,9.368,23.557,9.308,23.582,9.23z"/>
		<path fill="#202020" d="M25.775,11.226l0.063,0C25.82,11.226,25.796,11.226,25.775,11.226z"/>
		<path fill="#202020" d="M20.819,7.897c0.016-0.039,0.027-0.074,0.03-0.097C20.834,7.832,20.824,7.865,20.819,7.897z"/>
		<path fill="#202020" d="M25.182,11.614c0.001,0.02,0.002,0.033,0.004,0.05C25.194,11.635,25.195,11.614,25.182,11.614z"/>
		<polygon fill="#202020" points="27.342,12.818 27.315,12.835 27.326,12.992 		"/>
		<path fill="#202020" d="M13.1,3.514l0.004,0.008C13.157,3.513,13.132,3.507,13.1,3.514z"/>
		<path fill="#202020" d="M1.552,4.151C1.649,3.862,1.986,4.19,2.051,3.813C1.994,3.92,1.51,3.825,1.552,4.151z"/>
		<path fill="#202020" d="M25.391,12.318c-0.021-0.012-0.042-0.025-0.06-0.042C25.352,12.303,25.37,12.316,25.391,12.318z"/>
		<path fill="#202020" d="M2.051,3.813l0.002-0.001l0.005-0.037C2.055,3.79,2.053,3.8,2.051,3.813z"/>
		<path fill="#202020" d="M9.63,1.937C9.615,1.984,9.612,2.025,9.61,2.064C9.622,2.038,9.63,2.002,9.63,1.937z"/>
		<path fill="#202020" d="M11.98,3.58l-0.045-0.065C11.948,3.55,11.964,3.568,11.98,3.58z"/>
		<path fill="#202020" d="M8.125,1.637C8.1,1.601,8.105,1.56,8.041,1.571c-0.002,0.015-0.002,0.026,0,0.038
			C8.074,1.583,8.105,1.578,8.125,1.637z"/>
		<path fill="#202020" d="M6.727,0.978C6.728,1.001,6.728,1.02,6.729,1.042L6.78,1.048L6.727,0.978z"/>
		<path fill="#202020" d="M20.685,11.803c0.029,0.081,0.045,0.169,0.056,0.256C20.728,11.858,20.947,11.799,20.685,11.803z"/>
		<path fill="#202020" d="M25.5,12.249c-0.05,0.051-0.082,0.071-0.109,0.069c0.016,0.008,0.033,0.014,0.05,0.019
			C25.469,12.306,25.494,12.275,25.5,12.249z"/>
		<path fill="#202020" d="M7.104,3.606L6.906,3.465C6.955,3.519,7.027,3.569,7.104,3.606z"/>
		<path fill="#202020" d="M10.639,9.265l0.062-0.004C10.686,9.245,10.666,9.243,10.639,9.265z"/>
		<path fill="#202020" d="M6.249,3.199c0.004-0.108-0.013-0.179-0.039-0.233C6.191,2.981,6.173,2.993,6.153,3.019L6.249,3.199z"/>
		<path fill="#202020" d="M20.742,12.062l0-0.003L20.742,12.062z"/>
		<path fill="#202020" d="M22.301,11.428c-0.222-0.008-0.106,0.361-0.154,0.573c-0.27,0.104-0.122-0.272-0.211-0.461
			c-0.167,0.098-0.301,0.436-0.426,0.422c-0.008-0.061-0.032-0.083-0.002-0.159c-0.186,0.301-0.522-0.005-0.744,0.353
			c-0.014-0.034-0.02-0.065-0.023-0.093c0.025,0.187,0.022,0.375,0.009,0.508c-0.102,0-0.202,0.222-0.228-0.021
			c0.062,0.011,0.072-0.086,0.105-0.16l-0.112,0.098c-0.078-0.352,0.152-0.111,0.164-0.368c-0.211,0.101-0.471,0.374-0.624,0.267
			c-0.01-0.341,0.378-0.093,0.186-0.406l0.237,0.143c-0.157-0.546,0.145,0.046,0.006-0.536c-0.31-0.116-0.365,0.153-0.675,0.036
			c-0.086,0.184,0.003,0.28-0.084,0.464c-0.488,0.314-0.282-0.879-0.651-0.463c-0.107,0.215-0.187,0.638-0.4,0.384l0.123-0.372
			c-0.3-0.074-0.24,0.527-0.531,0.233c0.077-0.143,0.257-0.098,0.217-0.148c-0.17-0.325-0.174,0.199-0.336,0.18l0.012-0.341
			c-0.333,0.023-0.726,0.208-1.096,0.195c0.037-0.096,0.116-0.189,0.051-0.307c-0.476,0.076-0.957-0.204-1.327-0.512l-0.229,0.243
			c-0.037-0.013-0.038-0.147,0.016-0.192c-0.137-0.152-0.053,0.179-0.16,0.269c-0.1-0.005-0.083-0.196-0.002-0.266
			c-0.346,0.164-0.978,0.299-1.194-0.089l0.084-0.064c-0.196-0.192-0.446,0.481-0.581,0.145l0.058-0.035
			c-0.461-0.308-1.14-0.224-1.341-0.814c-0.236,0.358-0.406-0.388-0.676,0.137c-0.161-0.392-0.037-0.452-0.341-0.802
			c-0.09-0.071-0.32,0.266-0.471,0.248l0.136-0.277l-0.316,0.194l0.081-0.376l-0.152,0.006c0.037,0.042,0.033,0.177-0.015,0.251
			c-0.25,0.021-0.342-0.435-0.267-0.574l-0.558-0.01c0.073-0.101,0.166-0.098,0.262-0.136c-0.387,0.145,0.125-0.302-0.23-0.168
			c-0.008,0.075-0.11,0.149-0.147,0.199C9.735,8.611,9.52,8.449,9.31,8.406l0.147-0.157C9.191,8.003,8.774,7.911,8.439,7.682
			c0.062,0.16-0.181,0.441-0.303,0.401l0.153-0.289c-0.184,0.118,0.031,0.17-0.247,0.278C7.944,7.944,8.184,7.71,8.314,7.679
			L8.103,7.653c0.05-0.084,0.115-0.098,0.198-0.19C8.119,7.576,8.256,7.005,7.956,7.215l0.052-0.083
			c-0.31-0.254-0.523-0.282-0.79-0.477C7.029,6.864,6.968,6.737,6.741,6.843c-0.12-0.24-0.166-0.591-0.395-0.777
			C6.1,6.023,6.138,6.196,5.955,6.251C6.121,6.056,5.891,5.869,6.13,5.843c-0.28-0.221-0.373-0.261-0.826-0.456
			c-0.044,0.109-0.04,0.182-0.122,0.221c-0.086-0.034-0.047-0.215,0.051-0.29l0.034-0.002C4.638,5.184,5.053,3.947,4.382,3.996
			l0.035,0C4.411,4.005,3.944,3.84,3.944,3.84c-0.082-0.182,0.22-0.027,0.258-0.24c-0.61-0.097-0.381-0.605-0.833-0.731
			c0.212-0.346,0.224-0.304,0.145-0.335C3.448,2.521,3.297,2.442,3.595,2.448L3.368,2.432C3.13,2.392,3.486,2.423,3.539,2.429
			C3.352,2.4,3.337,2.416,3.2,2.387C3.023,2.284,2.951,2.136,3.127,2.165C3.442,2.241,3.706,2.38,3.76,2.463
			c0.004,0.049-0.542-0.867-0.187-0.481C3.566,1.982,3.679,2.304,3.686,2.303C3.65,2.109,3.701,2.095,3.979,2.116L4.234,2.15
			c0.04-0.003,0.062,0.001,0.1-0.013c0.05-0.006,0.16,0.011,0.243,0.001c-0.065,0.055-0.105,0.146-0.162,0.12
			c0.03,0.274,0.455,0.209,0.536,0.031c0.083,0.06-0.05,0.171-0.033,0.287c0.067,0.185,0.437-0.14,0.406,0.107
			c-0.005,0.04-0.067,0.055-0.097,0.062c0.129-0.07,0.365,0.196,0.402-0.091c0.165,0.222,0.473,0.082,0.581,0.312
			c0.246-0.226,0.313,0.312,0.536-0.066C6.537,3.3,6.974,3.411,7.205,3.288C7.1,3.389,7.264,3.474,7.128,3.618
			c0.161,0.07,0.342,0.065,0.417-0.157C7.597,4.09,8.324,3.358,8.18,4.062c0.578,0.016,1.087,0.089,1.559,0.21
			c-0.22,0.394-0.488-0.198-0.684,0.234c0.484,0.037,0.892-0.19,1.241,0.11c0.075,0.108-0.148,0.144-0.217,0.195
			c0.486,0.039,0.758,0.434,1.227,0.398c-0.02,0.037-0.08,0.058-0.132,0.07c0.077,0.023,0.134,0.143,0.22-0.044l-0.094,0.014
			c0.023-0.323,0.564-0.41,0.648-0.544C11.56,5.17,12.233,5.02,11.705,5.584c0.064-0.011,0.167-0.067,0.218-0.195
			c0.051,0.071,0.037,0.153-0.104,0.256c0.305,0.03,0.313-0.21,0.541-0.089c-0.046,0.088-0.11,0.099-0.186,0.191
			c0.204-0.113,0.408-0.226,0.565-0.053C12.7,5.741,12.687,5.822,12.63,5.791c0.348,0.143,0.801-0.172,1.085,0.178
			c-0.301,0.332,0.062,0.19-0.085,0.534l0.248-0.001l0-0.202c0.172,0.092,0.445-0.077,0.541,0.107l-0.197,0.074l0.357,0.095
			L14.458,6.36c0.26-0.087,0.188-0.433,0.374-0.228c-0.064,0.012,0.172,0.087,0.166,0.328L14.997,6.46
			c0.138-0.066,0.282-0.136,0.37,0.009c-0.019,0.123-0.209,0.358-0.222,0.44c0.222-0.24,0.445,0.117,0.699-0.13
			c-0.07,0.053-0.158,0.228-0.164,0.27l0.183-0.194c0.045,0.111,0.039,0.152-0.043,0.286c0.222,0.157,0.132-0.462,0.329-0.141
			c-0.032,0.008-0.038,0.047-0.102,0.059c0.242,0.233,0.629,0.122,0.839,0.361c-0.088,0.374-0.272-0.028-0.323,0.299
			c0.412,0.122,0.991-0.025,1.322,0.231l-0.05-0.07c0.287-0.45,0.159,0.367,0.457,0.232c-0.063,0.013-0.191,0.235-0.153,0.188
			c0.215,0.197,0.576,0.131,1.034,0.165l-0.109,0.099c0.095,0.18,0.362,0.251,0.495,0.383c0.109-0.099,0.191-0.035,0.224-0.239
			c0.149,0.931,1.136,0.082,1.286,0.87c-0.053-0.024-0.179,0.046-0.138,0.067l0.432,0.068c0.075-0.221,0.014-0.148,0.016-0.347
			c0.109-0.099,0.264-0.143,0.357-0.099c-0.238,0.056-0.166,0.332-0.151,0.482c0.02-0.069,0.08-0.127,0.106-0.194
			c0.01,0.461,0.243-0.399,0.386-0.024l-0.069,0.101c0.128-0.007,0.294-0.106,0.386-0.023c-0.076,0.26-0.163,0.06-0.27,0.253
			c0.159,0.059,0.529-0.308,0.546-0.005c-0.098,0.035-0.192-0.008-0.29,0.027c0.007,0.351,0.061,0.289,0.15,0.386l-0.008-0.012
			l0.193,0.25l-0.027-0.107c0.505-0.528,0.449,0.067,0.905-0.208c-0.438,0.256-0.154,0.201-0.314,0.459
			c0.02,0.106,0.062,0.235-0.004,0.297c0.226-0.153,0.076,0.261,0.407,0.046c-0.044,0.087,0.108,0.077-0.046,0.27
			c0.175,0.022,0.059-0.164,0.134-0.26c0.4-0.143,0.268,0.657,0.833,0.504c0.374,0.04,0.621-0.185,0.967-0.13
			c-0.011,0.188-0.282,0.232-0.282,0.232c0.048,0.216,0.164,0.271,0.358,0.278c-0.077,0.048-0.094,0.126-0.122,0.242
			c0.117,0.057,0.283-0.231,0.33-0.015c-0.089,0.069-0.223,0.185-0.339,0.235c0.175,0.02,0.403-0.035,0.581-0.011
			c-0.069,0.161-0.231,0.149-0.342,0.204c0.187,0.045,0.459,0.152,0.663-0.032l-0.033-0.144c0.059,0.028-0.112,0.205-0.179,0.216
			c-0.248,0.078-0.118-0.206-0.066-0.289l0.126,0.017c0.252-0.526-0.412-0.195-0.57-0.357l0.326-0.275l-0.391,0.137
			c0.027-0.116,0.141-0.321,0.266-0.304c-0.003-0.261-0.202,0.032-0.174-0.234c0.009-0.038,0.027-0.049,0.048-0.054l-0.2,0.004
			c0.077-0.051,0.156-0.25,0.197-0.144c-0.082-0.362-0.551-0.023-0.45-0.339l0.034-0.006c-0.401-0.119-0.212,0.223-0.657,0.343
			l0.272-0.729l-0.206,0.228c-0.027-0.033-0.081-0.097,0-0.189c-0.244,0.087-0.054,0.124-0.237,0.238
			c-0.007-0.344-0.517-0.18-0.302-0.617c-0.18,0.162,0.068,0.251-0.194,0.28c0.215-0.482-0.252-0.046-0.292-0.339
			c0.177-0.212,0.266-0.001,0.216-0.302c-0.316,0.345-0.273-0.253-0.448-0.238c-0.172,0.321-0.361-0.005-0.642-0.005
			c0.07-0.102-0.334-0.381-0.484-0.599l0.034-0.051c-0.207,0.308-0.392,0.143-0.584,0.135c0.105-0.193,0.173-0.257,0.303-0.304
			l-0.149-0.069c-0.088,0.088-0.162,0.121-0.278,0.113l0.161-0.227c-0.204-0.081-0.543,0.098-0.714-0.187
			c-0.13,0.222-0.119,0.733-0.464,0.758c0.052-0.128,0.149-0.345,0.245-0.362c-0.031,0.005-0.134,0.063-0.154-0.011l0.212-0.157
			c-0.07-0.147-0.148,0.145-0.231,0.081c0.091-0.176-0.005-0.159,0.079-0.292c0.032-0.006,0.044,0.111,0.114,0.059
			c-0.088-0.081-0.162-0.246-0.136-0.4c-0.041,0.105-0.12,0.237-0.207,0.224c-0.204-0.081,0.039-0.245-0.03-0.39
			c-0.109,0.1-0.172-0.088-0.307,0.175c-0.057-0.029-0.006-0.157,0.008-0.239c-0.161,0.067-0.494-0.195-0.519,0.141l0.017,0.031
			c-0.008,0.001-0.013,0.002-0.022,0.004l0.001,0l-0.001,0c-0.466,0.102-0.62-0.482-1.009-0.528l0.045-0.088
			c-0.249,0.006-0.471-0.151-0.707-0.029c-0.058-0.028-0.058-0.228,0.019-0.321c-0.185-0.006-0.251,0.085-0.397-0.165
			c0.229-0.082,0.015-0.162,0.212-0.038c-0.159-0.171-0.134-0.334-0.465-0.193c0.184-0.192-0.007-0.357-0.134-0.333l0.058,0.228
			c-0.122-0.017-0.204-0.081-0.288-0.146l0.198-0.274c-0.225-0.556-1.031,0.27-1.039-0.485c-0.209,0.158,0.147,0.252-0.069,0.45
			c-0.165-0.129-0.148-0.65-0.206-0.679c-0.173-0.287-0.451,0.323-0.661,0.083c-0.018,0.123-0.125,0.423-0.373,0.428
			c-0.166-0.128-0.007-0.558,0.15-0.586c0.048,0.013,0.054,0.057,0.034,0.092c0.079-0.01,0.18-0.018,0.163-0.169l-0.076,0.095
			c-0.04-0.152-0.295-0.266-0.151-0.411c-0.188,0.034-0.145,0.146-0.07,0.251c-0.158-0.27-0.364-0.184-0.554-0.408
			c0.009,0.078-0.018,0.22-0.055,0.2c-0.288-0.308-0.256,0.124-0.52,0.05c-0.055-0.23,0.242-0.361-0.067-0.347
			c-0.092-0.184,0.111-0.297,0.212-0.354c-0.322,0.094-0.342-0.341-0.448-0.442l0.159-0.027c-0.095,0.016-0.15-0.014-0.208-0.044
			L13.47,3.899c-0.049-0.071-0.106-0.101-0.06-0.189c-0.14,0.103-0.125,0.379-0.36,0.498c-0.036-0.154-0.335-0.025-0.223-0.322
			c0.236,0.24,0.112-0.298,0.376-0.221c-0.063,0.01-0.119-0.02-0.168-0.092c0.006-0.037,0.039-0.053,0.066-0.06
			c-0.144-0.389-0.287,0.254-0.566,0.103c0.117-0.14,0.088-0.333,0.024-0.323c0.112,0.061-0.08,0.292-0.247,0.359
			c-0.118-0.216-0.244-0.009-0.331-0.072l0.079,0.113c-0.118,0.139-0.198,0.072-0.35,0.057c0.052-0.129,0.158-0.026,0.141-0.103
			c-0.283,0.206-0.17-0.45-0.462-0.363c-0.036-0.153,0.143-0.301,0.1-0.415c-0.325,0.093-0.128-0.338-0.445-0.287
			c-0.042,0.247-0.004,0.2-0.272,0.325l0.456,0.045l-0.402,0.184c0.113,0.062,0.31-0.01,0.36,0.061
			c-0.205,0.114-0.166,0.067-0.201,0.272c0.006-0.399-0.405,0.027-0.477-0.281l0.274-0.523c-0.154-0.374-0.623,0.023-0.912-0.289
			l0.068,0.149C9.784,2.71,9.703,2.443,9.545,2.47C9.645,2.299,9.605,2.198,9.61,2.064c-0.06,0.134-0.256-0.143-0.464,0.194
			L9.102,1.946C8.859,1.706,8.522,2.287,8.274,2.09c0.178-0.152,0.113-0.34,0.367-0.386C8.549,1.657,8.481,1.583,8.42,1.706
			c0-0.138-0.375,0.114-0.379-0.096c-0.077,0.059-0.18,0.239-0.277,0.174c0.006-0.042,0.043-0.088,0.043-0.088
			C7.763,1.783,7.585,1.736,7.582,1.977C7.559,1.283,6.76,1.636,6.729,1.042c-0.234-0.036-0.508-0.091-0.703-0.16
			c0.036-0.049,0.041-0.09,0.068-0.055C5.909,0.543,5.705,1.272,5.494,0.956C5.47,0.598,5.72,0.865,5.674,0.714
			C5.893,0.101,5.28,0.64,5.229,0.205l0.064-0.014c-0.014-0.129-0.184-0.13-0.375-0.106c-0.184,0.033-0.37,0.096-0.534,0.052
			c0,0,0.025-0.054,0.015-0.097c-0.3,0.291-0.635,0.394-0.954,0.514c0.058-0.26,0.134-0.144,0.033-0.397
			C3.328,0.206,3.566,0.566,3.316,0.662C3.2,0.531,2.953,0.443,2.806,0.186l0.31-0.057c-0.277-0.326-0.42,0.069-0.599,0.035
			L2.461,0.016C1.954,0.147,2.236,0.503,1.735,0.541l0.158,0.098c0.138,0.377-0.441-0.165-0.387,0.123L0.953,0.425
			C0.847,0.533,0.802,0.834,0.673,0.923C0.325,0.659,0.508,0.486,0.568,0.304c-0.22,0.02-0.698,0.099-0.466,0.275
			c0.012-0.04-0.038-0.134,0.137-0.089C0.39,0.679,0.455,0.812,0.4,0.884C0.383,0.927,0.494,1.037,0.549,1.126
			c-0.646-0.292-0.594-0.123-0.477,0.106c0.118,0.231,0.283,0.494-0.035,0.55C0.433,2.13,0.575,2.404,0.719,2.735
			c0.14,0.321,0.278,0.711,0.554,1.069c0.36-0.519,0.162,0.191,0.655-0.175C2.061,3.74,2.079,3.78,2.053,3.811L1.99,4.334
			c-0.087,0.18-0.181-0.016-0.284,0.076c0.132,0.252-0.136,0.25-0.152,0.497c0.151-0.163,0.308-0.112,0.339,0.067L1.98,4.622
			c0.492,0.111-0.2,0.586,0.294,0.703l-0.226,0.02c0.201,0.098,0.474,0.594,0.983,0.421c-0.03,0.073-0.125,0.217-0.218,0.179
			c0.272,0.419,1.105,0.46,1.133,0.946L3.813,6.966c0.09,0.04,0.31-0.079,0.284,0.104C4.049,7.109,3.964,7.149,3.988,7.184
			C4.06,7.182,4.349,7.168,4.373,7.313L4.18,7.36c0.209,0.472,0.814,0.214,1.164,0.407c-0.297,0.32-0.129,0.695-0.027,0.868
			L5.271,8.677C5.675,9.076,6.248,9,6.748,9.181C6.692,9.78,7.506,9.969,7.782,10.484c-0.022-0.111,0.2-0.279,0.299-0.266
			c0.052,0.142,0.438-0.073,0.207,0.258l-0.031-0.031c-0.135,0.383,0.126,0.443,0.295,0.541l0.299-0.438
			c0.06,0.912,1.283,0.389,1.204,1.13c0.167-0.061,0.307-0.002,0.474-0.07l-0.128,0.253c0.28,0.205,0.423,0.307,0.835,0.418
			l-0.159,0.151c0.214,0.115,0.594-0.629,0.793-0.558l-0.099,0.418c0.379,0.145,0.656,0.622,1.165,0.399
			c-0.026,0.056-0.077,0.168-0.146,0.162c0.178,0.074,0.626,0.522,0.732-0.055c-0.111,0.371,0.395,0.159,0.651,0.051l-0.11,0.259
			c0.277-0.295,0.308-0.387,0.581-0.417c0.049,0.051-0.006,0.229-0.066,0.14c0.159,0.193,0.219-0.215,0.418-0.009l-0.132,0.149
			c0.197,0.074,0.204-0.023,0.363-0.195c0.151-0.077,0.362,0.172,0.339,0.419c0.061-0.145,0.216-0.325,0.32-0.231
			c-0.004,0.096-0.06,0.146-0.088,0.17c0.305,0.25,0.57-0.222,0.752,0.09c-0.012,0.092-0.005,0.14,0.01,0.171
			c-0.271-0.058-0.488-0.114-0.463-0.13c-0.052,0.252,0.163,0.338-0.084,0.652c0.221-0.155,0.6-0.513,0.794-0.354
			c0.006,0.026,0.012,0.052,0.013,0.093l-0.027,0.024c0.046,0.035,0.095,0.019,0.144-0.015c0.062,0.055,0.101,0.094,0.167,0.11
			c-0.008,0.214,0.238,0.164,0.349,0.182c0.032-0.279,0.17-0.217,0.068-0.463c0.015,0.022-0.026,0.031-0.101,0.034
			c-0.018,0.006-0.038,0.008-0.052,0.023l0.011-0.023c-0.073-0.004-0.168-0.016-0.276-0.032c0.11-0.126,0.217-0.224,0.315-0.052
			c0.087-0.17,0.176-0.346,0.219-0.43c0.092,0.406,0.356,0.65,0.367,0.895c0.359-0.116,0.816-0.008,1.077-0.509
			c0.101-0.056,0.095,0.164,0.124,0.251c-0.06,0.046-0.125,0.03-0.162,0.102c0.204-0.104,0.574-0.007,0.647-0.371
			c0.228,0.18-0.161,0.331,0.175,0.29l-0.053,0.11c0.629,0.618,1.103-0.861,1.793-0.103c-0.049-0.047-0.073-0.068-0.082-0.13
			c0.822,0.33,1.683-0.289,2.504,0.184c0.235,0.096,0.25-0.141,0.381-0.326l0.065,0.299l0.221-0.359
			c0.32-0.271,0.637,0.717,1.032,0.193l-0.071-0.198c0.157,0.024,0.475-0.163,0.469,0.072c0.013-0.038,0.032-0.215,0.101-0.115
			l0.018,0.157l0.352-0.303c0.303,0.088,0.013,0.629,0.446,0.621c0.155-0.075,0.406-0.498,0.334-0.598
			c-0.065-0.002-0.174-0.083-0.195-0.24l0.135-0.095c-0.023-0.465,0.031-0.949-0.348-1.241l-0.212,0.305l-0.1-0.218l0.201-0.032
			c-0.136-0.201-0.189-0.008-0.259,0.128c-0.031-0.118-0.073-0.198-0.124-0.239l-0.195,0.464c-0.045-0.179,0.073-0.369-0.094-0.455
			c-0.092,0.216,0.143,0.397-0.029,0.549c-0.134-0.2-0.115-0.375-0.235-0.183c-0.029-0.118-0.007-0.197,0.042-0.254
			c-0.108,0.154-0.312,0.089-0.355,0.341c-0.14-0.25-0.402,0.104-0.421-0.336c-0.03,0.109-0.188,0.355-0.298,0.379
			c0.169-0.536-0.416-0.012-0.393-0.579c-0.123,0.481-0.525,0.235-0.779,0.511c0.013-0.038,0.04-0.116,0.064-0.093
			c-0.15-0.032-0.198-0.173-0.295-0.258c-0.007,0.391-0.237,0.497-0.358,0.736c-0.19-0.378,0.101-0.46,0.036-0.823
			c0.017,0.318-0.308,0.316-0.242,0.581c-0.143-0.234-0.122-0.114-0.197-0.439c-0.02,0.49-0.128,0.083-0.242,0.383
			c-0.202-0.242-0.052-0.459-0.272-0.311C22.106,11.601,22.301,11.428,22.301,11.428z M17.046,11.846l0.001-0.006
			c0.046,0.002,0.084,0.003,0.109,0.004C17.134,11.845,17.102,11.846,17.046,11.846z M16.612,11.769
			c0.051,0.021,0.116,0.035,0.186,0.046c-0.002,0.098-0.037,0.193-0.08,0.18C16.753,11.936,16.661,11.862,16.612,11.769z
			 M17.231,13.867c-0.08,0.026-0.096-0.034-0.097-0.092c0.036,0.002,0.078,0,0.134-0.009l0.014-0.032
			C17.266,13.784,17.251,13.833,17.231,13.867z"/>
		<path fill="#202020" d="M17.419,13.524c0.012-0.005,0.019-0.016,0.033-0.017c-0.011-0.026-0.022-0.049-0.034-0.068l-0.039,0.084
			L17.419,13.524z"/>
		<path fill="#202020" d="M19.762,7.807l-0.006-0.01c0.002,0.013,0.004,0.026,0,0.044C19.759,7.827,19.76,7.819,19.762,7.807z"/>
		<polygon fill="#202020" points="11.119,9.373 11.088,9.437 11.148,9.4 		"/>
		<path fill="#202020" d="M21.586,9.749c-0.007,0.024-0.01,0.051-0.003,0.078C21.59,9.81,21.589,9.781,21.586,9.749z"/>
		<path fill="#202020" d="M22.532,10.271l0.092,0.155C22.59,10.347,22.559,10.302,22.532,10.271z"/>
		<path fill="#202020" d="M23.212,10.753c0.031-0.039,0.051-0.071,0.069-0.1l-0.001-0.002L23.212,10.753z"/>
		<path fill="#202020" d="M11.174,5.281c-0.011-0.004-0.022-0.005-0.034-0.003C11.048,5.291,11.103,5.296,11.174,5.281z"/>
		<path fill="#202020" d="M14.997,6.46c-0.06,0.028-0.119,0.055-0.172,0.065C14.879,6.574,14.925,6.603,14.997,6.46z"/>
		<polygon fill="#202020" points="7.125,3.622 7.128,3.618 7.104,3.606 		"/>
		<path fill="#202020" d="M14.662,6.442c0.038,0.081,0.096,0.095,0.163,0.083C14.781,6.483,14.733,6.428,14.662,6.442z"/>
		<path fill="#202020" d="M25.986,12.846l0.026,0.034c0.011-0.015,0.022-0.026,0.031-0.033L25.986,12.846z"/>
		<path fill="#202020" d="M26.043,12.847l0.056,0C26.082,12.835,26.067,12.826,26.043,12.847z"/>
		<path fill="#202020" d="M26.217,12.847l-0.118,0C26.125,12.867,26.152,12.898,26.217,12.847z"/>
		<path fill="#202020" d="M25.183,12.076l-0.072,0.074C25.129,12.137,25.153,12.113,25.183,12.076z"/>
		<path fill="#202020" d="M24.901,11.901c0.049,0.065,0.027,0.292,0.153,0.308l0.057-0.058
			C24.978,12.239,25.064,11.807,24.901,11.901z"/>
		<path fill="#202020" d="M24.485,10.068l0.199,0.227c0.019-0.118,0.043-0.278,0.169-0.225C24.72,9.594,24.783,10.313,24.485,10.068
			z"/>
		<path fill="#202020" d="M23.763,9.474c0.161,0.023,0.069-0.142,0.105-0.192C23.737,9.328,23.705,9.34,23.763,9.474z"/>
		<path fill="#202020" d="M18.092,6.76l0.127-0.223C18.098,6.52,18.174,6.626,18.092,6.76z"/>
		<polygon fill="#202020" points="16.423,7.427 16.454,7.618 16.606,7.431 		"/>
		<polygon fill="#202020" points="16.588,5.486 16.65,5.475 16.434,5.475 		"/>
		<path fill="#202020" d="M7.082,0.868l-0.1,0.3C7.077,1.151,7.242,0.837,7.082,0.868z"/>
		<path fill="#202020" d="M1.63,0.377c-0.21-0.13-0.54-0.197-0.5-0.047C1.32,0.331,1.592,0.422,1.63,0.377z"/>
		<polygon fill="#202020" points="8.857,11.007 8.719,11.051 8.923,11.064 		"/>
	</g>
</g>
</svg>