<!-- Generator: Adobe Illustrator 18.1.1, SVG Export Plug-In  -->
<svg version="1.1"
	 xmlns="http://www.w3.org/2000/svg" xmlns:xlink="http://www.w3.org/1999/xlink" xmlns:a="http://ns.adobe.com/AdobeSVGViewerExtensions/3.0/"
	 x="0px" y="0px" width="557.665px" height="437.594px" viewBox="0 0 557.665 437.594" enable-background="new 0 0 557.665 437.594"
	 xml:space="preserve">
<defs>
</defs>
<g>
	<g>
		<g>
			<path fill="#0A032C" d="M546.207,418.562c0.105-0.09,0.196-0.208,0.266-0.367c0.556,0.378,0.646-0.712,1.177-0.583
				c0.445-0.09,0.715-0.371,1.185-0.24c-0.068-1.002,0.864-0.013,1.033-0.72c0.18-0.172,0.194-0.578-0.001-0.699
				c0.271-0.11,0.306,0.326,0.5,0.098l0.006,0.348c0.1,0.06,0.233,0.207,0.321,0.121l0.025-0.365
				c0.387,0.285,0.359-0.409,0.729-0.271c-0.271-0.18,0.032-0.219-0.073-0.478c0.085,0.114,0.286,0.12,0.255,0.238
				c0.289,0.015,0.332-0.618,0.633-0.204l0.042-0.178c0.086-0.254,0.298-0.05,0.469-0.034l-0.046-0.185
				c0.058-0.132,0.235-0.183,0.382-0.051c0.288-0.001,0.442-0.511,0.595-0.829c0.325,0.073-0.001-0.38,0.163-0.59
				c0.188,0.047,0.305-0.314,0.504-0.111c-0.175,0.116,0.019,0.601-0.232,0.598c0.153,0.124-0.273,0.33,0.017,0.479
				c0.219-0.575,0.883-0.454,1.038-1.027c0.214,0.471,0.591,0.04,0.703-0.116l0.079,0.115c0.168-0.013,0.284-0.044,0.404-0.314
				c0.229-0.184,0.417-0.41,0.787-0.295c0.512,0.108,0.545-0.62,0.461-0.983c-0.614-0.131-0.52,0.737-1.252,0.193
				c0.326-0.034,0.242-0.204,0.273-0.55l-0.191-0.075l0.017-0.142c-0.14-0.122-0.129-0.323-0.245-0.468l-0.271,0.187
				c0.238,0.039,0.254,0.272,0.315,0.464l-0.185,0.037c0.082,0.052,0.216,0.059,0.169,0.222c-0.08,0.007-0.102,0.149-0.238,0.082
				l-0.094-0.408c-0.016,0.376-0.55-0.188-0.57,0.18l-0.265-0.322l-0.153,0.123l-0.053-0.135l-0.228,0.065
				c-0.075,0.121,0,0.295,0.049,0.431c-0.08,0.059-0.135,0.157-0.211,0.098l-0.019-0.274l-0.129-0.02
				c0.102,0.04-0.004,0.176,0.019,0.274c-0.234,0.059-0.157,0.059-0.383-0.061c-0.062,0.214-0.363,0.024-0.226,0.324
				c-0.332-0.049-0.598,0.071-0.844,0.167l-0.025,0.235c-0.377-0.086-0.397,0.235-0.686,0.406l-0.011-0.1l-0.075,0.31
				c-0.303-0.101-0.233,0.386-0.603,0.216c-0.342-0.031-0.368,0.338-0.336,0.788c-0.087,0.249-0.365,0.024-0.507,0.034l0.044-0.172
				l-0.16-0.131c-0.171,0.128-0.219-0.003-0.422,0.241c-0.393-0.083-0.163,0.572-0.251,0.86l-0.441-0.319l0.029,0.088
				c-0.084,0.532-0.107,0.24-0.583,0.372l0.082,0.266c-0.228-0.259-0.206,0.178-0.424,0.203c-0.103,0.035-0.509-0.36-0.626,0.021
				c-0.422-0.206-0.461,0.64-0.799,0.644c-0.228-0.174-0.294,0.329-0.401-0.123l0.034-0.01l-0.141-0.442l0.04,0.327
				c-0.135-0.105-0.287,0.037-0.437-0.308l-0.191,0.631c0.06-0.065,0.139-0.039,0.219-0.012l-0.02-0.091
				c0.07-0.019,0.233-0.112,0.333,0.002l-0.083,0.122c0.125,0.059,0.052,0.226,0.027,0.281c-0.252-0.123-0.145,0.184-0.312,0.278
				c-0.045-0.036-0.126-0.062-0.111-0.162c-0.096,0.074-0.4-0.131-0.369,0.197l-0.026-0.042
				C545.789,417.486,545.98,418.044,546.207,418.562z"/>
		</g>
		<g>
			<path fill="#0A032C" d="M520.538,420.307c0.082-0.096,0.149-0.221,0.196-0.385c0.527,0.341,0.526-0.744,1.032-0.626
				c0.405-0.091,0.658-0.37,1.092-0.212c-0.027-1.014,0.8,0.05,1.004-0.636c0.184-0.146,0.246-0.547,0.069-0.692
				c0.278-0.075,0.259,0.362,0.472,0.161l-0.038,0.346c0.087,0.073,0.192,0.235,0.286,0.164l0.074-0.354
				c0.321,0.35,0.405-0.343,0.735-0.136c-0.224-0.233,0.071-0.207,0.022-0.482c0.06,0.129,0.251,0.18,0.197,0.287
				c0.267,0.08,0.454-0.536,0.644-0.053l0.082-0.16c0.146-0.222,0.296,0.03,0.451,0.09l0.007-0.191
				c0.091-0.115,0.275-0.105,0.373,0.065c0.267,0.086,0.566-0.354,0.825-0.591c0.28,0.182,0.133-0.356,0.372-0.496
				c0.161,0.111,0.418-0.171,0.525,0.092c-0.215,0.039-0.22,0.559-0.451,0.46c0.095,0.17-0.372,0.214-0.158,0.456
				c0.412-0.456,0.968-0.087,1.35-0.529c-0.01,0.52,0.506,0.287,0.679,0.213l0.015,0.139c0.153,0.069,0.264,0.097,0.499-0.083
				c0.285-0.047,0.566-0.138,0.813,0.151c0.362,0.366,0.775-0.214,0.923-0.565c-0.444-0.448-0.839,0.316-1.181-0.521
				c0.306,0.139,0.323-0.052,0.551-0.321l-0.126-0.168l0.098-0.109c-0.055-0.18,0.075-0.34,0.057-0.525l-0.366,0.009
				c0.2,0.156,0.074,0.364,0.021,0.56l-0.19-0.064c0.046,0.087,0.163,0.162,0.029,0.277c-0.076-0.035-0.174,0.075-0.261-0.053
				l0.141-0.398c-0.223,0.317-0.415-0.452-0.639-0.133l-0.082-0.41l-0.218,0.035l0.021-0.144l-0.265-0.051
				c-0.14,0.07-0.155,0.261-0.175,0.405c-0.109,0.019-0.212,0.083-0.26-0.003l0.119-0.255l-0.12-0.074
				c0.083,0.08-0.093,0.157-0.118,0.255c-0.266-0.048-0.187-0.015-0.361-0.22c-0.165,0.17-0.388-0.119-0.383,0.209
				c-0.321-0.179-0.656-0.164-0.955-0.154l-0.12,0.212c-0.367-0.215-0.511,0.101-0.874,0.173l0.022-0.099l-0.182,0.273
				c-0.292-0.175-0.362,0.315-0.706,0.056c-0.358-0.113-0.485,0.253-0.554,0.696c-0.146,0.225-0.383-0.056-0.536-0.065l0.082-0.163
				l-0.143-0.156c-0.208,0.099-0.235-0.038-0.497,0.17c-0.407-0.137-0.266,0.548-0.395,0.822l-0.418-0.369l0.02,0.091
				c-0.149,0.52-0.137,0.23-0.643,0.326l0.064,0.271c-0.216-0.276-0.225,0.159-0.444,0.18c-0.102,0.032-0.51-0.377-0.638,0.003
				c-0.434-0.197-0.467,0.642-0.796,0.659c-0.236-0.162-0.273,0.344-0.406-0.101l0.034-0.012l-0.169-0.433l0.061,0.324
				c-0.144-0.096-0.287,0.052-0.468-0.274l-0.136,0.649c0.053-0.07,0.135-0.052,0.217-0.034L520.311,418
				c0.068-0.027,0.224-0.136,0.333-0.026l-0.074,0.126c0.129,0.052,0.068,0.222,0.049,0.278c-0.256-0.101-0.125,0.197-0.277,0.306
				c-0.047-0.031-0.128-0.05-0.124-0.151c-0.085,0.083-0.406-0.091-0.335,0.23l-0.031-0.039
				C520.026,419.275,520.275,419.811,520.538,420.307z"/>
		</g>
		<g>
			<path fill="#0A032C" d="M497.531,431.637c0.083-0.112,0.146-0.249,0.179-0.421c0.632,0.238,0.475-0.833,1.021-0.835
				c0.415-0.187,0.609-0.529,1.095-0.504c-0.297-0.965,0.833-0.203,0.833-0.932c0.137-0.202,0.062-0.602-0.154-0.679
				c0.24-0.165,0.368,0.253,0.506-0.012l0.081,0.339c0.109,0.038,0.269,0.153,0.335,0.051l-0.052-0.359
				c0.433,0.203,0.263-0.472,0.65-0.408c-0.299-0.127-0.012-0.22-0.165-0.454c0.105,0.095,0.303,0.066,0.295,0.186
				c0.283-0.035,0.208-0.671,0.578-0.312l0.01-0.181c0.041-0.264,0.284-0.098,0.452-0.109l-0.075-0.176
				c0.034-0.143,0.204-0.215,0.367-0.106c0.282-0.04,0.356-0.569,0.477-0.899c0.332,0.035-0.045-0.377,0.1-0.609
				c0.193,0.024,0.284-0.344,0.502-0.161c-0.169,0.134,0.07,0.596-0.181,0.617c0.164,0.107-0.232,0.361,0.07,0.477
				c0.155-0.595,0.82-0.532,0.943-1.106c0.241,0.46,0.583,0.007,0.697-0.144l0.081,0.113c0.167-0.015,0.279-0.046,0.394-0.318
				c0.225-0.182,0.423-0.401,0.782-0.274c0.497,0.135,0.564-0.574,0.516-0.952c-0.608-0.165-0.567,0.695-1.281,0.139
				c0.334-0.031,0.253-0.205,0.315-0.552l-0.193-0.083l0.03-0.143c-0.137-0.128-0.105-0.332-0.214-0.483l-0.31,0.19
				c0.25,0.037,0.246,0.279,0.298,0.475l-0.195,0.038c0.083,0.053,0.221,0.06,0.163,0.226c-0.083,0.007-0.113,0.151-0.251,0.084
				l-0.077-0.415c-0.034,0.385-0.58-0.187-0.614,0.198l-0.272-0.317l-0.169,0.136l-0.053-0.135l-0.25,0.082
				c-0.085,0.128-0.004,0.301,0.049,0.437c-0.084,0.068-0.141,0.173-0.223,0.12l-0.023-0.279l-0.138-0.008
				c0.11,0.031-0.003,0.181,0.023,0.279c-0.249,0.082-0.166,0.075-0.413-0.025c-0.059,0.225-0.386,0.072-0.226,0.359
				c-0.357-0.012-0.634,0.15-0.884,0.287l-0.005,0.24c-0.41-0.031-0.39,0.306-0.671,0.522l-0.024-0.098l-0.038,0.322
				c-0.326-0.041-0.18,0.428-0.586,0.33c-0.356,0.037-0.318,0.41-0.204,0.846c-0.042,0.262-0.362,0.095-0.502,0.137l0.011-0.179
				l-0.185-0.095c-0.147,0.163-0.221,0.045-0.375,0.328c-0.41,0.004-0.044,0.597-0.069,0.897l-0.504-0.216l0.048,0.08
				c0.033,0.537-0.052,0.26-0.489,0.497l0.14,0.241c-0.283-0.204-0.163,0.217-0.368,0.294c-0.091,0.061-0.58-0.235-0.605,0.162
				c-0.455-0.095-0.302,0.726-0.628,0.812c-0.26-0.113-0.212,0.385-0.419-0.03l0.031-0.017l-0.238-0.399l0.114,0.309
				c-0.156-0.073-0.273,0.097-0.496-0.203l-0.043,0.659c0.044-0.077,0.126-0.07,0.21-0.063l-0.04-0.084
				c0.064-0.035,0.2-0.164,0.325-0.074l-0.054,0.136c0.136,0.031,0.102,0.208,0.09,0.268c-0.273-0.061-0.099,0.213-0.241,0.344
				c-0.052-0.024-0.137-0.031-0.144-0.132c-0.077,0.095-0.419-0.034-0.315,0.278l-0.035-0.035
				C496.881,430.684,497.191,431.185,497.531,431.637z"/>
		</g>
		<g>
			<path fill="#0A032C" d="M471.168,435.106c0.107-0.08,0.203-0.189,0.285-0.341c0.49,0.431,0.686-0.641,1.182-0.447
				c0.433-0.03,0.731-0.272,1.157-0.066c0.094-1.006,0.818,0.136,1.099-0.527c0.202-0.13,0.298-0.524,0.133-0.683
				c0.285-0.051,0.229,0.383,0.461,0.2l-0.066,0.342c0.082,0.08,0.177,0.251,0.278,0.186l0.102-0.349
				c0.302,0.365,0.435-0.321,0.755-0.101c-0.214-0.241,0.083-0.205,0.047-0.481c0.053,0.131,0.243,0.188,0.184,0.294
				c0.268,0.089,0.479-0.519,0.653-0.034l0.088-0.159c0.153-0.219,0.297,0.036,0.452,0.1l0.01-0.191
				c0.094-0.113,0.278-0.102,0.375,0.068c0.269,0.089,0.572-0.349,0.828-0.589c0.281,0.181,0.13-0.357,0.364-0.497
				c0.161,0.11,0.41-0.176,0.522,0.086c-0.212,0.042-0.207,0.561-0.44,0.466c0.098,0.17-0.37,0.215-0.152,0.456
				c0.407-0.459,0.973-0.097,1.341-0.548c0.007,0.519,0.518,0.276,0.688,0.196l0.022,0.138c0.156,0.064,0.271,0.089,0.496-0.098
				c0.283-0.056,0.558-0.158,0.825,0.122c0.388,0.351,0.764-0.245,0.885-0.602c-0.473-0.428-0.817,0.351-1.209-0.472
				c0.312,0.128,0.317-0.063,0.525-0.341l-0.136-0.163l0.09-0.113c-0.066-0.177,0.051-0.342,0.02-0.526l-0.357,0.023
				c0.205,0.149,0.096,0.36,0.056,0.558l-0.191-0.057c0.05,0.085,0.171,0.156,0.045,0.276c-0.077-0.032-0.168,0.081-0.261-0.043
				l0.115-0.402c-0.201,0.324-0.432-0.435-0.633-0.111l-0.101-0.406l-0.21,0.042l0.013-0.145l-0.259-0.044
				c-0.133,0.074-0.139,0.265-0.153,0.409c-0.105,0.021-0.203,0.088-0.252,0.003l0.105-0.257l-0.119-0.071
				c0.084,0.078-0.084,0.159-0.105,0.257c-0.259-0.043-0.182-0.011-0.357-0.213c-0.154,0.172-0.377-0.115-0.364,0.214
				c-0.315-0.174-0.636-0.157-0.923-0.148l-0.114,0.212c-0.355-0.214-0.491,0.097-0.842,0.167l0.022-0.099l-0.179,0.272
				c-0.277-0.181-0.356,0.307-0.681,0.041c-0.341-0.121-0.474,0.236-0.561,0.678c-0.152,0.219-0.371-0.068-0.518-0.087l0.088-0.159
				l-0.129-0.163c-0.206,0.088-0.223-0.05-0.488,0.144c-0.384-0.167-0.298,0.525-0.447,0.787l-0.378-0.404l0.012,0.092
				c-0.192,0.506-0.155,0.216-0.659,0.259l0.035,0.276c-0.183-0.297-0.238,0.137-0.457,0.129c-0.106,0.019-0.454-0.437-0.628-0.076
				c-0.396-0.259-0.548,0.57-0.88,0.535c-0.206-0.199-0.328,0.294-0.384-0.167l0.035-0.006l-0.092-0.455l0.005,0.329
				c-0.124-0.119-0.291,0.005-0.407-0.351l-0.252,0.611c0.066-0.059,0.142-0.026,0.219,0.008l-0.011-0.092
				c0.071-0.013,0.243-0.091,0.332,0.034l-0.095,0.111c0.118,0.073,0.028,0.23-0.002,0.283c-0.236-0.146-0.161,0.17-0.333,0.248
				c-0.041-0.04-0.118-0.073-0.094-0.171c-0.101,0.065-0.384-0.167-0.38,0.162l-0.022-0.045
				C470.856,433.995,470.996,434.569,471.168,435.106z"/>
		</g>
		<g>
			<path fill="#0A032C" d="M445.175,436.051c0.107-0.079,0.204-0.187,0.287-0.339c0.487,0.434,0.689-0.636,1.185-0.439
				c0.433-0.027,0.733-0.267,1.157-0.057c0.101-1.005,0.816,0.142,1.103-0.519c0.203-0.129,0.302-0.522,0.139-0.682
				c0.285-0.049,0.226,0.385,0.46,0.203l-0.069,0.341c0.082,0.08,0.175,0.252,0.276,0.188l0.105-0.347
				c0.298,0.372,0.436-0.31,0.754-0.083c-0.21-0.246,0.085-0.203,0.053-0.48c0.052,0.132,0.24,0.194,0.18,0.299
				c0.265,0.095,0.486-0.507,0.652-0.018l0.091-0.157c0.157-0.215,0.296,0.043,0.449,0.111l0.014-0.191
				c0.096-0.111,0.28-0.095,0.372,0.077c0.266,0.095,0.579-0.335,0.843-0.568c0.276,0.188,0.14-0.353,0.379-0.488
				c0.158,0.114,0.417-0.166,0.52,0.099c-0.214,0.036-0.226,0.556-0.456,0.455c0.092,0.172-0.376,0.206-0.166,0.452
				c0.42-0.449,0.973-0.073,1.357-0.515c-0.012,0.519,0.506,0.289,0.679,0.213l0.016,0.139c0.153,0.068,0.266,0.095,0.499-0.086
				c0.285-0.049,0.565-0.144,0.816,0.142c0.369,0.36,0.773-0.227,0.914-0.58c-0.451-0.44-0.834,0.331-1.185-0.503
				c0.307,0.136,0.321-0.055,0.544-0.328l-0.128-0.166l0.096-0.111c-0.057-0.179,0.069-0.341,0.048-0.526l-0.362,0.015
				c0.2,0.154,0.079,0.363,0.029,0.56l-0.189-0.062c0.046,0.086,0.164,0.16,0.032,0.277c-0.076-0.034-0.172,0.077-0.26-0.049
				l0.135-0.4c-0.217,0.32-0.415-0.446-0.633-0.126l-0.083-0.409l-0.214,0.037l0.019-0.144l-0.26-0.05
				c-0.137,0.071-0.151,0.261-0.171,0.406c-0.107,0.018-0.208,0.083-0.255-0.004l0.116-0.255l-0.118-0.074
				c0.082,0.08-0.091,0.157-0.116,0.255c-0.26-0.049-0.184-0.015-0.353-0.221c-0.162,0.169-0.378-0.124-0.376,0.205
				c-0.312-0.181-0.638-0.173-0.929-0.17l-0.121,0.209c-0.353-0.222-0.499,0.085-0.855,0.147l0.025-0.098l-0.187,0.267
				c-0.276-0.188-0.365,0.298-0.688,0.024c-0.342-0.13-0.482,0.224-0.577,0.664c-0.156,0.215-0.372-0.077-0.52-0.099l0.091-0.157
				l-0.128-0.166c-0.209,0.083-0.225-0.056-0.494,0.132c-0.383-0.169-0.302,0.522-0.454,0.784l-0.375-0.406l0.011,0.092
				c-0.196,0.504-0.157,0.215-0.661,0.255l0.032,0.277c-0.18-0.298-0.239,0.135-0.458,0.126c-0.107,0.018-0.451-0.44-0.627-0.081
				c-0.394-0.261-0.552,0.566-0.883,0.529c-0.205-0.2-0.33,0.292-0.383-0.17l0.036-0.006l-0.089-0.455l0.002,0.329
				c-0.123-0.12-0.291,0.003-0.405-0.354l-0.256,0.609c0.066-0.058,0.142-0.025,0.219,0.009l-0.011-0.092
				c0.072-0.012,0.244-0.089,0.331,0.037l-0.096,0.111c0.117,0.074,0.027,0.231-0.003,0.283c-0.235-0.147-0.162,0.169-0.335,0.246
				c-0.041-0.04-0.117-0.074-0.093-0.172c-0.101,0.064-0.383-0.169-0.381,0.159c-0.01-0.016-0.013-0.029-0.022-0.045
				C444.87,434.938,445.007,435.512,445.175,436.051z"/>
		</g>
		<g>
			<path fill="#0A032C" d="M419.166,436.772c0.108-0.078,0.206-0.186,0.29-0.337c0.483,0.438,0.695-0.63,1.188-0.429
				c0.433-0.023,0.735-0.26,1.157-0.047c0.11-1.004,0.815,0.149,1.107-0.509c0.204-0.127,0.307-0.52,0.144-0.681
				c0.286-0.047,0.223,0.387,0.458,0.207l-0.072,0.341c0.081,0.081,0.173,0.254,0.275,0.19l0.108-0.346
				c0.295,0.375,0.439-0.307,0.754-0.076c-0.208-0.248,0.087-0.202,0.058-0.479c0.05,0.133,0.239,0.196,0.178,0.3
				c0.264,0.098,0.49-0.503,0.652-0.012l0.092-0.156c0.159-0.214,0.296,0.045,0.448,0.115l0.016-0.19
				c0.097-0.11,0.28-0.093,0.372,0.081c0.265,0.098,0.582-0.33,0.848-0.561c0.274,0.19,0.143-0.352,0.383-0.485
				c0.157,0.115,0.418-0.162,0.519,0.103c-0.214,0.035-0.23,0.554-0.459,0.451c0.091,0.173-0.378,0.202-0.17,0.451
				c0.424-0.445,0.973-0.065,1.362-0.504c-0.017,0.519,0.504,0.294,0.677,0.218l0.015,0.139c0.153,0.069,0.265,0.098,0.5-0.081
				c0.285-0.047,0.566-0.139,0.815,0.149c0.366,0.364,0.775-0.22,0.919-0.572c-0.447-0.444-0.836,0.324-1.181-0.513
				c0.306,0.138,0.321-0.052,0.546-0.324l-0.127-0.167l0.097-0.11c-0.056-0.179,0.072-0.341,0.052-0.525l-0.362,0.012
				c0.198,0.156,0.075,0.364,0.024,0.56l-0.188-0.063c0.046,0.087,0.163,0.162,0.03,0.277c-0.076-0.035-0.173,0.075-0.259-0.052
				l0.138-0.399c-0.22,0.318-0.411-0.45-0.631-0.132l-0.08-0.41l-0.214,0.035l0.021-0.144l-0.26-0.052
				c-0.138,0.07-0.154,0.26-0.175,0.404c-0.107,0.018-0.209,0.081-0.255-0.006l0.118-0.254l-0.117-0.075
				c0.081,0.081-0.092,0.156-0.118,0.254c-0.26-0.051-0.183-0.017-0.351-0.224c-0.163,0.167-0.376-0.127-0.378,0.202
				c-0.311-0.184-0.637-0.178-0.927-0.178l-0.123,0.208c-0.351-0.225-0.5,0.081-0.856,0.139l0.026-0.098l-0.189,0.266
				c-0.275-0.19-0.368,0.295-0.688,0.018c-0.341-0.133-0.484,0.22-0.583,0.659c-0.158,0.214-0.372-0.081-0.519-0.104l0.092-0.156
				l-0.127-0.167c-0.209,0.081-0.224-0.057-0.495,0.128c-0.382-0.173-0.307,0.52-0.461,0.78l-0.371-0.41l0.01,0.092
				c-0.2,0.502-0.159,0.214-0.663,0.249l0.03,0.277c-0.178-0.3-0.24,0.133-0.459,0.122c-0.107,0.017-0.447-0.444-0.627-0.086
				c-0.392-0.265-0.557,0.561-0.888,0.521c-0.203-0.202-0.332,0.289-0.382-0.173l0.036-0.006l-0.085-0.456l0,0.329
				c-0.122-0.121-0.291,0-0.402-0.358l-0.261,0.607c0.066-0.058,0.143-0.023,0.219,0.011l-0.01-0.092
				c0.072-0.012,0.245-0.087,0.331,0.04l-0.097,0.11c0.117,0.075,0.025,0.231-0.006,0.283c-0.234-0.149-0.163,0.168-0.337,0.243
				c-0.041-0.04-0.117-0.075-0.091-0.173c-0.102,0.064-0.382-0.173-0.382,0.156c-0.009-0.016-0.013-0.029-0.022-0.045
				C418.87,435.657,419.002,436.233,419.166,436.772z"/>
		</g>
		<g>
			<path fill="#0A032C" d="M393.151,437.27c0.108-0.077,0.208-0.184,0.292-0.334c0.479,0.442,0.7-0.624,1.192-0.418
				c0.434-0.02,0.737-0.254,1.157-0.038c0.119-1.003,0.814,0.156,1.112-0.5c0.205-0.125,0.311-0.517,0.15-0.68
				c0.286-0.044,0.22,0.388,0.456,0.211l-0.075,0.34c0.08,0.082,0.171,0.255,0.273,0.193l0.111-0.346
				c0.291,0.377,0.442-0.303,0.755-0.07c-0.206-0.25,0.089-0.201,0.062-0.479c0.049,0.133,0.237,0.198,0.175,0.302
				c0.264,0.1,0.495-0.499,0.652-0.007l0.093-0.155c0.16-0.213,0.295,0.048,0.447,0.118l0.018-0.19
				c0.098-0.109,0.281-0.09,0.371,0.084c0.264,0.1,0.585-0.325,0.852-0.554c0.273,0.193,0.146-0.351,0.388-0.482
				c0.156,0.117,0.42-0.159,0.518,0.108c-0.214,0.033-0.235,0.552-0.463,0.447c0.089,0.174-0.379,0.199-0.173,0.449
				c0.428-0.441,0.974-0.056,1.366-0.492c-0.021,0.519,0.501,0.298,0.675,0.224l0.014,0.139c0.152,0.07,0.264,0.1,0.501-0.077
				c0.286-0.044,0.567-0.134,0.814,0.156c0.363,0.367,0.777-0.214,0.924-0.565c-0.443-0.448-0.839,0.317-1.177-0.523
				c0.304,0.141,0.322-0.05,0.549-0.319l-0.125-0.168l0.098-0.109c-0.054-0.18,0.075-0.34,0.057-0.525l-0.362,0.008
				c0.197,0.157,0.072,0.364,0.019,0.56l-0.188-0.065c0.045,0.087,0.161,0.163,0.027,0.277c-0.076-0.035-0.174,0.074-0.259-0.054
				l0.142-0.397c-0.223,0.316-0.407-0.453-0.63-0.137l-0.076-0.411l-0.215,0.033l0.022-0.144l-0.259-0.054
				c-0.138,0.068-0.156,0.259-0.178,0.403c-0.107,0.017-0.21,0.079-0.255-0.008l0.121-0.253l-0.117-0.076
				c0.08,0.081-0.094,0.155-0.12,0.253c-0.259-0.053-0.183-0.018-0.349-0.227c-0.165,0.166-0.375-0.13-0.379,0.199
				c-0.309-0.187-0.635-0.183-0.926-0.186l-0.125,0.207c-0.349-0.228-0.5,0.077-0.858,0.132l0.027-0.098l-0.192,0.264
				c-0.273-0.192-0.37,0.292-0.688,0.012c-0.34-0.136-0.486,0.216-0.588,0.654c-0.16,0.212-0.371-0.084-0.518-0.108l0.093-0.155
				l-0.125-0.168c-0.21,0.079-0.224-0.059-0.496,0.123c-0.38-0.176-0.311,0.517-0.467,0.776l-0.367-0.413l0.01,0.093
				c-0.205,0.501-0.16,0.212-0.666,0.243l0.028,0.277c-0.175-0.302-0.241,0.131-0.46,0.118c-0.107,0.016-0.443-0.448-0.626-0.092
				c-0.389-0.268-0.562,0.556-0.892,0.513c-0.202-0.204-0.335,0.286-0.38-0.176l0.036-0.005l-0.081-0.457l-0.003,0.329
				c-0.121-0.122-0.291-0.002-0.399-0.361l-0.267,0.604c0.067-0.057,0.143-0.022,0.219,0.013l-0.009-0.092
				c0.072-0.011,0.246-0.085,0.331,0.043l-0.098,0.109c0.116,0.076,0.023,0.231-0.008,0.283c-0.233-0.151-0.165,0.166-0.339,0.24
				c-0.04-0.041-0.116-0.076-0.09-0.174c-0.102,0.063-0.38-0.176-0.384,0.153c-0.009-0.016-0.013-0.03-0.021-0.045
				C392.865,436.153,392.992,436.729,393.151,437.27z"/>
		</g>
		<g>
			<path fill="#0A032C" d="M367.133,437.544c0.109-0.076,0.209-0.182,0.295-0.332c0.475,0.447,0.706-0.618,1.196-0.408
				c0.434-0.016,0.739-0.248,1.158-0.028c0.127-1.002,0.812,0.163,1.116-0.49c0.206-0.124,0.316-0.514,0.156-0.679
				c0.286-0.042,0.216,0.39,0.454,0.215l-0.078,0.339c0.08,0.082,0.168,0.257,0.271,0.195l0.114-0.345
				c0.288,0.38,0.444-0.299,0.755-0.063c-0.204-0.252,0.091-0.2,0.066-0.478c0.048,0.134,0.235,0.2,0.172,0.303
				c0.263,0.102,0.499-0.494,0.652-0.001l0.095-0.154c0.162-0.211,0.295,0.051,0.446,0.122l0.019-0.19
				c0.099-0.108,0.282-0.088,0.37,0.087c0.263,0.102,0.588-0.32,0.857-0.546c0.271,0.195,0.149-0.35,0.392-0.479
				c0.155,0.118,0.421-0.155,0.517,0.112c-0.214,0.031-0.24,0.55-0.467,0.443c0.088,0.175-0.381,0.196-0.177,0.448
				c0.432-0.438,0.974-0.048,1.37-0.48c-0.025,0.519,0.499,0.302,0.674,0.23l0.012,0.139c0.151,0.072,0.263,0.102,0.501-0.073
				c0.286-0.042,0.568-0.129,0.812,0.163c0.359,0.37,0.779-0.207,0.928-0.557c-0.439-0.452-0.842,0.31-1.172-0.533
				c0.303,0.143,0.322-0.047,0.552-0.314l-0.124-0.169l0.099-0.108c-0.052-0.18,0.078-0.339,0.061-0.524l-0.362,0.005
				c0.195,0.159,0.069,0.365,0.014,0.56l-0.187-0.067c0.044,0.088,0.16,0.164,0.025,0.278c-0.075-0.036-0.174,0.072-0.258-0.056
				l0.145-0.396c-0.225,0.314-0.404-0.457-0.629-0.143l-0.073-0.411l-0.215,0.031l0.023-0.144l-0.259-0.056
				c-0.139,0.067-0.158,0.257-0.182,0.401c-0.107,0.016-0.21,0.077-0.255-0.01l0.123-0.252l-0.116-0.077
				c0.08,0.082-0.095,0.154-0.122,0.252c-0.259-0.056-0.183-0.02-0.347-0.23c-0.166,0.165-0.374-0.133-0.381,0.196
				c-0.307-0.19-0.633-0.189-0.924-0.194l-0.126,0.206c-0.347-0.231-0.501,0.073-0.859,0.125l0.027-0.097l-0.194,0.262
				c-0.271-0.195-0.373,0.289-0.688,0.006c-0.339-0.138-0.488,0.211-0.594,0.649c-0.162,0.211-0.37-0.087-0.517-0.113l0.095-0.154
				l-0.124-0.169c-0.211,0.078-0.223-0.061-0.497,0.119c-0.379-0.179-0.316,0.514-0.474,0.772l-0.364-0.416l0.009,0.093
				c-0.209,0.499-0.162,0.211-0.668,0.237l0.025,0.277c-0.173-0.303-0.242,0.129-0.461,0.114c-0.107,0.016-0.439-0.452-0.625-0.097
				c-0.387-0.272-0.566,0.551-0.897,0.505c-0.2-0.205-0.337,0.283-0.379-0.179l0.036-0.005l-0.077-0.458l-0.006,0.329
				c-0.12-0.123-0.291-0.005-0.396-0.365l-0.272,0.602c0.067-0.057,0.143-0.021,0.219,0.015l-0.008-0.092
				c0.072-0.011,0.246-0.083,0.33,0.045l-0.099,0.108c0.115,0.077,0.021,0.231-0.011,0.282c-0.232-0.153-0.166,0.165-0.341,0.237
				c-0.04-0.041-0.115-0.077-0.088-0.174c-0.103,0.062-0.378-0.179-0.385,0.15c-0.009-0.016-0.013-0.03-0.021-0.045
				C366.857,436.424,366.978,437.002,367.133,437.544z"/>
		</g>
		<g>
			<path fill="#0A032C" d="M341.113,437.594c0.11-0.075,0.211-0.18,0.298-0.329c0.471,0.451,0.711-0.612,1.199-0.398
				c0.434-0.012,0.741-0.241,1.158-0.018c0.136-1.001,0.811,0.17,1.12-0.48c0.207-0.122,0.32-0.511,0.162-0.677
				c0.287-0.039,0.213,0.392,0.453,0.219l-0.081,0.339c0.079,0.083,0.166,0.258,0.27,0.198l0.117-0.344
				c0.285,0.382,0.447-0.295,0.756-0.057c-0.202-0.253,0.092-0.2,0.07-0.478c0.047,0.134,0.234,0.202,0.17,0.305
				c0.262,0.104,0.503-0.49,0.652,0.005l0.096-0.153c0.164-0.21,0.294,0.053,0.445,0.126l0.021-0.19
				c0.1-0.107,0.283-0.085,0.369,0.09c0.262,0.105,0.59-0.315,0.862-0.539c0.269,0.197,0.152-0.348,0.396-0.475
				c0.154,0.119,0.422-0.151,0.516,0.117c-0.215,0.029-0.245,0.548-0.471,0.439c0.086,0.175-0.383,0.193-0.181,0.446
				c0.435-0.434,0.975-0.04,1.374-0.468c-0.03,0.519,0.496,0.307,0.671,0.236l0.011,0.139c0.151,0.073,0.262,0.104,0.502-0.069
				c0.287-0.039,0.569-0.124,0.811,0.17c0.356,0.373,0.78-0.2,0.933-0.548c-0.435-0.456-0.844,0.302-1.167-0.543
				c0.302,0.146,0.322-0.044,0.555-0.31l-0.122-0.171l0.1-0.107c-0.051-0.18,0.081-0.339,0.066-0.524l-0.362,0.002
				c0.194,0.161,0.066,0.366,0.009,0.56l-0.187-0.068c0.043,0.088,0.158,0.166,0.023,0.278c-0.075-0.037-0.175,0.071-0.258-0.058
				l0.149-0.395c-0.228,0.312-0.4-0.46-0.628-0.148l-0.069-0.412l-0.215,0.029l0.024-0.144l-0.258-0.059
				c-0.14,0.066-0.16,0.256-0.185,0.4c-0.108,0.015-0.211,0.075-0.255-0.012l0.125-0.251l-0.115-0.078
				c0.079,0.083-0.096,0.154-0.125,0.251c-0.258-0.058-0.183-0.021-0.345-0.233c-0.168,0.163-0.373-0.137-0.383,0.192
				c-0.306-0.192-0.632-0.194-0.922-0.202l-0.128,0.205c-0.345-0.234-0.502,0.068-0.86,0.117l0.028-0.097l-0.196,0.261
				c-0.27-0.197-0.375,0.285-0.688,0c-0.337-0.141-0.49,0.207-0.599,0.644c-0.164,0.21-0.369-0.09-0.516-0.117l0.096-0.154
				l-0.122-0.17c-0.211,0.076-0.223-0.063-0.498,0.115c-0.377-0.182-0.32,0.512-0.481,0.768l-0.36-0.419l0.008,0.093
				c-0.213,0.497-0.164,0.209-0.67,0.232l0.023,0.278c-0.17-0.305-0.243,0.127-0.462,0.11c-0.107,0.015-0.435-0.455-0.624-0.102
				c-0.385-0.275-0.571,0.546-0.901,0.498c-0.198-0.207-0.34,0.28-0.377-0.183l0.036-0.005l-0.073-0.458l-0.009,0.329
				c-0.119-0.124-0.291-0.007-0.393-0.368l-0.277,0.6c0.068-0.056,0.143-0.02,0.219,0.017l-0.008-0.092
				c0.072-0.01,0.247-0.081,0.33,0.048l-0.1,0.107c0.115,0.078,0.019,0.231-0.013,0.282c-0.23-0.155-0.168,0.164-0.343,0.234
				c-0.04-0.041-0.115-0.078-0.087-0.175c-0.104,0.061-0.377-0.182-0.386,0.146c-0.009-0.016-0.012-0.03-0.02-0.045
				C340.847,436.472,340.963,437.05,341.113,437.594z"/>
		</g>
		<g>
			<path fill="#0A032C" d="M315.095,437.42c0.11-0.074,0.212-0.178,0.301-0.326c0.468,0.455,0.716-0.606,1.202-0.387
				c0.434-0.009,0.743-0.235,1.158-0.008c0.145-1,0.809,0.177,1.124-0.471c0.208-0.12,0.324-0.509,0.168-0.676
				c0.287-0.037,0.209,0.394,0.451,0.223l-0.084,0.338c0.078,0.084,0.164,0.26,0.268,0.2l0.12-0.343
				c0.281,0.385,0.449-0.291,0.756-0.05c-0.199-0.255,0.094-0.199,0.074-0.477c0.046,0.134,0.232,0.204,0.167,0.306
				c0.261,0.107,0.507-0.486,0.652,0.01l0.097-0.153c0.166-0.208,0.294,0.056,0.444,0.13l0.023-0.19
				c0.101-0.106,0.283-0.083,0.369,0.093c0.261,0.107,0.593-0.31,0.866-0.531c0.268,0.2,0.155-0.347,0.4-0.472
				c0.153,0.12,0.424-0.148,0.515,0.121c-0.215,0.027-0.249,0.546-0.475,0.435c0.085,0.176-0.385,0.189-0.185,0.445
				c0.439-0.43,0.975-0.031,1.378-0.456c-0.034,0.518,0.493,0.311,0.669,0.242l0.01,0.139c0.15,0.074,0.261,0.107,0.502-0.064
				c0.287-0.037,0.57-0.12,0.809,0.177c0.353,0.376,0.782-0.193,0.938-0.54c-0.431-0.459-0.847,0.295-1.163-0.553
				c0.301,0.149,0.323-0.041,0.557-0.305l-0.121-0.172l0.101-0.106c-0.049-0.181,0.084-0.338,0.07-0.523l-0.362-0.001
				c0.193,0.162,0.063,0.366,0.004,0.56l-0.186-0.07c0.043,0.088,0.157,0.167,0.02,0.278c-0.075-0.037-0.175,0.069-0.257-0.061
				l0.152-0.394c-0.231,0.31-0.396-0.464-0.627-0.154l-0.066-0.412l-0.215,0.027l0.026-0.143l-0.258-0.061
				c-0.14,0.065-0.162,0.255-0.188,0.398c-0.108,0.014-0.212,0.074-0.254-0.015l0.127-0.25l-0.115-0.079
				c0.078,0.083-0.097,0.153-0.127,0.25c-0.258-0.06-0.183-0.023-0.343-0.236c-0.169,0.162-0.372-0.14-0.384,0.189
				c-0.304-0.195-0.63-0.2-0.921-0.21l-0.13,0.204c-0.343-0.237-0.502,0.064-0.861,0.11l0.029-0.097l-0.198,0.259
				c-0.268-0.199-0.378,0.282-0.688-0.006c-0.336-0.144-0.492,0.203-0.605,0.638c-0.165,0.208-0.369-0.093-0.515-0.121l0.097-0.153
				l-0.121-0.171c-0.212,0.074-0.222-0.065-0.499,0.111c-0.376-0.186-0.325,0.509-0.487,0.764l-0.357-0.422l0.007,0.093
				c-0.218,0.495-0.166,0.208-0.672,0.226l0.021,0.278c-0.167-0.306-0.244,0.125-0.463,0.106c-0.107,0.014-0.432-0.459-0.623-0.108
				c-0.382-0.278-0.576,0.541-0.905,0.49c-0.196-0.209-0.342,0.277-0.376-0.186l0.036-0.004l-0.07-0.459l-0.012,0.329
				c-0.118-0.125-0.291-0.01-0.389-0.371l-0.282,0.597c0.068-0.056,0.143-0.018,0.219,0.019l-0.007-0.092
				c0.072-0.009,0.248-0.079,0.33,0.051l-0.101,0.107c0.114,0.079,0.017,0.232-0.016,0.282c-0.229-0.157-0.169,0.162-0.345,0.231
				c-0.039-0.042-0.114-0.079-0.085-0.176c-0.104,0.06-0.375-0.186-0.387,0.143c-0.009-0.016-0.012-0.03-0.02-0.046
				C314.838,436.295,314.949,436.875,315.095,437.42z"/>
		</g>
		<g>
			<path fill="#0A032C" d="M288.978,436.821c0.115-0.071,0.223-0.173,0.32-0.318c0.448,0.465,0.751-0.587,1.229-0.358
				c0.437,0.002,0.758-0.217,1.165,0.021c0.188-0.995,0.806,0.197,1.149-0.443c0.214-0.115,0.345-0.5,0.194-0.671
				c0.289-0.03,0.195,0.399,0.443,0.234l-0.096,0.336c0.075,0.086,0.155,0.263,0.262,0.206l0.133-0.339
				c0.269,0.391,0.461-0.28,0.76-0.032c-0.191-0.26,0.101-0.196,0.09-0.475c0.041,0.135,0.226,0.21,0.157,0.31
				c0.258,0.113,0.523-0.473,0.653,0.026l0.102-0.15c0.172-0.204,0.293,0.063,0.441,0.141l0.028-0.189
				c0.104-0.104,0.286-0.076,0.367,0.102c0.259,0.113,0.602-0.295,0.88-0.51c0.263,0.206,0.163-0.343,0.41-0.462
				c0.151,0.124,0.426-0.138,0.512,0.133c-0.215,0.022-0.26,0.54-0.483,0.423c0.081,0.178-0.389,0.18-0.195,0.44
				c0.449-0.42,0.977-0.008,1.388-0.423c-0.043,0.517,0.489,0.323,0.665,0.258l0.008,0.14c0.149,0.078,0.26,0.113,0.504-0.052
				c0.288-0.03,0.572-0.106,0.808,0.197c0.35,0.385,0.785-0.174,0.942-0.518c-0.427-0.47-0.849,0.275-1.156-0.581
				c0.298,0.156,0.322-0.034,0.558-0.291l-0.119-0.175l0.101-0.104c-0.047-0.182,0.087-0.336,0.075-0.522l-0.359-0.009
				c0.19,0.167,0.059,0.368-0.001,0.561l-0.184-0.074c0.041,0.089,0.154,0.171,0.017,0.279c-0.074-0.039-0.176,0.065-0.256-0.067
				l0.156-0.39c-0.233,0.305-0.388-0.473-0.621-0.169l-0.06-0.414l-0.214,0.022l0.027-0.143l-0.255-0.067
				c-0.14,0.061-0.165,0.251-0.193,0.394c-0.107,0.011-0.211,0.069-0.252-0.021l0.13-0.247l-0.112-0.082
				c0.076,0.085-0.099,0.15-0.13,0.247c-0.255-0.066-0.181-0.027-0.336-0.244c-0.171,0.158-0.366-0.149-0.385,0.18
				c-0.298-0.202-0.621-0.215-0.909-0.232l-0.134,0.201c-0.335-0.245-0.5,0.052-0.857,0.089l0.032-0.096l-0.204,0.254
				c-0.261-0.206-0.383,0.273-0.684-0.022c-0.33-0.152-0.495,0.191-0.622,0.624c-0.172,0.204-0.364-0.102-0.509-0.134l0.102-0.15
				l-0.114-0.174c-0.214,0.069-0.219-0.07-0.5,0.099c-0.367-0.195-0.342,0.501-0.513,0.751l-0.34-0.43l0.003,0.093
				c-0.236,0.49-0.174,0.204-0.679,0.21l0.009,0.278c-0.154-0.31-0.249,0.119-0.467,0.095c-0.108,0.011-0.411-0.469-0.618-0.123
				c-0.369-0.287-0.6,0.527-0.928,0.468c-0.186-0.213-0.356,0.269-0.367-0.195l0.036-0.004l-0.047-0.46l-0.028,0.328
				c-0.112-0.128-0.29-0.017-0.37-0.38l-0.313,0.589c0.071-0.054,0.144-0.015,0.218,0.024l-0.002-0.092
				c0.073-0.008,0.252-0.073,0.327,0.059l-0.106,0.104c0.11,0.081,0.005,0.232-0.03,0.281c-0.221-0.163-0.177,0.158-0.358,0.222
				c-0.037-0.042-0.11-0.082-0.076-0.178c-0.107,0.057-0.366-0.194-0.396,0.133l-0.018-0.046
				C288.779,435.692,288.86,436.274,288.978,436.821z"/>
		</g>
		<g>
			<path fill="#0A032C" d="M262.983,432.901c0.124-0.053,0.245-0.136,0.361-0.266c0.376,0.531,0.825-0.465,1.263-0.163
				c0.431,0.07,0.779-0.096,1.146,0.202c0.328-0.956,0.767,0.321,1.196-0.259c0.228-0.08,0.412-0.442,0.288-0.634
				c0.289,0.015,0.135,0.425,0.403,0.301l-0.143,0.317c0.062,0.096,0.115,0.285,0.228,0.245l0.18-0.315
				c0.209,0.429,0.495-0.206,0.755,0.087c-0.151-0.287,0.128-0.179,0.157-0.456c0.021,0.141,0.192,0.243,0.111,0.332
				c0.239,0.152,0.584-0.387,0.641,0.128l0.122-0.133c0.199-0.175,0.28,0.108,0.415,0.208l0.055-0.183
				c0.117-0.087,0.293-0.031,0.347,0.158c0.239,0.152,0.637-0.198,0.942-0.368c0.229,0.245,0.211-0.314,0.472-0.393
				c0.131,0.146,0.44-0.07,0.486,0.212c-0.215-0.012-0.335,0.494-0.538,0.343c0.054,0.189-0.41,0.117-0.256,0.405
				c0.504-0.345,0.965,0.145,1.431-0.202c-0.118,0.505,0.435,0.396,0.619,0.359l-0.012,0.139c0.136,0.1,0.24,0.152,0.505,0.027
				c0.288,0.015,0.58-0.015,0.769,0.321c0.289,0.435,0.8-0.05,1.006-0.365c-0.353-0.532-0.879,0.139-1.056-0.755
				c0.272,0.201,0.323,0.017,0.594-0.201l-0.092-0.191l0.115-0.087c-0.02-0.188,0.135-0.319,0.15-0.504l-0.354-0.066
				c0.163,0.195,0.004,0.373-0.083,0.555l-0.171-0.102c0.028,0.095,0.128,0.193-0.024,0.278c-0.067-0.05-0.183,0.037-0.243-0.106
				l0.211-0.362c-0.275,0.265-0.314-0.529-0.589-0.264l0.001-0.419l-0.215-0.011l0.048-0.137l-0.242-0.106
				c-0.147,0.039-0.2,0.222-0.248,0.359c-0.107-0.006-0.219,0.035-0.246-0.06l0.165-0.224l-0.099-0.098
				c0.063,0.096-0.12,0.133-0.164,0.224c-0.242-0.105-0.175-0.055-0.296-0.294c-0.192,0.129-0.34-0.204-0.406,0.118
				c-0.265-0.246-0.582-0.31-0.864-0.371l-0.161,0.178c-0.295-0.295-0.501-0.027-0.86-0.046l0.045-0.09l-0.238,0.22
				c-0.228-0.244-0.418,0.21-0.672-0.129c-0.304-0.202-0.516,0.112-0.704,0.52c-0.199,0.175-0.345-0.158-0.484-0.212l0.122-0.133
				l-0.088-0.19c-0.221,0.035-0.206-0.104-0.508,0.019c-0.334-0.25-0.409,0.443-0.615,0.664l-0.273-0.479l-0.01,0.092
				c-0.303,0.448-0.201,0.175-0.7,0.102l-0.031,0.277c-0.108-0.331-0.263,0.079-0.474,0.021c-0.108-0.006-0.338-0.529-0.592-0.218
				c-0.323-0.342-0.668,0.428-0.982,0.318c-0.153-0.24-0.389,0.211-0.334-0.25l0.036,0.002l0.019-0.463l-0.075,0.321
				c-0.092-0.144-0.284-0.062-0.311-0.434l-0.393,0.535c0.078-0.042,0.145,0.008,0.211,0.058l0.011-0.092
				c0.073,0.004,0.259-0.033,0.314,0.109l-0.12,0.086c0.097,0.098-0.028,0.23-0.07,0.274c-0.195-0.196-0.198,0.129-0.385,0.164
				c-0.031-0.048-0.097-0.098-0.05-0.188c-0.114,0.04-0.334-0.25-0.409,0.07l-0.011-0.048
				C262.947,431.751,262.945,432.34,262.983,432.901z"/>
		</g>
		<g>
			<path fill="#0A032C" d="M237.539,428.391c0.118-0.058,0.231-0.147,0.337-0.281c0.401,0.518,0.782-0.498,1.233-0.212
				c0.428,0.054,0.764-0.126,1.141,0.159c0.278-0.97,0.773,0.292,1.172-0.305c0.222-0.089,0.391-0.457,0.259-0.645
				c0.289,0.005,0.152,0.42,0.414,0.286l-0.13,0.323c0.065,0.094,0.125,0.281,0.236,0.236l0.167-0.322
				c0.223,0.421,0.485-0.224,0.754,0.059c-0.16-0.281,0.121-0.183,0.142-0.461c0.026,0.14,0.2,0.236,0.121,0.327
				c0.242,0.143,0.572-0.408,0.643,0.104l0.119-0.137c0.195-0.182,0.282,0.097,0.42,0.192l0.05-0.184
				c0.115-0.091,0.293-0.041,0.35,0.145c0.242,0.143,0.633-0.221,0.937-0.401c0.234,0.236,0.207-0.321,0.468-0.408
				c0.133,0.141,0.443-0.085,0.492,0.194c-0.217-0.004-0.331,0.504-0.537,0.361c0.057,0.186-0.409,0.132-0.251,0.413
				c0.5-0.362,0.969,0.109,1.434-0.252c-0.115,0.507,0.439,0.378,0.624,0.335l-0.012,0.139c0.137,0.095,0.241,0.143,0.507,0.009
				c0.29,0.005,0.584-0.036,0.771,0.291c0.287,0.422,0.805-0.078,1.017-0.398c-0.352-0.515-0.887,0.169-1.061-0.713
				c0.274,0.19,0.327,0.006,0.603-0.22l-0.092-0.187l0.117-0.09c-0.019-0.186,0.139-0.321,0.156-0.506l-0.36-0.053
				c0.165,0.188,0.003,0.37-0.087,0.553l-0.174-0.096c0.028,0.093,0.129,0.188-0.025,0.277c-0.068-0.048-0.185,0.043-0.246-0.097
				l0.215-0.366c-0.279,0.272-0.318-0.515-0.598-0.242l0.001-0.417l-0.219-0.004l0.048-0.138l-0.247-0.098
				c-0.15,0.044-0.202,0.228-0.251,0.366c-0.109-0.002-0.222,0.042-0.251-0.051l0.166-0.228l-0.102-0.095
				c0.065,0.094-0.121,0.137-0.165,0.228c-0.247-0.097-0.178-0.049-0.305-0.283c-0.194,0.135-0.349-0.192-0.412,0.131
				c-0.273-0.237-0.597-0.289-0.885-0.341l-0.16,0.182c-0.306-0.284-0.51-0.01-0.873-0.016l0.043-0.092l-0.236,0.227
				c-0.237-0.236-0.417,0.224-0.684-0.105c-0.313-0.191-0.519,0.13-0.694,0.544c-0.194,0.182-0.353-0.146-0.494-0.195l0.118-0.137
				l-0.095-0.187c-0.221,0.042-0.212-0.097-0.512,0.037c-0.347-0.238-0.394,0.457-0.591,0.686l-0.295-0.47l-0.006,0.093
				c-0.284,0.459-0.193,0.182-0.697,0.127l-0.018,0.278c-0.124-0.327-0.259,0.088-0.473,0.038c-0.108-0.002-0.366-0.517-0.603-0.197
				c-0.342-0.331-0.642,0.454-0.961,0.355c-0.167-0.235-0.374,0.226-0.348-0.239l0.036,0.001l-0.01-0.465l-0.054,0.325
				c-0.101-0.141-0.286-0.052-0.338-0.424l-0.355,0.552c0.075-0.045,0.144,0.002,0.214,0.05l0.005-0.093
				c0.072,0.001,0.255-0.042,0.32,0.098l-0.113,0.091c0.103,0.095-0.013,0.232-0.052,0.278c-0.206-0.189-0.188,0.136-0.371,0.18
				c-0.033-0.047-0.103-0.095-0.062-0.187c-0.11,0.045-0.348-0.238-0.401,0.086l-0.014-0.048
				C237.428,427.239,237.465,427.83,237.539,428.391z"/>
		</g>
		<g>
			<path fill="#0A032C" d="M211.771,425.279c0.118-0.062,0.23-0.155,0.334-0.292c0.416,0.502,0.777-0.526,1.237-0.257
				c0.432,0.038,0.764-0.154,1.152,0.116c0.251-0.979,0.786,0.263,1.168-0.348c0.22-0.097,0.377-0.471,0.239-0.654
				c0.289-0.006,0.166,0.414,0.424,0.27l-0.12,0.327c0.069,0.092,0.135,0.276,0.245,0.227l0.156-0.328
				c0.239,0.413,0.478-0.242,0.758,0.031c-0.171-0.275,0.115-0.188,0.125-0.466c0.031,0.139,0.209,0.228,0.133,0.322
				c0.248,0.134,0.556-0.429,0.647,0.08l0.113-0.141c0.187-0.19,0.286,0.087,0.428,0.177l0.043-0.186
				c0.111-0.095,0.291-0.052,0.357,0.132c0.248,0.134,0.623-0.244,0.918-0.436c0.245,0.227,0.192-0.328,0.448-0.426
				c0.14,0.136,0.437-0.102,0.499,0.176c-0.217,0.004-0.306,0.516-0.519,0.381c0.066,0.184-0.403,0.147-0.231,0.422
				c0.483-0.381,0.973,0.073,1.419-0.306c-0.09,0.512,0.457,0.362,0.64,0.312l-0.005,0.14c0.141,0.09,0.248,0.134,0.506-0.01
				c0.289-0.006,0.58-0.058,0.786,0.263c0.311,0.412,0.798-0.109,0.99-0.437c-0.38-0.503-0.874,0.203-1.097-0.674
				c0.283,0.18,0.325-0.007,0.587-0.243l-0.102-0.184l0.111-0.095c-0.03-0.185,0.12-0.327,0.126-0.513l-0.36-0.04
				c0.174,0.182,0.023,0.371-0.056,0.558l-0.178-0.089c0.033,0.092,0.138,0.183-0.01,0.279c-0.07-0.045-0.182,0.05-0.249-0.088
				l0.193-0.375c-0.262,0.284-0.344-0.503-0.607-0.22l-0.021-0.417l-0.217,0.004l0.041-0.14l-0.25-0.088
				c-0.146,0.049-0.189,0.236-0.23,0.376c-0.109,0.002-0.218,0.051-0.251-0.042l0.153-0.235l-0.105-0.091
				c0.069,0.091-0.113,0.141-0.153,0.235c-0.25-0.087-0.179-0.042-0.316-0.272c-0.185,0.143-0.355-0.179-0.402,0.147
				c-0.282-0.226-0.605-0.266-0.893-0.307l-0.151,0.189c-0.316-0.272-0.506,0.01-0.868,0.017l0.039-0.093l-0.225,0.236
				c-0.245-0.227-0.406,0.24-0.684-0.079c-0.319-0.179-0.51,0.149-0.67,0.57c-0.187,0.189-0.357-0.132-0.499-0.176l0.113-0.141
				l-0.102-0.183c-0.219,0.051-0.214-0.089-0.508,0.057c-0.354-0.225-0.377,0.471-0.566,0.707l-0.309-0.458l-0.003,0.093
				c-0.269,0.469-0.187,0.189-0.692,0.153l-0.009,0.278c-0.134-0.322-0.256,0.098-0.472,0.056c-0.108,0.002-0.38-0.503-0.608-0.174
				c-0.35-0.318-0.63,0.477-0.953,0.39c-0.173-0.229-0.37,0.239-0.354-0.225l0.036-0.001l-0.02-0.464l-0.047,0.326
				c-0.104-0.137-0.288-0.041-0.347-0.411l-0.345,0.564c0.074-0.048,0.144-0.003,0.215,0.042l0.003-0.093
				c0.073-0.002,0.255-0.052,0.322,0.086l-0.112,0.095c0.105,0.091-0.008,0.232-0.046,0.279c-0.211-0.181-0.185,0.143-0.368,0.193
				c-0.035-0.046-0.105-0.091-0.066-0.184c-0.11,0.049-0.353-0.225-0.4,0.101c-0.007-0.017-0.009-0.031-0.015-0.047
				C211.636,424.133,211.685,424.721,211.771,425.279z"/>
		</g>
		<g>
			<path fill="#0A032C" d="M185.921,421.512c0.122-0.057,0.24-0.144,0.352-0.277c0.391,0.519,0.809-0.49,1.256-0.202
				c0.432,0.057,0.775-0.12,1.15,0.166c0.3-0.966,0.775,0.297,1.188-0.296c0.225-0.087,0.4-0.454,0.27-0.643
				c0.29,0.006,0.147,0.421,0.412,0.288l-0.135,0.321c0.065,0.094,0.123,0.281,0.235,0.238l0.171-0.321
				c0.22,0.422,0.489-0.221,0.757,0.064c-0.159-0.282,0.123-0.182,0.145-0.46c0.025,0.14,0.199,0.237,0.119,0.328
				c0.242,0.145,0.575-0.404,0.644,0.108l0.119-0.136c0.195-0.181,0.282,0.099,0.42,0.195l0.05-0.184
				c0.115-0.09,0.293-0.04,0.351,0.147c0.243,0.145,0.632-0.217,0.935-0.396c0.235,0.237,0.204-0.32,0.463-0.407
				c0.134,0.142,0.44-0.083,0.491,0.197c-0.216-0.005-0.325,0.503-0.532,0.359c0.059,0.187-0.408,0.13-0.247,0.412
				c0.496-0.36,0.969,0.115,1.429-0.246c-0.108,0.508,0.444,0.382,0.628,0.339l-0.01,0.139c0.138,0.096,0.244,0.145,0.506,0.011
				c0.289,0.006,0.58-0.033,0.776,0.296c0.298,0.425,0.801-0.075,1.001-0.395c-0.364-0.52-0.878,0.166-1.073-0.721
				c0.276,0.192,0.324,0.007,0.592-0.219l-0.096-0.188l0.114-0.09c-0.024-0.187,0.129-0.323,0.141-0.508l-0.356-0.055
				c0.168,0.19,0.012,0.372-0.073,0.556l-0.174-0.097c0.03,0.094,0.132,0.189-0.019,0.278c-0.068-0.048-0.183,0.042-0.246-0.099
				l0.204-0.367c-0.27,0.273-0.325-0.518-0.596-0.245l-0.007-0.418l-0.216-0.005l0.045-0.138l-0.245-0.099
				c-0.147,0.043-0.196,0.228-0.242,0.366c-0.108-0.002-0.219,0.041-0.249-0.052l0.16-0.228l-0.102-0.095
				c0.065,0.094-0.117,0.137-0.16,0.228c-0.245-0.098-0.177-0.05-0.304-0.285c-0.19,0.135-0.346-0.194-0.405,0.13
				c-0.272-0.238-0.591-0.291-0.876-0.344l-0.157,0.182c-0.303-0.285-0.504-0.011-0.864-0.02l0.043-0.092l-0.234,0.227
				c-0.234-0.237-0.414,0.223-0.677-0.108c-0.31-0.193-0.515,0.128-0.692,0.541c-0.195,0.181-0.35-0.147-0.49-0.197l0.119-0.136
				l-0.093-0.188c-0.22,0.041-0.209-0.098-0.509,0.035c-0.342-0.24-0.398,0.455-0.598,0.682l-0.287-0.47l-0.007,0.093
				c-0.291,0.457-0.196,0.181-0.698,0.123l-0.023,0.277c-0.118-0.327-0.261,0.087-0.474,0.035c-0.108-0.003-0.354-0.518-0.599-0.199
				c-0.333-0.332-0.655,0.448-0.973,0.348c-0.161-0.235-0.383,0.223-0.342-0.24l0.036,0.001l0.005-0.463l-0.065,0.323
				c-0.096-0.141-0.286-0.053-0.325-0.424l-0.376,0.547c0.077-0.045,0.145,0.003,0.213,0.051l0.008-0.092
				c0.073,0.001,0.258-0.041,0.318,0.1l-0.117,0.09c0.1,0.095-0.021,0.231-0.061,0.276c-0.201-0.19-0.193,0.135-0.379,0.176
				c-0.032-0.047-0.1-0.095-0.056-0.186c-0.113,0.044-0.341-0.239-0.407,0.083l-0.012-0.048
				C185.849,420.363,185.866,420.952,185.921,421.512z"/>
		</g>
		<g>
			<path fill="#0A032C" d="M160.32,416.315c0.125-0.05,0.248-0.13,0.367-0.257c0.361,0.54,0.835-0.444,1.265-0.131
				c0.428,0.081,0.78-0.077,1.139,0.23c0.353-0.947,0.757,0.339,1.203-0.229c0.23-0.075,0.425-0.431,0.306-0.627
				c0.289,0.023,0.123,0.428,0.395,0.31l-0.153,0.313c0.059,0.098,0.107,0.288,0.221,0.25l0.189-0.311
				c0.196,0.434,0.501-0.193,0.752,0.106c-0.143-0.29,0.133-0.175,0.171-0.452c0.017,0.141,0.185,0.247,0.101,0.334
				c0.234,0.158,0.597-0.372,0.637,0.143l0.127-0.129c0.205-0.17,0.277,0.115,0.409,0.218l0.061-0.181
				c0.12-0.084,0.294-0.023,0.342,0.167c0.235,0.158,0.644-0.182,0.955-0.343c0.222,0.25,0.222-0.308,0.485-0.38
				c0.126,0.149,0.444-0.058,0.48,0.224c-0.215-0.017-0.352,0.484-0.551,0.329c0.048,0.19-0.414,0.107-0.27,0.398
				c0.516-0.332,0.961,0.169,1.44-0.165c-0.136,0.501,0.422,0.406,0.608,0.374l-0.017,0.139c0.132,0.104,0.235,0.158,0.505,0.04
				c0.288,0.023,0.581-0.001,0.758,0.339c0.274,0.441,0.803-0.03,1.022-0.339c-0.334-0.539-0.886,0.116-1.031-0.78
				c0.265,0.207,0.324,0.025,0.603-0.185l-0.085-0.193l0.119-0.084c-0.013-0.188,0.147-0.315,0.169-0.499l-0.353-0.075
				c0.157,0.199-0.009,0.372-0.104,0.551l-0.168-0.106c0.025,0.095,0.121,0.196-0.034,0.277c-0.066-0.052-0.185,0.032-0.24-0.112
				l0.224-0.355c-0.285,0.257-0.296-0.535-0.581-0.278l0.016-0.418l-0.215-0.017l0.053-0.135l-0.239-0.112
				c-0.149,0.035-0.208,0.217-0.262,0.352c-0.108-0.008-0.221,0.029-0.245-0.066l0.173-0.219l-0.096-0.101
				c0.06,0.098-0.125,0.13-0.173,0.219c-0.24-0.111-0.174-0.06-0.288-0.301c-0.197,0.124-0.335-0.213-0.412,0.107
				c-0.258-0.253-0.574-0.324-0.855-0.393l-0.167,0.173c-0.287-0.302-0.502-0.04-0.861-0.068l0.048-0.089l-0.246,0.213
				c-0.221-0.25-0.426,0.199-0.67-0.146c-0.298-0.21-0.521,0.099-0.721,0.502c-0.204,0.17-0.341-0.167-0.478-0.224l0.126-0.13
				l-0.082-0.192c-0.222,0.029-0.203-0.109-0.51,0.006c-0.328-0.258-0.423,0.432-0.635,0.648l-0.26-0.486l-0.012,0.092
				c-0.316,0.44-0.206,0.17-0.704,0.084l-0.038,0.276c-0.099-0.333-0.265,0.072-0.475,0.009c-0.108-0.009-0.325-0.537-0.587-0.233
				c-0.314-0.35-0.679,0.411-0.991,0.293c-0.147-0.244-0.395,0.201-0.328-0.258l0.036,0.003l0.031-0.462l-0.083,0.319
				c-0.088-0.147-0.282-0.069-0.301-0.442l-0.406,0.525c0.079-0.04,0.144,0.011,0.21,0.063l0.013-0.092
				c0.073,0.006,0.259-0.026,0.312,0.117l-0.122,0.083c0.095,0.1-0.033,0.229-0.076,0.272c-0.19-0.201-0.201,0.124-0.388,0.155
				c-0.029-0.049-0.095-0.101-0.046-0.189c-0.115,0.037-0.327-0.258-0.411,0.06l-0.01-0.049
				C160.312,415.165,160.296,415.753,160.32,416.315z"/>
		</g>
		<g>
			<path fill="#0A032C" d="M134.69,411.278c0.136-0.015,0.278-0.061,0.426-0.153c0.241,0.626,0.934-0.223,1.295,0.186
				c0.417,0.177,0.796,0.102,1.108,0.475c0.516-0.863,0.715,0.484,1.258-0.004c0.244-0.033,0.489-0.363,0.397-0.572
				c0.286,0.063,0.066,0.442,0.355,0.364l-0.194,0.29c0.048,0.106,0.073,0.302,0.195,0.282l0.228-0.282
				c0.155,0.456,0.53-0.134,0.755,0.192c-0.118-0.306,0.15-0.16,0.212-0.433c0.005,0.142,0.167,0.261,0.074,0.34
				c0.229,0.177,0.627-0.325,0.638,0.194l0.136-0.123c0.216-0.161,0.275,0.126,0.407,0.236l0.067-0.179
				c0.124-0.078,0.296-0.011,0.343,0.177c0.24,0.156,0.654-0.17,0.96-0.349c0.228,0.241,0.212-0.316,0.465-0.399
				c0.129,0.148,0.425-0.087,0.477,0.19c-0.209-0.001-0.319,0.515-0.525,0.365c0.058,0.189-0.411,0.122-0.255,0.408
				c0.502-0.346,0.989,0.113,1.435-0.275c-0.082,0.51,0.473,0.357,0.652,0.29l0.003,0.139c0.148,0.08,0.264,0.116,0.512-0.046
				c0.293-0.026,0.573-0.122,0.825,0.174c0.379,0.367,0.795-0.239,0.912-0.591c-0.451-0.433-0.83,0.352-1.158-0.5
				c0.29,0.144,0.311-0.041,0.518-0.32l-0.12-0.164l0.088-0.112c-0.053-0.178,0.06-0.343,0.038-0.527l-0.321,0.014
				c0.177,0.161,0.069,0.365,0.02,0.56l-0.173-0.068c0.04,0.088,0.149,0.165,0.024,0.278c-0.07-0.036-0.164,0.071-0.241-0.058
				l0.137-0.395c-0.212,0.312-0.355-0.454-0.566-0.156l-0.047-0.414l-0.19,0.021l0.029-0.142l-0.221-0.068
				c-0.125,0.059-0.158,0.243-0.191,0.386c-0.097,0.006-0.195,0.058-0.226-0.033l0.132-0.24l-0.094-0.087
				c0.062,0.089-0.098,0.145-0.133,0.24c-0.223-0.079-0.161-0.033-0.279-0.262c-0.167,0.142-0.308-0.18-0.361,0.145
				c-0.244-0.221-0.526-0.278-0.779-0.331l-0.151,0.181c-0.258-0.29-0.455-0.029-0.788-0.05l0.048-0.089l-0.236,0.21
				c-0.191-0.254-0.409,0.189-0.616-0.16c-0.261-0.225-0.494,0.069-0.723,0.456c-0.213,0.158-0.311-0.193-0.435-0.262l0.135-0.117
				l-0.057-0.198c-0.214,0.008-0.178-0.125-0.484-0.041c-0.275-0.295-0.46,0.376-0.697,0.562l-0.18-0.514l-0.026,0.089
				c-0.372,0.387-0.225,0.136-0.692-0.026l-0.084,0.265c-0.04-0.342-0.27,0.024-0.464-0.076c-0.105-0.03-0.214-0.584-0.526-0.34
				c-0.23-0.409-0.744,0.265-1.023,0.075c-0.089-0.273-0.429,0.104-0.261-0.329l0.034,0.011l0.135-0.444l-0.152,0.292
				c-0.052-0.163-0.258-0.132-0.186-0.502l-0.515,0.411c0.086-0.019,0.137,0.047,0.188,0.114l0.035-0.086
				c0.069,0.023,0.255,0.04,0.274,0.191l-0.138,0.053c0.069,0.12-0.085,0.216-0.137,0.247c-0.138-0.244-0.223,0.07-0.414,0.053
				c-0.017-0.055-0.069-0.122,0.001-0.196c-0.121,0.007-0.256-0.334-0.415-0.046l0.002-0.05
				C134.955,410.154,134.797,410.722,134.69,411.278z"/>
		</g>
		<g>
			<path fill="#0A032C" d="M112.084,399.411c0.124-0.041,0.249-0.112,0.374-0.229c0.301,0.566,0.846-0.376,1.234-0.023
				c0.404,0.121,0.763,0.002,1.071,0.348c0.464-0.899,0.682,0.427,1.188-0.075c0.232-0.041,0.478-0.364,0.392-0.575
				c0.28,0.066,0.053,0.442,0.337,0.367l-0.199,0.286c0.041,0.105,0.055,0.299,0.171,0.281l0.235-0.276
				c0.111,0.459,0.519-0.105,0.706,0.235c-0.082-0.311,0.163-0.148,0.253-0.411c-0.01,0.142,0.131,0.279,0.032,0.347
				c0.193,0.198,0.656-0.243,0.585,0.268l0.15-0.1c0.236-0.121,0.242,0.172,0.345,0.301l0.1-0.162
				c0.135-0.054,0.291,0.045,0.291,0.24c0.187,0.208,0.664-0.023,1.009-0.099c0.15,0.299,0.294-0.24,0.572-0.24
				c0.083,0.177,0.449,0.065,0.408,0.346c-0.206-0.075-0.473,0.37-0.623,0.168c-0.005,0.195-0.428-0.004-0.366,0.313
				c0.586-0.187,0.876,0.415,1.43,0.23c-0.274,0.44,0.285,0.507,0.473,0.531l-0.058,0.127c0.095,0.138,0.176,0.219,0.469,0.186
				c0.267,0.107,0.555,0.175,0.615,0.551c0.117,0.5,0.771,0.221,1.081,0c-0.144-0.615-0.88-0.169-0.736-1.062
				c0.19,0.279,0.303,0.125,0.639,0.015l-0.021-0.21l0.141-0.042c0.047-0.182,0.243-0.251,0.323-0.418l-0.319-0.185
				c0.09,0.239-0.126,0.35-0.274,0.489l-0.13-0.154c-0.006,0.098,0.056,0.224-0.12,0.252c-0.047-0.07-0.188-0.027-0.197-0.182
				l0.328-0.266c-0.355,0.154-0.124-0.602-0.481-0.447l0.141-0.393l-0.207-0.083l0.092-0.113l-0.203-0.181
				c-0.158-0.012-0.269,0.143-0.361,0.257c-0.104-0.041-0.226-0.039-0.223-0.138l0.234-0.157l-0.066-0.126
				c0.032,0.112-0.161,0.087-0.233,0.158c-0.206-0.178-0.155-0.109-0.201-0.375c-0.23,0.061-0.276-0.303-0.44-0.018
				c-0.189-0.318-0.49-0.477-0.756-0.622l-0.212,0.122c-0.215-0.371-0.498-0.174-0.854-0.292l0.069-0.075l-0.297,0.146
				c-0.169-0.3-0.473,0.091-0.649-0.304c-0.262-0.275-0.551-0.022-0.83,0.333c-0.237,0.123-0.312-0.234-0.442-0.319l0.151-0.102
				l-0.05-0.207c-0.232-0.014-0.19-0.149-0.521-0.092c-0.294-0.316-0.497,0.352-0.742,0.53l-0.191-0.524l-0.026,0.089
				c-0.38,0.387-0.23,0.135-0.72-0.022l-0.074,0.269c-0.057-0.345-0.274,0.035-0.475-0.055c-0.105-0.023-0.264-0.576-0.559-0.304
				c-0.28-0.386-0.718,0.334-1.014,0.186c-0.125-0.258-0.408,0.163-0.303-0.289l0.035,0.006l0.069-0.459l-0.108,0.311
				c-0.076-0.154-0.275-0.095-0.266-0.469l-0.443,0.491c0.081-0.034,0.143,0.023,0.204,0.081l0.02-0.091
				c0.072,0.011,0.26-0.003,0.301,0.145l-0.127,0.072c0.086,0.109-0.051,0.226-0.097,0.265c-0.172-0.217-0.208,0.107-0.395,0.122
				c-0.025-0.051-0.086-0.108-0.031-0.193c-0.116,0.028-0.306-0.284-0.41,0.028l-0.006-0.049
				C112.161,398.261,112.103,398.848,112.084,399.411z"/>
		</g>
		<g>
			<path fill="#0A032C" d="M87.72,389.24c0.132-0.008,0.272-0.046,0.424-0.128c0.166,0.628,0.922-0.154,1.228,0.283
				c0.376,0.216,0.759,0.181,0.999,0.59c0.637-0.785,0.608,0.569,1.213,0.173c0.242,0.003,0.539-0.273,0.488-0.497
				c0.266,0.115-0.018,0.446,0.277,0.421l-0.243,0.249c0.026,0.112,0.012,0.307,0.133,0.309l0.276-0.235
				c0.052,0.476,0.538-0.026,0.685,0.337c-0.047-0.321,0.181-0.125,0.301-0.377c-0.027,0.14,0.102,0.292-0.005,0.349
				c0.177,0.222,0.682-0.173,0.567,0.331l0.16-0.086c0.247-0.102,0.232,0.191,0.329,0.329l0.111-0.156
				c0.139-0.044,0.289,0.063,0.281,0.259c0.182,0.219,0.672,0.01,1.016-0.064c0.145,0.3,0.297-0.237,0.568-0.236
				c0.081,0.176,0.44,0.055,0.401,0.336c-0.202-0.071-0.466,0.377-0.617,0.177c-0.004,0.197-0.428-0.008-0.367,0.311
				c0.587-0.182,0.891,0.415,1.441,0.205c-0.256,0.455,0.315,0.494,0.505,0.502l-0.049,0.131c0.107,0.13,0.195,0.209,0.487,0.149
				c0.28,0.082,0.57,0.121,0.681,0.482c0.189,0.482,0.807,0.119,1.073-0.148c-0.226-0.587-0.896-0.045-0.857-0.944
				c0.216,0.248,0.311,0.081,0.621-0.077l-0.044-0.203l0.13-0.062c0.024-0.185,0.202-0.283,0.259-0.459l-0.319-0.13
				c0.108,0.219-0.084,0.361-0.211,0.519l-0.14-0.132c0.004,0.097,0.076,0.211-0.09,0.263c-0.053-0.061-0.185-0.001-0.207-0.153
				l0.289-0.304c-0.327,0.197-0.163-0.576-0.489-0.38l0.111-0.402l-0.197-0.059l0.081-0.12l-0.196-0.157
				c-0.147,0.004-0.247,0.167-0.33,0.287c-0.099-0.03-0.215-0.018-0.214-0.116l0.216-0.174l-0.065-0.118
				c0.031,0.108-0.149,0.098-0.216,0.173c-0.196-0.161-0.148-0.097-0.192-0.354c-0.217,0.077-0.256-0.282-0.413,0.008
				c-0.174-0.304-0.449-0.448-0.692-0.587l-0.205,0.123c-0.183-0.36-0.458-0.171-0.787-0.294l0.071-0.072l-0.293,0.136
				c-0.133-0.301-0.459,0.07-0.586-0.329c-0.216-0.287-0.519-0.059-0.831,0.265c-0.246,0.101-0.27-0.262-0.382-0.358l0.159-0.085
				l-0.018-0.208c-0.218-0.04-0.157-0.164-0.482-0.151c-0.227-0.347-0.534,0.278-0.803,0.416l-0.092-0.544l-0.041,0.083
				c-0.438,0.316-0.248,0.096-0.691-0.146l-0.124,0.249c0.013-0.348-0.273-0.018-0.452-0.146c-0.099-0.043-0.134-0.615-0.479-0.412
				c-0.185-0.435-0.772,0.168-1.028-0.045c-0.061-0.28-0.436,0.062-0.227-0.352l0.033,0.015l0.176-0.43l-0.179,0.276
				c-0.037-0.168-0.244-0.158-0.144-0.519l-0.549,0.368c0.087-0.013,0.133,0.057,0.178,0.128l0.042-0.083
				c0.067,0.029,0.253,0.06,0.257,0.213l-0.141,0.04c0.057,0.126-0.104,0.207-0.158,0.234c-0.115-0.253-0.228,0.053-0.415,0.022
				c-0.012-0.056-0.057-0.126,0.017-0.195c-0.12-0.002-0.227-0.351-0.405-0.075l0.006-0.049
				C88.075,388.142,87.875,388.698,87.72,389.24z"/>
		</g>
		<g>
			<path fill="#0A032C" d="M64.336,383.235c0.103-0.08,0.197-0.191,0.275-0.344c0.482,0.427,0.669-0.644,1.159-0.449
				c0.424-0.027,0.721-0.267,1.134-0.051c0.115-1.006,0.796,0.157,1.092-0.496c0.203-0.122,0.315-0.511,0.158-0.677
				c0.285-0.038,0.211,0.393,0.448,0.221l-0.082,0.338c0.077,0.083,0.161,0.259,0.264,0.198l0.118-0.342
				c0.274,0.387,0.446-0.287,0.746-0.043c-0.193-0.257,0.096-0.198,0.082-0.475c0.043,0.136,0.226,0.21,0.159,0.31
				c0.254,0.114,0.518-0.474,0.644,0.029l0.102-0.148c0.173-0.201,0.289,0.068,0.433,0.149l0.032-0.189
				c0.105-0.103,0.286-0.069,0.36,0.113c0.251,0.124,0.606-0.275,0.899-0.47c0.251,0.222,0.184-0.333,0.443-0.436
				c0.144,0.131,0.444-0.104,0.509,0.173c-0.22,0.005-0.305,0.514-0.519,0.384c0.068,0.183-0.399,0.156-0.224,0.427
				c0.475-0.392,0.963,0.062,1.414-0.307c-0.1,0.511,0.445,0.369,0.629,0.331l-0.011,0.139c0.136,0.097,0.238,0.146,0.502,0.014
				c0.287,0.008,0.581-0.016,0.757,0.317c0.266,0.434,0.791-0.03,1.027-0.335c-0.33-0.541-0.888,0.107-1.043-0.78
				c0.275,0.203,0.332,0.017,0.622-0.188l-0.088-0.195l0.124-0.082c-0.014-0.188,0.155-0.312,0.179-0.497l-0.377-0.078
				c0.17,0.197-0.006,0.371-0.103,0.551l-0.178-0.104c0.028,0.095,0.129,0.194-0.031,0.277c-0.069-0.051-0.191,0.035-0.251-0.109
				l0.227-0.358c-0.292,0.261-0.33-0.535-0.624-0.266l-0.003-0.418l-0.231-0.009l0.049-0.137l-0.264-0.103
				c-0.158,0.041-0.208,0.228-0.255,0.366c-0.115-0.001-0.231,0.044-0.265-0.05l0.167-0.23l-0.111-0.094
				c0.071,0.094-0.123,0.138-0.166,0.23c-0.264-0.095-0.189-0.049-0.332-0.281c-0.197,0.141-0.378-0.182-0.426,0.144
				c-0.299-0.231-0.644-0.266-0.949-0.301l-0.153,0.191c-0.343-0.266-0.531,0.028-0.907,0.049l0.036-0.095l-0.221,0.247
				c-0.27-0.212-0.404,0.264-0.714-0.037c-0.344-0.155-0.516,0.189-0.641,0.621c-0.173,0.203-0.374-0.102-0.525-0.131l0.102-0.152
				l-0.122-0.173c-0.219,0.072-0.228-0.068-0.514,0.106c-0.385-0.185-0.331,0.51-0.494,0.766l-0.366-0.42l0.008,0.093
				c-0.214,0.499-0.165,0.211-0.676,0.239l0.027,0.277c-0.176-0.303-0.243,0.13-0.463,0.118c-0.106,0.017-0.45-0.446-0.63-0.087
				c-0.396-0.261-0.555,0.564-0.885,0.529c-0.207-0.198-0.327,0.295-0.385-0.166l0.035-0.006l-0.094-0.455l0.006,0.329
				c-0.125-0.119-0.291,0.005-0.411-0.349l-0.247,0.613c0.065-0.06,0.142-0.027,0.219,0.006l-0.012-0.092
				c0.071-0.014,0.243-0.094,0.332,0.032l-0.095,0.112c0.118,0.073,0.03,0.23,0,0.283c-0.237-0.144-0.159,0.172-0.33,0.251
				c-0.041-0.039-0.118-0.072-0.095-0.171c-0.1,0.066-0.385-0.163-0.376,0.166l-0.023-0.044
				C64.013,382.128,64.16,382.699,64.336,383.235z"/>
		</g>
		<g>
			<path fill="#0A032C" d="M37.598,381.276c0.143-0.013,0.29-0.059,0.44-0.151c0.283,0.634,0.958-0.232,1.351,0.162
				c0.439,0.163,0.822,0.064,1.169,0.418c0.45-0.895,0.769,0.429,1.273-0.101c0.244-0.06,0.456-0.406,0.345-0.608
				c0.29,0.038,0.107,0.435,0.388,0.332l-0.166,0.306c0.058,0.101,0.102,0.297,0.223,0.263l0.201-0.306
				c0.199,0.438,0.514-0.178,0.771,0.119c-0.149-0.288,0.134-0.176,0.169-0.453c0.019,0.141,0.191,0.245,0.107,0.332
				c0.244,0.156,0.591-0.38,0.652,0.13l0.123-0.135c0.199-0.179,0.284,0.102,0.425,0.201l0.051-0.184
				c0.116-0.09,0.294-0.044,0.356,0.143c0.25,0.143,0.635-0.228,0.928-0.423c0.244,0.227,0.19-0.329,0.44-0.427
				c0.14,0.134,0.427-0.113,0.495,0.163c-0.213,0.01-0.292,0.524-0.507,0.395c0.069,0.185-0.402,0.148-0.228,0.423
				c0.48-0.386,0.984,0.057,1.416-0.346c-0.066,0.515,0.478,0.342,0.657,0.276l0.004,0.139c0.148,0.08,0.26,0.117,0.507-0.045
				c0.29-0.028,0.574-0.107,0.811,0.195c0.353,0.38,0.791-0.19,0.942-0.536c-0.428-0.461-0.849,0.296-1.149-0.561
				c0.294,0.155,0.319-0.034,0.551-0.298l-0.117-0.172l0.099-0.106c-0.047-0.181,0.084-0.338,0.072-0.523l-0.349-0.003
				c0.183,0.166,0.057,0.367-0.003,0.561l-0.18-0.073c0.04,0.089,0.15,0.17,0.015,0.278c-0.072-0.039-0.173,0.066-0.25-0.066
				l0.156-0.391c-0.231,0.304-0.371-0.468-0.6-0.168l-0.049-0.415l-0.206,0.019l0.03-0.142l-0.241-0.07
				c-0.135,0.06-0.166,0.249-0.198,0.39c-0.103,0.008-0.205,0.062-0.241-0.029l0.134-0.242l-0.104-0.085
				c0.069,0.088-0.1,0.147-0.134,0.242c-0.241-0.074-0.172-0.033-0.309-0.255c-0.171,0.152-0.337-0.167-0.375,0.161
				c-0.271-0.216-0.573-0.247-0.841-0.288l-0.143,0.19c-0.293-0.266-0.473,0.007-0.815,0.009l0.04-0.092l-0.221,0.232
				c-0.218-0.234-0.395,0.222-0.638-0.107c-0.286-0.192-0.488,0.116-0.679,0.525c-0.197,0.173-0.331-0.155-0.459-0.216l0.122-0.129
				l-0.075-0.193c-0.211,0.028-0.189-0.109-0.483,0.004c-0.3-0.261-0.419,0.419-0.637,0.628l-0.224-0.495l-0.018,0.091
				c-0.336,0.425-0.211,0.156-0.685,0.035l-0.062,0.271c-0.066-0.34-0.267,0.053-0.466-0.037c-0.107-0.022-0.25-0.569-0.545-0.3
				c-0.248-0.396-0.723,0.307-1.014,0.131c-0.099-0.27-0.426,0.119-0.273-0.32l0.034,0.01l0.12-0.448l-0.143,0.297
				c-0.056-0.161-0.262-0.121-0.196-0.494l-0.505,0.42c0.086-0.021,0.137,0.045,0.189,0.112l0.033-0.087
				c0.069,0.023,0.255,0.035,0.278,0.184l-0.136,0.057c0.073,0.117-0.079,0.218-0.131,0.251c-0.145-0.242-0.223,0.074-0.417,0.058
				c-0.019-0.055-0.072-0.122-0.003-0.197c-0.123,0.008-0.263-0.332-0.421-0.044l0.002-0.05
				C37.843,380.146,37.689,380.716,37.598,381.276z"/>
		</g>
		<g>
			<path fill="#0A032C" d="M20.839,360.187c0.12,0.061,0.263,0.101,0.437,0.107c-0.164,0.628,0.89,0.335,0.942,0.865
				c0.225,0.375,0.577,0.535,0.586,1.008c0.944-0.364,0.251,0.794,0.972,0.75c0.209,0.123,0.604,0.031,0.671-0.188
				c0.175,0.231-0.238,0.377,0.031,0.502l-0.335,0.095c-0.034,0.11-0.144,0.272-0.04,0.333l0.357-0.066
				c-0.193,0.437,0.477,0.246,0.421,0.633c0.121-0.301,0.219-0.018,0.45-0.174c-0.094,0.107-0.061,0.304-0.182,0.299
				c0.038,0.281,0.673,0.197,0.316,0.572l0.18,0.008c0.263,0.039,0.098,0.283,0.109,0.452l0.175-0.076
				c0.142,0.033,0.212,0.204,0.104,0.367c0.046,0.278,0.578,0.35,0.911,0.467c-0.031,0.331,0.379-0.047,0.612,0.096
				c-0.023,0.193,0.347,0.282,0.165,0.5c-0.135-0.168-0.596,0.073-0.619-0.177c-0.106,0.164-0.363-0.23-0.477,0.072
				c0.598,0.152,0.539,0.818,1.111,0.938c-0.458,0.244-0.005,0.586,0.146,0.699l-0.113,0.083c0.016,0.168,0.047,0.281,0.318,0.395
				c0.182,0.225,0.399,0.422,0.276,0.787c-0.129,0.508,0.573,0.564,0.943,0.503c0.159-0.619-0.69-0.56-0.143-1.289
				c0.031,0.335,0.203,0.251,0.545,0.305l0.081-0.196l0.141,0.027c0.126-0.14,0.326-0.114,0.474-0.227l-0.185-0.304
				c-0.037,0.25-0.275,0.252-0.468,0.309l-0.038-0.194c-0.052,0.084-0.059,0.223-0.223,0.168c-0.007-0.083-0.149-0.11-0.082-0.25
				l0.409-0.085c-0.38-0.026,0.186-0.582-0.193-0.609l0.314-0.276l-0.134-0.165l0.134-0.055l-0.08-0.247
				c-0.127-0.082-0.299,0-0.434,0.055c-0.067-0.083-0.171-0.138-0.119-0.221l0.277-0.026l0.008-0.138
				c-0.031,0.109-0.179,0-0.277,0.026c-0.081-0.247-0.074-0.165,0.025-0.411c-0.224-0.056-0.071-0.383-0.358-0.222
				c0.01-0.356-0.153-0.63-0.293-0.878l-0.241-0.004c0.028-0.409-0.314-0.385-0.535-0.666l0.098-0.024l-0.321-0.039
				c0.04-0.331-0.43-0.183-0.335-0.595c-0.041-0.362-0.418-0.321-0.851-0.201c-0.262-0.039-0.102-0.365-0.15-0.506l0.18,0.008
				l0.089-0.19c-0.169-0.146-0.053-0.224-0.343-0.375c-0.024-0.416-0.602-0.027-0.904-0.042l0.19-0.517l-0.077,0.052
				c-0.538,0.057-0.263-0.041-0.529-0.469l-0.232,0.154c0.183-0.295-0.23-0.15-0.322-0.349c-0.065-0.086,0.186-0.598-0.216-0.592
				c0.053-0.466-0.759-0.236-0.878-0.547c0.085-0.271-0.413-0.163-0.024-0.416l0.022,0.029l0.367-0.281l-0.294,0.148
				c0.051-0.163-0.136-0.257,0.132-0.516l-0.664,0.042c0.083,0.033,0.087,0.115,0.092,0.199l0.078-0.05
				c0.044,0.058,0.192,0.177,0.119,0.311l-0.144-0.036c-0.012,0.137-0.194,0.126-0.255,0.122c0.024-0.274-0.226-0.069-0.375-0.189
				c0.017-0.054,0.012-0.137,0.112-0.159c-0.105-0.062-0.024-0.415-0.319-0.269l0.03-0.039
				C21.697,359.424,21.244,359.798,20.839,360.187z"/>
		</g>
		<g>
			<path fill="#0A032C" d="M13.534,334.563c0.084,0.103,0.198,0.194,0.354,0.268c-0.407,0.511,0.672,0.656,0.503,1.163
				c0.051,0.433,0.309,0.72,0.126,1.159c1.009,0.039-0.09,0.831,0.591,1.076c0.142,0.196,0.543,0.266,0.69,0.091
				c0.07,0.281-0.367,0.254-0.169,0.475l-0.345-0.044c-0.074,0.088-0.239,0.195-0.167,0.292l0.355,0.079
				c-0.346,0.329,0.344,0.413,0.145,0.75c0.226-0.232,0.21,0.068,0.483,0.012c-0.127,0.063-0.172,0.258-0.281,0.207
				c-0.072,0.276,0.55,0.438,0.08,0.652l0.165,0.075c0.23,0.135-0.014,0.3-0.063,0.461l0.191-0.006
				c0.121,0.084,0.125,0.268-0.036,0.381c-0.065,0.277,0.402,0.54,0.666,0.77c-0.149,0.297,0.369,0.093,0.535,0.308
				c-0.093,0.172,0.221,0.384-0.025,0.523c-0.067-0.203-0.585-0.141-0.514-0.384c-0.158,0.116-0.254-0.345-0.47-0.104
				c0.5,0.357,0.209,0.96,0.71,1.27c-0.515,0.072-0.203,0.55-0.094,0.706l-0.134,0.041c-0.037,0.163-0.049,0.282,0.178,0.477
				c0.109,0.271,0.261,0.524,0.035,0.832c-0.273,0.443,0.387,0.715,0.76,0.766c0.334-0.536-0.499-0.742,0.242-1.257
				c-0.069,0.323,0.121,0.297,0.433,0.45l0.136-0.158l0.127,0.067c0.163-0.093,0.347-0.01,0.522-0.071l-0.087-0.334
				c-0.11,0.219-0.339,0.152-0.541,0.146l0.022-0.191c-0.075,0.062-0.123,0.189-0.264,0.088c0.018-0.079-0.111-0.148-0.005-0.257
				l0.419,0.046c-0.357-0.141,0.353-0.478-0.004-0.618l0.387-0.156l-0.072-0.193l0.145-0.008l0.005-0.251
				c-0.093-0.115-0.283-0.095-0.429-0.089c-0.035-0.098-0.114-0.183-0.036-0.241l0.269,0.067l0.055-0.123
				c-0.066,0.09-0.168-0.059-0.269-0.067c0.008-0.253-0.014-0.176,0.164-0.367c-0.189-0.127,0.07-0.375-0.255-0.324
				c0.134-0.322,0.087-0.63,0.046-0.905l-0.222-0.088c0.181-0.366-0.145-0.466-0.242-0.804l0.1,0.013l-0.285-0.151
				c0.157-0.286-0.334-0.323-0.093-0.664c0.096-0.344-0.267-0.447-0.714-0.501c-0.228-0.135,0.043-0.373,0.054-0.52l0.163,0.076
				l0.155-0.14c-0.099-0.198,0.038-0.225-0.171-0.474c0.14-0.39-0.543-0.258-0.815-0.389l0.379-0.4l-0.091,0.017
				c-0.516-0.159-0.225-0.14-0.298-0.638l-0.274,0.05c0.287-0.199-0.15-0.229-0.154-0.448c-0.025-0.105,0.412-0.475,0.043-0.63
				c0.238-0.407-0.596-0.518-0.578-0.851c0.188-0.216-0.309-0.313,0.148-0.392l0.008,0.035l0.45-0.114l-0.329,0.02
				c0.113-0.13-0.018-0.29,0.332-0.423l-0.622-0.223c0.062,0.063,0.032,0.141,0.002,0.219l0.091-0.016
				c0.016,0.071,0.102,0.239-0.019,0.333l-0.116-0.09c-0.067,0.121-0.229,0.039-0.282,0.012c0.134-0.243-0.178-0.153-0.263-0.321
				c0.038-0.043,0.068-0.121,0.167-0.102c-0.07-0.098,0.149-0.391-0.18-0.372l0.043-0.024
				C14.629,334.199,14.063,334.366,13.534,334.563z"/>
		</g>
		<g>
			<path fill="#0A032C" d="M5.387,312.337c0.13,0.02,0.275,0.013,0.44-0.035c0.022,0.644,0.928,0.04,1.116,0.527
				c0.305,0.285,0.678,0.337,0.787,0.778c0.825-0.588,0.394,0.675,1.066,0.466c0.219,0.07,0.59-0.093,0.618-0.319
				c0.212,0.191-0.171,0.41,0.11,0.482l-0.313,0.151c-0.017,0.111-0.103,0.284,0.006,0.323l0.34-0.124
				c-0.142,0.449,0.499,0.163,0.479,0.551c0.092-0.307,0.214-0.043,0.429-0.221c-0.082,0.116-0.032,0.303-0.153,0.311
				c0.056,0.266,0.685,0.137,0.35,0.53l0.179-0.004c0.263,0.024,0.111,0.273,0.124,0.436l0.173-0.081
				c0.142,0.029,0.217,0.197,0.108,0.358c0.036,0.274,0.562,0.348,0.886,0.488c-0.05,0.332,0.382-0.027,0.608,0.14
				c-0.037,0.195,0.331,0.323,0.128,0.527c-0.12-0.187-0.603,0.016-0.604-0.236c-0.117,0.154-0.344-0.253-0.478,0.041
				c0.582,0.191,0.459,0.843,1.006,1.035c-0.484,0.18-0.087,0.572,0.043,0.71l-0.125,0.062c-0.01,0.165-0.003,0.279,0.245,0.438
				c0.137,0.251,0.314,0.49,0.112,0.812c-0.238,0.449,0.429,0.666,0.81,0.714c0.303-0.56-0.545-0.709,0.143-1.296
				c-0.035,0.341,0.148,0.297,0.478,0.441l0.121-0.175l0.135,0.065c0.154-0.108,0.349-0.026,0.52-0.098l-0.126-0.365
				c-0.086,0.248-0.324,0.184-0.527,0.191l0.001-0.207c-0.067,0.072-0.103,0.211-0.254,0.114c0.008-0.086-0.128-0.147-0.036-0.272
				l0.425,0.014c-0.375-0.119,0.29-0.558-0.092-0.677l0.358-0.217l-0.111-0.207l0.143-0.028l-0.051-0.283
				c-0.119-0.116-0.303-0.064-0.446-0.033c-0.057-0.102-0.157-0.18-0.095-0.258l0.285,0.026l0.022-0.146
				c-0.042,0.111-0.183-0.036-0.284-0.025c-0.06-0.28-0.059-0.19,0.062-0.438c-0.225-0.098-0.049-0.429-0.351-0.298
				c0.03-0.383-0.127-0.708-0.272-0.994l-0.246-0.028c0.025-0.444-0.322-0.452-0.563-0.761l0.1-0.023l-0.333-0.051
				c0.019-0.357-0.456-0.194-0.395-0.634c-0.086-0.384-0.468-0.329-0.892-0.174c-0.271-0.02-0.151-0.369-0.222-0.512l0.183-0.008
				l0.061-0.207c-0.198-0.136-0.095-0.231-0.414-0.358c-0.11-0.43-0.614,0.051-0.916,0.084l0.082-0.558l-0.065,0.066
				c-0.523,0.156-0.267,0.005-0.633-0.369l-0.19,0.204c0.109-0.334-0.261-0.098-0.398-0.271c-0.083-0.067,0.024-0.636-0.364-0.526
				c-0.079-0.473-0.793-0.023-0.992-0.286c0.003-0.287-0.438-0.034-0.143-0.394l0.029,0.021l0.265-0.381l-0.235,0.231
				c0-0.173-0.205-0.207-0.03-0.538L6.995,310.8c0.088,0.006,0.117,0.084,0.147,0.163l0.058-0.072
				c0.059,0.042,0.235,0.112,0.205,0.263l-0.146,0.008c0.029,0.136-0.146,0.18-0.205,0.195c-0.059-0.271-0.234,0.003-0.409-0.067
				c0-0.057-0.029-0.135,0.058-0.187c-0.117-0.027-0.148-0.392-0.38-0.159l0.016-0.047C5.966,311.34,5.653,311.84,5.387,312.337z"/>
		</g>
		<g>
			<path fill="#0A032C" d="M1.139,286.37c0.028,0.133,0.088,0.268,0.193,0.406c-0.598,0.288,0.307,0.901-0.068,1.29
				c-0.142,0.423-0.036,0.794-0.386,1.125c0.898,0.455-0.431,0.735,0.089,1.243c0.049,0.239,0.39,0.466,0.595,0.363
				c-0.048,0.288-0.438,0.089-0.344,0.372l-0.299-0.178c-0.103,0.052-0.297,0.087-0.27,0.207l0.294,0.213
				c-0.448,0.173,0.159,0.52-0.157,0.757c0.3-0.13,0.167,0.143,0.441,0.194c-0.142,0.01-0.255,0.176-0.338,0.087
				c-0.168,0.233,0.347,0.614-0.171,0.64l0.127,0.131c0.167,0.211-0.119,0.277-0.225,0.411l0.18,0.063
				c0.082,0.122,0.018,0.295-0.169,0.346c-0.153,0.241,0.186,0.649,0.363,0.953c-0.239,0.23,0.318,0.21,0.404,0.464
				c-0.146,0.131,0.085,0.428-0.19,0.481c-0.001-0.211-0.512-0.319-0.365-0.525c-0.188,0.059-0.126-0.41-0.41-0.252
				c0.351,0.5-0.109,0.986,0.274,1.433c-0.511-0.086-0.356,0.469-0.296,0.649l-0.139,0.001c-0.081,0.147-0.119,0.261,0.04,0.512
				c0.018,0.292,0.112,0.575-0.189,0.82c-0.376,0.371,0.222,0.799,0.572,0.923c0.441-0.442-0.334-0.837,0.523-1.149
				c-0.148,0.288,0.034,0.313,0.31,0.526l0.167-0.117l0.11,0.09c0.179-0.049,0.341,0.067,0.526,0.049l-0.006-0.323
				c-0.163,0.175-0.366,0.062-0.561,0.009l0.07-0.173c-0.089,0.039-0.168,0.147-0.278,0.018c0.038-0.07-0.069-0.166,0.061-0.241
				l0.393,0.145c-0.31-0.218,0.463-0.349,0.166-0.568l0.415-0.041l-0.019-0.193l0.142,0.031l0.071-0.224
				c-0.054-0.129-0.241-0.164-0.382-0.198c-0.005-0.099-0.057-0.199,0.035-0.23l0.239,0.136l0.088-0.095
				c-0.089,0.062-0.145-0.101-0.239-0.137c0.08-0.227,0.036-0.163,0.266-0.284c-0.141-0.171,0.18-0.316-0.144-0.369
				c0.222-0.249,0.281-0.54,0.33-0.801l-0.182-0.152c0.291-0.269,0.024-0.467,0.042-0.807l0.09,0.046l-0.213-0.235
				c0.25-0.203-0.199-0.411,0.147-0.633c0.217-0.275-0.084-0.501-0.479-0.717c-0.165-0.209,0.182-0.323,0.246-0.451l0.122,0.131
				l0.196-0.067c-0.017-0.216,0.118-0.188,0.022-0.493c0.282-0.295-0.398-0.445-0.596-0.672l0.505-0.211l-0.091-0.021
				c-0.408-0.351-0.149-0.218-0.014-0.697l-0.27-0.067c0.34-0.062-0.042-0.269,0.045-0.47c0.022-0.106,0.57-0.256,0.303-0.551
				c0.39-0.263-0.32-0.722-0.155-1.016c0.264-0.112-0.14-0.418,0.305-0.288l-0.008,0.035l0.454,0.096l-0.304-0.127
				c0.158-0.066,0.11-0.268,0.484-0.231l-0.456-0.476c0.027,0.084-0.034,0.14-0.096,0.197l0.089,0.027
				c-0.017,0.071-0.016,0.259-0.165,0.29l-0.064-0.132c-0.114,0.079-0.222-0.066-0.258-0.115c0.23-0.159-0.09-0.216-0.091-0.407
				c0.053-0.022,0.115-0.079,0.195-0.017c-0.018-0.12,0.309-0.285,0.007-0.416l0.05-0.002C2.282,286.532,1.701,286.427,1.139,286.37
				z"/>
		</g>
		<g>
			<path fill="#0A032C" d="M10.108,262.217c0.042,0.125,0.115,0.25,0.234,0.374c-0.562,0.321,0.39,0.847,0.047,1.251
				c-0.111,0.415,0.02,0.774-0.315,1.104c0.919,0.423-0.399,0.718,0.131,1.204c0.054,0.233,0.392,0.457,0.598,0.356
				c-0.049,0.285-0.438,0.085-0.345,0.365l-0.299-0.179c-0.103,0.05-0.296,0.079-0.269,0.196l0.292,0.215
				c-0.451,0.153,0.145,0.514-0.177,0.734c0.303-0.113,0.161,0.149,0.433,0.214c-0.142,0.003-0.265,0.159-0.342,0.067
				c-0.18,0.215,0.31,0.63-0.207,0.616l0.115,0.139c0.148,0.221-0.143,0.262-0.26,0.382l0.174,0.08
				c0.071,0.129-0.009,0.295-0.203,0.321c-0.183,0.214,0.11,0.659,0.233,0.989c-0.274,0.191,0.28,0.257,0.321,0.53
				c-0.163,0.108,0.004,0.45-0.28,0.451c0.043-0.213-0.437-0.411-0.26-0.589c-0.194,0.024-0.058-0.425-0.363-0.317
				c0.269,0.553-0.281,0.932-0.01,1.451c-0.479-0.201-0.454,0.365-0.447,0.554l-0.135-0.036c-0.12,0.117-0.187,0.211-0.105,0.495
				c-0.06,0.282-0.078,0.577-0.437,0.702c-0.472,0.204-0.083,0.799,0.19,1.065c0.579-0.251,0.011-0.896,0.915-0.91
				c-0.241,0.234-0.069,0.319,0.098,0.63l0.203-0.056l0.066,0.131c0.187,0.014,0.289,0.194,0.468,0.244l0.125-0.344
				c-0.218,0.129-0.366-0.064-0.529-0.185l0.129-0.153c-0.098,0.011-0.21,0.093-0.269-0.074c0.06-0.058-0.006-0.19,0.144-0.224
				l0.32,0.276c-0.214-0.323,0.571-0.221,0.356-0.545l0.411,0.074l0.046-0.215l0.127,0.072l0.144-0.226
				c-0.014-0.155-0.187-0.239-0.313-0.311c0.022-0.107,0-0.226,0.098-0.239l0.194,0.203l0.113-0.084
				c-0.105,0.048-0.112-0.143-0.194-0.203c0.142-0.227,0.082-0.167,0.337-0.252c-0.098-0.214,0.253-0.312-0.054-0.43
				c0.284-0.229,0.394-0.541,0.496-0.817l-0.152-0.189c0.335-0.255,0.098-0.503,0.168-0.861l0.083,0.058l-0.184-0.271
				c0.273-0.197-0.151-0.45,0.219-0.66c0.241-0.28-0.043-0.535-0.423-0.775c-0.148-0.221,0.201-0.326,0.272-0.458l0.117,0.139
				l0.2-0.065c-0.007-0.226,0.129-0.195,0.044-0.514c0.289-0.307-0.39-0.462-0.586-0.693l0.509-0.22l-0.091-0.02
				c-0.41-0.353-0.151-0.22-0.022-0.711l-0.272-0.06c0.341-0.073-0.049-0.27,0.031-0.475c0.017-0.107,0.563-0.285,0.28-0.569
				c0.374-0.291-0.359-0.705-0.219-1.007c0.255-0.132-0.173-0.405,0.282-0.31l-0.006,0.036l0.461,0.058l-0.313-0.101
				c0.153-0.08,0.089-0.277,0.464-0.275l-0.499-0.433c0.035,0.081-0.021,0.143-0.077,0.205l0.091,0.018
				c-0.01,0.072,0.009,0.26-0.139,0.303l-0.075-0.126c-0.107,0.088-0.227-0.047-0.267-0.092c0.213-0.177-0.111-0.206-0.13-0.394
				c0.051-0.026,0.107-0.088,0.192-0.035c-0.03-0.116,0.28-0.311-0.034-0.41l0.049-0.007
				C11.26,262.273,10.671,262.225,10.108,262.217z"/>
		</g>
		<g>
			<path fill="#0A032C" d="M15.256,237.111c0.061,0.117,0.153,0.229,0.29,0.333c-0.505,0.405,0.517,0.776,0.242,1.228
				c-0.045,0.428,0.141,0.762-0.139,1.139c0.973,0.275-0.283,0.772,0.317,1.169c0.09,0.222,0.459,0.39,0.646,0.259
				c-0.004,0.289-0.419,0.152-0.284,0.414l-0.323-0.13c-0.094,0.065-0.28,0.125-0.235,0.236l0.322,0.167
				c-0.421,0.222,0.224,0.485-0.06,0.753c0.282-0.159,0.183,0.122,0.461,0.144c-0.14,0.025-0.237,0.199-0.328,0.119
				c-0.145,0.241,0.405,0.574-0.108,0.641l0.136,0.119c0.18,0.196-0.1,0.281-0.197,0.418l0.184,0.052
				c0.09,0.116,0.037,0.293-0.15,0.349c-0.147,0.24,0.212,0.634,0.385,0.94c-0.241,0.231,0.317,0.21,0.4,0.473
				c-0.144,0.132,0.074,0.444-0.206,0.49c0.009-0.217-0.496-0.338-0.349-0.542c-0.188,0.054-0.124-0.41-0.408-0.256
				c0.352,0.504-0.131,0.965,0.217,1.435c-0.505-0.123-0.391,0.432-0.355,0.617l-0.139-0.015c-0.1,0.134-0.151,0.238-0.026,0.505
				c-0.015,0.288,0.013,0.582-0.322,0.762c-0.434,0.276,0.044,0.802,0.355,1.022c0.532-0.338-0.13-0.887,0.761-1.042
				c-0.202,0.269-0.018,0.326,0.196,0.607l0.191-0.088l0.085,0.119c0.187-0.015,0.316,0.146,0.501,0.167l0.069-0.359
				c-0.195,0.162-0.371-0.005-0.552-0.099l0.103-0.171c-0.095,0.026-0.193,0.125-0.277-0.031c0.05-0.067-0.036-0.186,0.107-0.244
				l0.359,0.222c-0.262-0.285,0.53-0.308,0.266-0.594l0.418,0.008l0.012-0.219l0.136,0.051l0.107-0.246
				c-0.038-0.151-0.222-0.207-0.358-0.258c0.005-0.11-0.035-0.224,0.059-0.251l0.223,0.17l0.098-0.1
				c-0.096,0.063-0.133-0.124-0.224-0.17c0.104-0.247,0.055-0.178,0.293-0.301c-0.13-0.196,0.201-0.348-0.12-0.416
				c0.244-0.27,0.304-0.596,0.362-0.884l-0.179-0.163c0.291-0.304,0.018-0.512,0.031-0.877l0.091,0.044l-0.224-0.239
				c0.239-0.237-0.22-0.42,0.113-0.686c0.194-0.314-0.126-0.522-0.539-0.699c-0.181-0.195,0.148-0.353,0.197-0.495l0.137,0.119
				l0.187-0.095c-0.042-0.222,0.097-0.212-0.037-0.514c0.238-0.349-0.458-0.396-0.687-0.593l0.468-0.296l-0.093-0.006
				c-0.46-0.285-0.183-0.193-0.132-0.699l-0.278-0.017c0.326-0.125-0.09-0.259-0.043-0.474c0-0.108,0.512-0.37,0.188-0.605
				c0.324-0.346-0.464-0.64-0.373-0.96c0.231-0.17-0.234-0.373,0.23-0.35l0,0.036l0.464-0.014l-0.325-0.051
				c0.139-0.102,0.045-0.287,0.415-0.344l-0.56-0.35c0.047,0.074,0.002,0.145-0.044,0.215l0.093,0.004
				c0.001,0.073,0.049,0.255-0.09,0.321l-0.094-0.113c-0.092,0.104-0.232-0.011-0.278-0.049c0.183-0.208-0.141-0.187-0.19-0.369
				c0.046-0.034,0.092-0.104,0.185-0.064c-0.048-0.11,0.228-0.351-0.097-0.4l0.048-0.015
				C16.403,236.988,15.814,237.032,15.256,237.111z"/>
		</g>
		<g>
			<path fill="#0A032C" d="M16.44,211.509c0.078,0.106,0.187,0.202,0.338,0.284c-0.436,0.478,0.632,0.686,0.43,1.175
				c0.022,0.429,0.258,0.73,0.04,1.147c1.004,0.12-0.159,0.806,0.495,1.105c0.123,0.205,0.514,0.314,0.678,0.155
				c0.041,0.286-0.391,0.215-0.216,0.453l-0.339-0.078c-0.082,0.079-0.257,0.167-0.196,0.269l0.344,0.115
				c-0.382,0.284,0.297,0.444,0.058,0.753c0.254-0.201,0.199,0.092,0.477,0.07c-0.134,0.047-0.203,0.233-0.305,0.169
				c-0.105,0.26,0.489,0.504-0.007,0.65l0.153,0.097c0.209,0.165-0.055,0.293-0.129,0.443l0.19,0.023
				c0.107,0.1,0.082,0.283-0.094,0.368c-0.108,0.26,0.308,0.593,0.527,0.869c-0.202,0.266,0.346,0.158,0.468,0.405
				c-0.122,0.152,0.142,0.427-0.128,0.516c-0.024-0.216-0.542-0.257-0.429-0.481c-0.177,0.083-0.186-0.386-0.443-0.189
				c0.426,0.443,0.02,0.973,0.437,1.384c-0.518-0.044-0.319,0.487-0.255,0.664l-0.139,0.007c-0.078,0.148-0.113,0.258,0.053,0.503
				c0.03,0.287,0.104,0.573-0.199,0.803c-0.386,0.34,0.168,0.786,0.51,0.954c0.473-0.417-0.266-0.856,0.59-1.148
				c-0.157,0.297,0.033,0.325,0.288,0.569l0.176-0.116l0.103,0.105c0.182-0.044,0.335,0.095,0.521,0.088l0.012-0.366
				c-0.168,0.19-0.368,0.052-0.56-0.012l0.075-0.185c-0.09,0.04-0.171,0.153-0.278,0.012c0.039-0.074-0.064-0.178,0.068-0.257
				l0.389,0.164c-0.303-0.241,0.475-0.387,0.17-0.628l0.414-0.056l-0.022-0.219l0.143,0.029l0.067-0.26
				c-0.061-0.143-0.251-0.17-0.394-0.199c-0.012-0.109-0.07-0.215,0.019-0.257l0.247,0.133l0.081-0.115
				c-0.085,0.078-0.151-0.102-0.247-0.133c0.065-0.26,0.026-0.184,0.243-0.343c-0.159-0.174,0.145-0.375-0.184-0.392
				c0.199-0.305,0.208-0.636,0.22-0.93l-0.203-0.133c0.24-0.346-0.061-0.509-0.105-0.871l0.097,0.03l-0.258-0.201
				c0.199-0.271-0.282-0.381,0.005-0.695c0.143-0.34-0.206-0.496-0.642-0.607c-0.209-0.165,0.091-0.372,0.117-0.52l0.154,0.097
				l0.17-0.123c-0.076-0.213,0.063-0.225-0.116-0.502c0.181-0.381-0.514-0.32-0.771-0.479l0.417-0.366l-0.093,0.009
				c-0.499-0.21-0.211-0.163-0.24-0.67l-0.277,0.027c0.302-0.175-0.13-0.242-0.117-0.462c-0.017-0.107,0.448-0.445,0.091-0.627
				c0.266-0.392-0.558-0.56-0.518-0.891c0.202-0.203-0.289-0.332,0.173-0.382l0.006,0.036l0.456-0.086l-0.329,0
				c0.121-0.123,0-0.291,0.357-0.404l-0.608-0.259c0.058,0.066,0.024,0.142-0.01,0.219l0.092-0.01
				c0.012,0.072,0.089,0.245-0.038,0.331l-0.11-0.097c-0.075,0.117-0.231,0.026-0.283-0.005c0.148-0.234-0.169-0.162-0.245-0.335
				c0.04-0.041,0.074-0.117,0.172-0.092c-0.064-0.101,0.17-0.382-0.158-0.38l0.045-0.022
				C17.553,211.208,16.979,211.344,16.44,211.509z"/>
		</g>
		<g>
			<path fill="#0A032C" d="M14.155,185.515c0.072,0.117,0.177,0.226,0.324,0.32c-0.454,0.497,0.608,0.747,0.405,1.254
				c0.024,0.454,0.265,0.762,0.066,1.209c1.006,0.077-0.114,0.858,0.567,1.125c0.143,0.203,0.542,0.275,0.691,0.099
				c0.068,0.284-0.368,0.256-0.169,0.48l-0.346-0.044c-0.073,0.09-0.238,0.2-0.164,0.3l0.356,0.077
				c-0.342,0.341,0.351,0.414,0.163,0.76c0.219-0.241,0.211,0.063,0.483-0.002c-0.124,0.068-0.166,0.264-0.276,0.216
				c-0.068,0.274,0.552,0.422,0.083,0.645l0.165,0.072c0.23,0.13-0.013,0.299-0.065,0.459l0.191-0.008
				c0.12,0.083,0.123,0.267-0.039,0.379c-0.068,0.274,0.391,0.538,0.65,0.775c-0.159,0.295,0.365,0.102,0.524,0.326
				c-0.097,0.17,0.207,0.399-0.045,0.529c-0.058-0.21-0.576-0.168-0.498-0.407c-0.162,0.11-0.243-0.352-0.466-0.117
				c0.489,0.371,0.171,0.958,0.65,1.297c-0.518,0.039-0.237,0.531-0.143,0.696l-0.137,0.029c-0.052,0.158-0.068,0.272,0.136,0.488
				c0.078,0.278,0.201,0.548-0.059,0.823c-0.322,0.396,0.304,0.747,0.671,0.86c0.394-0.485-0.415-0.801,0.381-1.223
				c-0.104,0.318,0.088,0.315,0.383,0.516l0.153-0.142l0.12,0.087c0.172-0.072,0.348,0.041,0.529,0.004l-0.052-0.362
				c-0.133,0.214-0.354,0.109-0.555,0.076l0.042-0.195c-0.081,0.054-0.143,0.178-0.273,0.056c0.026-0.079-0.094-0.166,0.023-0.264
				l0.412,0.1c-0.341-0.19,0.402-0.456,0.061-0.646l0.399-0.121l-0.058-0.212l0.146,0.006l0.023-0.267
				c-0.085-0.132-0.276-0.128-0.422-0.134c-0.029-0.106-0.104-0.202-0.023-0.257l0.266,0.093l0.062-0.126
				c-0.071,0.09-0.165-0.076-0.266-0.092c0.022-0.267-0.004-0.186,0.184-0.377c-0.185-0.146,0.084-0.393-0.243-0.358
				c0.148-0.333,0.106-0.661,0.073-0.954l-0.22-0.099c0.184-0.379-0.136-0.493-0.234-0.845l0.1,0.014l-0.285-0.158
				c0.158-0.3-0.333-0.332-0.095-0.689c0.093-0.36-0.272-0.458-0.718-0.499c-0.229-0.131,0.035-0.368,0.042-0.512l0.165,0.069
				l0.152-0.139c-0.102-0.189,0.032-0.217-0.176-0.454c0.137-0.378-0.544-0.244-0.817-0.372l0.381-0.391l-0.091,0.016
				c-0.513-0.16-0.226-0.14-0.286-0.63l-0.275,0.043c0.29-0.189-0.144-0.23-0.141-0.448c-0.021-0.107,0.431-0.452,0.071-0.622
				c0.259-0.387-0.565-0.548-0.522-0.883c0.205-0.2-0.283-0.339,0.179-0.379l0.005,0.036l0.458-0.074l-0.329-0.008
				c0.125-0.118,0.007-0.289,0.369-0.387l-0.596-0.282c0.055,0.069,0.018,0.143-0.02,0.219l0.092-0.007
				c0.009,0.072,0.079,0.247-0.05,0.329l-0.107-0.1c-0.078,0.115-0.231,0.018-0.282-0.015c0.156-0.231-0.162-0.17-0.231-0.35
				c0.042-0.04,0.079-0.115,0.176-0.086c-0.059-0.106,0.191-0.376-0.138-0.394l0.046-0.02
				C15.284,185.262,14.702,185.367,14.155,185.515z"/>
		</g>
		<g>
			<path fill="#0A032C" d="M18.644,159.652c0.059,0.116,0.148,0.228,0.283,0.334c-0.514,0.381,0.497,0.779,0.207,1.218
				c-0.059,0.421,0.114,0.76-0.181,1.122c0.962,0.315-0.316,0.753,0.265,1.176c0.079,0.225,0.439,0.411,0.633,0.289
				c-0.018,0.288-0.426,0.131-0.303,0.399l-0.316-0.146c-0.097,0.06-0.285,0.11-0.246,0.223l0.313,0.182
				c-0.432,0.2,0.2,0.495-0.098,0.748c0.29-0.144,0.176,0.131,0.453,0.167c-0.141,0.018-0.246,0.186-0.333,0.103
				c-0.156,0.233,0.375,0.594-0.141,0.635l0.13,0.126c0.17,0.205-0.114,0.276-0.218,0.407l0.181,0.061
				c0.084,0.12,0.023,0.294-0.168,0.341c-0.159,0.233,0.18,0.644,0.339,0.958c-0.251,0.22,0.307,0.225,0.377,0.491
				c-0.15,0.125,0.055,0.446-0.228,0.479c0.019-0.216-0.481-0.359-0.324-0.556c-0.19,0.046-0.104-0.416-0.396-0.275
				c0.328,0.52-0.176,0.959,0.154,1.444c-0.499-0.144-0.409,0.416-0.378,0.603l-0.138-0.02c-0.104,0.131-0.16,0.233-0.044,0.505
				c-0.025,0.288-0.004,0.583-0.344,0.754c-0.442,0.267,0.025,0.807,0.332,1.03c0.539-0.326-0.112-0.89,0.784-1.02
				c-0.209,0.262-0.028,0.324,0.181,0.608l0.193-0.082l0.083,0.12c0.187-0.01,0.313,0.153,0.497,0.178l0.076-0.352
				c-0.199,0.154-0.371-0.016-0.549-0.114l0.107-0.167c-0.095,0.023-0.196,0.118-0.276-0.039c0.052-0.065-0.031-0.186,0.114-0.238
				l0.353,0.231c-0.254-0.29,0.536-0.287,0.282-0.578l0.417,0.023l0.019-0.216l0.135,0.055l0.114-0.238
				c-0.034-0.15-0.214-0.213-0.349-0.269c0.009-0.108-0.027-0.223,0.068-0.246l0.217,0.177l0.102-0.095
				c-0.098,0.059-0.128-0.128-0.217-0.177c0.114-0.239,0.061-0.174,0.304-0.285c-0.122-0.2,0.216-0.335-0.103-0.417
				c0.255-0.257,0.329-0.576,0.4-0.859l-0.172-0.17c0.304-0.287,0.043-0.508,0.073-0.87l0.089,0.049l-0.212-0.249
				c0.251-0.224-0.198-0.43,0.147-0.679c0.21-0.303-0.099-0.528-0.503-0.726c-0.171-0.205,0.166-0.345,0.222-0.485l0.131,0.126
				l0.192-0.086c-0.031-0.225,0.108-0.208-0.01-0.516c0.255-0.337-0.438-0.419-0.657-0.627l0.482-0.274l-0.092-0.01
				c-0.446-0.307-0.174-0.202-0.099-0.707l-0.277-0.029c0.331-0.111-0.078-0.264-0.022-0.476c0.005-0.108,0.527-0.349,0.213-0.598
				c0.336-0.335-0.44-0.658-0.338-0.974c0.236-0.162-0.223-0.379,0.24-0.343l-0.001,0.036l0.464,0l-0.324-0.061
				c0.142-0.099,0.054-0.286,0.425-0.333l-0.552-0.365c0.046,0.075-0.002,0.145-0.049,0.214l0.092,0.006
				c0,0.073,0.043,0.257-0.098,0.319l-0.09-0.115c-0.095,0.101-0.232-0.017-0.277-0.057c0.188-0.203-0.137-0.19-0.181-0.372
				c0.047-0.033,0.094-0.101,0.186-0.059c-0.045-0.11,0.236-0.344-0.088-0.4l0.048-0.014
				C19.793,159.557,19.204,159.588,18.644,159.652z"/>
		</g>
		<g>
			<path fill="#0A032C" d="M31.091,136.661c-0.041,0.118-0.057,0.258-0.044,0.427c-0.613-0.138-0.233,0.88-0.754,0.951
				c-0.354,0.233-0.496,0.586-0.969,0.612c0.405,0.925-0.788,0.278-0.716,1.002c-0.116,0.216-0.004,0.605,0.22,0.661
				c-0.223,0.186-0.392-0.216-0.504,0.061l-0.113-0.329c-0.113-0.026-0.284-0.125-0.34-0.016l0.087,0.354
				c-0.457-0.155-0.218,0.497-0.612,0.484c0.315,0.089,0.037,0.218,0.216,0.432c-0.116-0.083-0.312-0.029-0.318-0.149
				c-0.281,0.079-0.121,0.695-0.54,0.398l0.017,0.182c0,0.27-0.27,0.141-0.436,0.189l0.105,0.16
				c-0.009,0.148-0.163,0.251-0.347,0.177c-0.272,0.106-0.24,0.641-0.261,0.99c-0.327,0.054,0.141,0.347,0.08,0.602
				c-0.189,0.028-0.15,0.396-0.41,0.292c0.108-0.174-0.263-0.538-0.03-0.634c-0.192-0.054,0.122-0.413-0.204-0.438
				c0.016,0.614-0.633,0.785-0.528,1.37c-0.401-0.333-0.545,0.233-0.575,0.421l-0.123-0.066c-0.145,0.089-0.235,0.173-0.211,0.472
				c-0.116,0.272-0.174,0.559-0.548,0.645c-0.504,0.164-0.167,0.815,0.096,1.084c0.582-0.2,0.081-0.898,0.979-0.785
				c-0.262,0.186-0.104,0.294,0.041,0.604l0.203-0.027l0.057,0.129c0.182,0.038,0.273,0.213,0.446,0.28l0.138-0.283
				c-0.22,0.078-0.353-0.112-0.503-0.247l0.138-0.119c-0.097-0.007-0.213,0.052-0.256-0.111c0.065-0.043,0.014-0.176,0.164-0.181
				l0.284,0.306c-0.176-0.332,0.571-0.082,0.4-0.407l0.383,0.162l0.07-0.168l0.111,0.094l0.164-0.146
				c0.007-0.132-0.139-0.251-0.247-0.35c0.038-0.084,0.04-0.191,0.133-0.169l0.145,0.229l0.119-0.032
				c-0.105,0.005-0.079-0.153-0.144-0.23c0.174-0.138,0.109-0.111,0.357-0.087c-0.044-0.21,0.294-0.15,0.046-0.364
				c0.309-0.07,0.48-0.261,0.655-0.421l-0.072-0.219c0.365-0.033,0.251-0.338,0.453-0.581l0.045,0.089l-0.04-0.308
				c0.301-0.002,0.08-0.433,0.475-0.385c0.327-0.071,0.231-0.43,0.06-0.848c0.006-0.26,0.341-0.129,0.469-0.185l0.013,0.178
				l0.19,0.075c0.124-0.174,0.21-0.064,0.329-0.357c0.402-0.043-0.019-0.596-0.024-0.898l0.523,0.166l-0.056-0.074
				c-0.084-0.533,0.025-0.264,0.442-0.545l-0.164-0.225c0.303,0.172,0.141-0.235,0.337-0.334c0.084-0.068,0.609,0.163,0.587-0.237
				c0.473,0.034,0.204-0.765,0.508-0.897c0.278,0.07,0.136-0.417,0.417-0.047l-0.028,0.023l0.309,0.347l-0.17-0.282
				c0.168,0.039,0.249-0.153,0.534,0.092l-0.099-0.654c-0.025,0.085-0.107,0.097-0.191,0.107l0.057,0.073
				c-0.055,0.048-0.164,0.203-0.303,0.14l0.025-0.145c-0.138-0.003-0.142-0.184-0.143-0.244c0.276,0.006,0.05-0.227,0.154-0.381
				c0.055,0.013,0.136,0.002,0.168,0.098c0.049-0.107,0.41-0.058,0.231-0.333l0.043,0.026
				C31.93,137.447,31.509,137.034,31.091,136.661z"/>
		</g>
		<g>
			<path fill="#0A032C" d="M45.719,116.648c0.01,0.131,0.05,0.27,0.135,0.419c-0.629,0.179,0.17,0.914-0.263,1.225
				c-0.209,0.378-0.167,0.757-0.572,1.001c0.796,0.621-0.558,0.609-0.153,1.203c0,0.24,0.279,0.534,0.502,0.482
				c-0.112,0.267-0.446-0.016-0.419,0.278l-0.251-0.241c-0.112,0.026-0.307,0.012-0.307,0.131l0.237,0.275
				c-0.474,0.05,0.027,0.534-0.335,0.678c0.32-0.044,0.125,0.181,0.375,0.304c-0.139-0.028-0.293,0.098-0.348-0.009
				c-0.223,0.172,0.165,0.683-0.335,0.558l0.083,0.161c0.097,0.249-0.195,0.226-0.335,0.318l0.152,0.115
				c0.041,0.141-0.07,0.287-0.265,0.271c-0.223,0.172-0.03,0.67,0.023,1.019c-0.306,0.13,0.221,0.311,0.205,0.586
				c-0.181,0.071-0.085,0.443-0.364,0.384c0.087-0.199-0.344-0.494-0.134-0.632c-0.194-0.016,0.03-0.429-0.29-0.386
				c0.153,0.601-0.467,0.855-0.312,1.418c-0.427-0.296-0.521,0.261-0.553,0.448l-0.124-0.064c-0.141,0.09-0.226,0.168-0.205,0.463
				c-0.117,0.264-0.193,0.55-0.569,0.599c-0.502,0.103-0.239,0.769-0.026,1.087c0.614-0.128,0.187-0.88,1.073-0.706
				c-0.283,0.18-0.132,0.299-0.03,0.639l0.209-0.014l0.038,0.143c0.18,0.053,0.244,0.25,0.408,0.336l0.19-0.313
				c-0.239,0.081-0.344-0.138-0.479-0.29l0.156-0.124c-0.098-0.009-0.224,0.048-0.247-0.128c0.071-0.045,0.032-0.187,0.186-0.19
				l0.256,0.337c-0.144-0.361,0.602-0.1,0.458-0.461l0.387,0.158l0.089-0.201l0.109,0.096l0.187-0.192
				c0.018-0.155-0.133-0.272-0.242-0.369c0.044-0.1,0.048-0.221,0.146-0.213l0.147,0.239l0.128-0.058
				c-0.112,0.025-0.08-0.163-0.148-0.238c0.186-0.192,0.115-0.146,0.382-0.176c-0.05-0.229,0.315-0.251,0.039-0.43
				c0.325-0.164,0.491-0.446,0.647-0.694l-0.11-0.216c0.377-0.178,0.198-0.469,0.34-0.804l0.069,0.074l-0.123-0.303
				c0.307-0.132-0.053-0.471,0.352-0.595c0.294-0.219,0.072-0.529-0.247-0.847c-0.097-0.248,0.266-0.273,0.364-0.386l0.083,0.161
				l0.209-0.019c0.043-0.221,0.168-0.16,0.156-0.489c0.35-0.233-0.277-0.536-0.417-0.804l0.545-0.099l-0.084-0.04
				c-0.32-0.435-0.097-0.247,0.142-0.695l-0.251-0.12c0.35,0.007,0.015-0.274,0.141-0.453c0.042-0.099,0.616-0.146,0.407-0.486
				c0.434-0.194-0.182-0.766,0.028-1.025c0.28-0.067-0.07-0.432,0.35-0.233l-0.014,0.033l0.435,0.165l-0.281-0.172
				c0.169-0.041,0.154-0.247,0.519-0.155l-0.379-0.537c0.014,0.086-0.056,0.133-0.126,0.18l0.084,0.039
				c-0.028,0.067-0.056,0.253-0.21,0.26l-0.042-0.139c-0.126,0.06-0.21-0.099-0.238-0.152c0.252-0.12-0.057-0.225-0.029-0.412
				c0.056-0.013,0.126-0.06,0.196,0.012c0-0.119,0.35-0.234,0.069-0.404l0.05,0.005C46.829,116.977,46.267,116.79,45.719,116.648z"
				/>
		</g>
		<g>
			<path fill="#0A032C" d="M56.251,93.503c0.042,0.123,0.115,0.247,0.233,0.371c-0.562,0.307,0.384,0.842,0.035,1.236
				c-0.117,0.408,0.007,0.767-0.336,1.084c0.908,0.448-0.418,0.698,0.097,1.199c0.046,0.233,0.375,0.47,0.585,0.377
				c-0.059,0.282-0.441,0.068-0.358,0.35l-0.292-0.19c-0.105,0.045-0.298,0.067-0.276,0.184l0.283,0.226
				c-0.457,0.132,0.125,0.518-0.207,0.723c0.308-0.098,0.154,0.156,0.422,0.233c-0.142-0.003-0.272,0.146-0.345,0.05
				c-0.19,0.205,0.28,0.644-0.236,0.604l0.108,0.145c0.136,0.229-0.156,0.254-0.279,0.367l0.169,0.089
				c0.064,0.132-0.025,0.294-0.22,0.309c-0.194,0.203,0.073,0.664,0.176,1c-0.285,0.174,0.264,0.274,0.288,0.549
				c-0.169,0.098-0.025,0.451-0.309,0.434c0.057-0.21-0.41-0.439-0.221-0.605c-0.195,0.012-0.032-0.428-0.343-0.338
				c0.234,0.568-0.338,0.912-0.103,1.447c-0.465-0.233-0.476,0.333-0.484,0.522l-0.132-0.046c-0.128,0.108-0.201,0.197-0.139,0.486
				c-0.08,0.277-0.12,0.57-0.487,0.668c-0.486,0.168-0.142,0.79,0.11,1.077c0.596-0.207,0.079-0.893,0.981-0.84
				c-0.258,0.217-0.093,0.314,0.051,0.637l0.207-0.041l0.055,0.136c0.186,0.028,0.274,0.216,0.448,0.279l0.151-0.336
				c-0.228,0.113-0.36-0.09-0.514-0.223l0.14-0.144c-0.098,0.004-0.217,0.078-0.263-0.094c0.065-0.054,0.008-0.19,0.16-0.214
				l0.298,0.299c-0.19-0.338,0.588-0.181,0.396-0.521l0.405,0.102l0.062-0.213l0.121,0.081l0.16-0.218
				c-0.003-0.157-0.169-0.252-0.291-0.333c0.03-0.107,0.016-0.227,0.114-0.233l0.18,0.217l0.118-0.077
				c-0.108,0.041-0.102-0.151-0.18-0.216c0.158-0.219,0.094-0.163,0.354-0.231c-0.083-0.222,0.274-0.298-0.025-0.435
				c0.299-0.213,0.43-0.52,0.549-0.793l-0.14-0.199c0.352-0.237,0.129-0.501,0.22-0.858l0.08,0.063l-0.168-0.282
				c0.284-0.184-0.126-0.46,0.255-0.654c0.257-0.27-0.015-0.541-0.383-0.799c-0.137-0.229,0.218-0.318,0.294-0.449l0.11,0.145
				l0.203-0.057c0.003-0.228,0.138-0.191,0.068-0.516c0.303-0.298-0.371-0.48-0.557-0.719l0.517-0.203l-0.09-0.023
				c-0.396-0.368-0.143-0.226,0.003-0.716l-0.27-0.068c0.344-0.063-0.039-0.272,0.046-0.475c0.02-0.106,0.571-0.272,0.296-0.563
				c0.38-0.285-0.343-0.714-0.199-1.012c0.256-0.128-0.168-0.407,0.286-0.306l-0.006,0.036l0.46,0.064l-0.312-0.105
				c0.154-0.078,0.094-0.276,0.467-0.271l-0.496-0.438c0.035,0.081-0.022,0.143-0.078,0.205l0.091,0.019
				c-0.011,0.072,0.007,0.261-0.142,0.302l-0.073-0.127c-0.108,0.087-0.227-0.049-0.266-0.094c0.215-0.175-0.109-0.207-0.127-0.394
				c0.051-0.026,0.107-0.087,0.192-0.033c-0.029-0.116,0.282-0.308-0.031-0.409l0.049-0.007
				C57.402,93.569,56.813,93.518,56.251,93.503z"/>
		</g>
		<g>
			<path fill="#0A032C" d="M57.241,68.889c0.095,0.092,0.219,0.171,0.382,0.228c-0.349,0.545,0.741,0.578,0.628,1.095
				c0.098,0.421,0.384,0.679,0.246,1.127c1.016-0.044-0.019,0.808,0.669,0.993c0.153,0.179,0.556,0.229,0.694,0.048
				c0.085,0.275-0.353,0.269-0.148,0.476l-0.346-0.028c-0.071,0.089-0.232,0.199-0.157,0.29l0.357,0.064
				c-0.34,0.328,0.352,0.395,0.155,0.729c0.227-0.229,0.209,0.066,0.482,0.01c-0.128,0.063-0.174,0.254-0.283,0.204
				c-0.072,0.267,0.544,0.442,0.066,0.641l0.162,0.079c0.226,0.141-0.024,0.296-0.084,0.451l0.191,0.004
				c0.115,0.089,0.11,0.273-0.058,0.373c-0.086,0.267,0.359,0.56,0.597,0.82c-0.181,0.281,0.358,0.132,0.497,0.373
				c-0.112,0.162,0.171,0.422-0.093,0.528c-0.039-0.216-0.559-0.223-0.46-0.454c-0.17,0.094-0.212-0.372-0.455-0.157
				c0.457,0.411,0.083,0.964,0.52,1.351c-0.52-0.018-0.296,0.499-0.226,0.675l-0.139,0.012c-0.073,0.15-0.103,0.26,0.069,0.499
				c0.036,0.285,0.12,0.57-0.182,0.803c-0.379,0.342,0.175,0.778,0.518,0.949c0.473-0.422-0.273-0.853,0.578-1.162
				c-0.153,0.304,0.036,0.327,0.296,0.572l0.173-0.12l0.105,0.105c0.182-0.047,0.337,0.094,0.521,0.084l0.007-0.377
				c-0.166,0.198-0.367,0.059-0.561-0.003l0.073-0.191c-0.089,0.043-0.169,0.159-0.278,0.018c0.039-0.076-0.067-0.18,0.063-0.263
				l0.393,0.159c-0.309-0.239,0.464-0.409,0.155-0.649l0.412-0.071l-0.03-0.225l0.144,0.025l0.058-0.271
				c-0.066-0.146-0.258-0.165-0.402-0.189c-0.017-0.112-0.079-0.219,0.008-0.265l0.253,0.126l0.076-0.122
				c-0.081,0.084-0.155-0.098-0.253-0.125c0.053-0.271,0.017-0.191,0.224-0.367c-0.169-0.171,0.124-0.396-0.205-0.394
				c0.177-0.327,0.166-0.671,0.153-0.975l-0.212-0.122c0.211-0.376-0.104-0.52-0.182-0.888l0.1,0.021l-0.278-0.182
				c0.172-0.298-0.318-0.361-0.068-0.713c0.106-0.365-0.262-0.484-0.708-0.545c-0.227-0.141,0.045-0.387,0.051-0.54l0.165,0.078
				l0.152-0.147c-0.105-0.207,0.034-0.238-0.184-0.495c0.124-0.413-0.555-0.252-0.831-0.373l0.355-0.429l-0.09,0.023
				c-0.526-0.133-0.231-0.13-0.344-0.634l-0.269,0.072c0.269-0.224-0.167-0.22-0.195-0.437c-0.036-0.102,0.361-0.512-0.023-0.631
				c0.194-0.429-0.65-0.459-0.668-0.791c0.164-0.233-0.343-0.28,0.105-0.404l0.012,0.034l0.435-0.159l-0.325,0.053
				c0.099-0.14-0.051-0.286,0.283-0.455l-0.644-0.158c0.069,0.056,0.048,0.137,0.027,0.218l0.089-0.025
				c0.024,0.069,0.128,0.227,0.018,0.333l-0.125-0.078c-0.054,0.127-0.223,0.062-0.28,0.041c0.107-0.255-0.194-0.133-0.298-0.292
				c0.033-0.047,0.054-0.127,0.155-0.119c-0.08-0.09,0.104-0.404-0.22-0.35l0.041-0.029C58.29,68.414,57.745,68.639,57.241,68.889z"
				/>
		</g>
		<g>
			<path fill="#0A032C" d="M69.082,45.11c-0.021,0.133-0.014,0.28,0.034,0.447c-0.649,0.037-0.043,0.945-0.531,1.157
				c-0.288,0.328-0.331,0.711-0.778,0.864c0.637,0.785-0.678,0.48-0.414,1.152c-0.053,0.236,0.156,0.584,0.385,0.581
				c-0.166,0.237-0.432-0.111-0.469,0.183l-0.193-0.29c-0.115,0.001-0.302-0.054-0.329,0.064l0.172,0.32
				c-0.474-0.051-0.088,0.529-0.474,0.594c0.323,0.024,0.084,0.203,0.303,0.376c-0.13-0.057-0.308,0.034-0.339-0.082
				c-0.255,0.122,0.018,0.701-0.448,0.476l0.048,0.174c0.043,0.262-0.239,0.18-0.396,0.241l0.126,0.144
				c0.011,0.146-0.129,0.265-0.318,0.21c-0.256,0.122-0.17,0.645-0.188,0.995c-0.329,0.065,0.154,0.346,0.083,0.609
				c-0.193,0.033-0.175,0.411-0.437,0.299c0.124-0.177-0.24-0.547-0.005-0.64c-0.189-0.055,0.118-0.41-0.207-0.433
				c0.025,0.611-0.634,0.742-0.588,1.322c-0.368-0.373-0.559,0.166-0.62,0.347l-0.112-0.084c-0.154,0.066-0.251,0.131-0.278,0.427
				c-0.159,0.244-0.278,0.512-0.663,0.507c-0.522,0.034-0.361,0.724-0.188,1.056c0.635-0.038,0.319-0.831,1.176-0.53
				c-0.306,0.131-0.175,0.27-0.119,0.611l0.21,0.018l0.019,0.142c0.171,0.078,0.21,0.276,0.362,0.382l0.227-0.265
				c-0.246,0.038-0.323-0.186-0.435-0.353l0.171-0.094c-0.095-0.025-0.228,0.01-0.227-0.163c0.076-0.032,0.058-0.175,0.21-0.153
				l0.206,0.365c-0.092-0.37,0.603,0.006,0.51-0.364l0.354,0.22l0.113-0.176l0.093,0.112l0.205-0.148
				c0.038-0.145-0.091-0.286-0.183-0.4c0.057-0.088,0.076-0.205,0.171-0.178l0.107,0.259l0.131-0.031
				c-0.114,0.002-0.049-0.173-0.102-0.259c0.218-0.15,0.14-0.119,0.406-0.095c-0.008-0.232,0.354-0.18,0.116-0.408
				c0.349-0.094,0.571-0.33,0.773-0.536l-0.065-0.231c0.406-0.094,0.289-0.411,0.495-0.706l0.053,0.086l-0.059-0.319
				c0.328-0.063,0.044-0.467,0.466-0.502c0.332-0.15,0.179-0.498-0.067-0.874c-0.043-0.262,0.317-0.209,0.436-0.298l0.048,0.174
				l0.208,0.027c0.088-0.206,0.197-0.119,0.253-0.442c0.389-0.151-0.158-0.582-0.236-0.874l0.551,0.022L68.76,50.09
				c-0.219-0.495-0.042-0.263,0.285-0.648l-0.218-0.173c0.338,0.084,0.073-0.265,0.234-0.414c0.062-0.089,0.628-0.007,0.499-0.387
				c0.461-0.093-0.009-0.793,0.251-1.002c0.285-0.003,0.028-0.442,0.389-0.151l-0.021,0.029l0.382,0.262l-0.233-0.233
				c0.171-0.001,0.203-0.208,0.533-0.034l-0.246-0.617c-0.006,0.089-0.083,0.118-0.161,0.149l0.072,0.058
				c-0.042,0.06-0.109,0.237-0.259,0.209l-0.01-0.147c-0.134,0.031-0.181-0.146-0.196-0.204c0.269-0.062-0.004-0.236,0.064-0.413
				c0.057-0.001,0.135-0.03,0.186,0.057c0.027-0.118,0.389-0.151,0.157-0.384l0.047,0.016C70.076,45.688,69.578,45.374,69.082,45.11
				z"/>
		</g>
		<g>
			<path fill="#0A032C" d="M87.851,26.883c-0.03,0.131-0.034,0.279,0.001,0.449c-0.649-0.01-0.112,0.942-0.613,1.117
				c-0.31,0.307-0.381,0.686-0.838,0.807c0.577,0.831-0.71,0.43-0.497,1.121c-0.07,0.232,0.112,0.595,0.34,0.609
				c-0.183,0.225-0.422-0.143-0.48,0.148l-0.171-0.304c-0.114-0.007-0.297-0.076-0.332,0.04l0.148,0.332
				c-0.469-0.085-0.126,0.522-0.515,0.559c0.32,0.048,0.068,0.209,0.274,0.398c-0.126-0.066-0.309,0.012-0.332-0.107
				c-0.263,0.103-0.034,0.702-0.48,0.442l0.035,0.178c0.023,0.265-0.252,0.162-0.412,0.212l0.115,0.153
				c0,0.146-0.148,0.255-0.332,0.187c-0.264,0.103-0.216,0.633-0.26,0.981c-0.332,0.04,0.128,0.357,0.038,0.615
				c-0.195,0.019-0.204,0.398-0.457,0.267c0.137-0.167-0.199-0.564,0.042-0.64c-0.184-0.068,0.147-0.401-0.174-0.448
				c-0.02,0.613-0.686,0.695-0.682,1.278c-0.336-0.396-0.574,0.117-0.654,0.288l-0.104-0.093c-0.161,0.05-0.264,0.104-0.319,0.392
				c-0.182,0.224-0.33,0.478-0.711,0.431c-0.52-0.025-0.432,0.677-0.301,1.031c0.635,0.031,0.407-0.794,1.229-0.406
				c-0.322,0.1-0.205,0.251-0.189,0.6l0.208,0.039l0.002,0.145c0.162,0.095,0.177,0.299,0.316,0.421l0.262-0.247
				c-0.253,0.016-0.302-0.218-0.396-0.397l0.183-0.078c-0.093-0.034-0.23-0.012-0.209-0.185c0.08-0.025,0.078-0.17,0.228-0.133
				l0.166,0.385c-0.05-0.38,0.61,0.06,0.559-0.32l0.335,0.25l0.136-0.167l0.082,0.12l0.228-0.133
				c0.056-0.142-0.061-0.294-0.142-0.414c0.068-0.084,0.101-0.198,0.194-0.164l0.082,0.266l0.138-0.022
				c-0.114-0.006-0.036-0.176-0.083-0.266c0.228-0.134,0.148-0.109,0.411-0.065c0.009-0.232,0.365-0.154,0.146-0.399
				c0.354-0.068,0.593-0.288,0.809-0.479l-0.048-0.236c0.411-0.064,0.318-0.39,0.544-0.669l0.046,0.09l-0.036-0.323
				c0.331-0.039,0.078-0.463,0.5-0.468c0.342-0.126,0.215-0.484-0.003-0.878c-0.024-0.265,0.331-0.186,0.456-0.266l0.035,0.178
				l0.205,0.042c0.102-0.199,0.205-0.105,0.284-0.423c0.398-0.122-0.114-0.593-0.171-0.891l0.547,0.063l-0.069-0.063
				c-0.181-0.511-0.022-0.266,0.331-0.627l-0.204-0.189c0.33,0.109,0.092-0.259,0.263-0.396c0.068-0.084,0.625,0.039,0.525-0.35
				c0.466-0.059,0.049-0.793,0.323-0.983c0.284,0.018,0.06-0.44,0.398-0.122l-0.023,0.028l0.361,0.29l-0.214-0.25
				c0.17,0.011,0.217-0.193,0.533,0.005l-0.199-0.634c-0.012,0.088-0.091,0.112-0.171,0.137l0.068,0.063
				c-0.046,0.057-0.126,0.228-0.274,0.189l0.001-0.148c-0.136,0.021-0.169-0.159-0.18-0.218c0.273-0.042,0.013-0.236,0.094-0.408
				c0.057,0.004,0.136-0.021,0.181,0.071c0.035-0.116,0.398-0.122,0.185-0.373l0.045,0.02
				C88.798,27.534,88.325,27.184,87.851,26.883z"/>
		</g>
		<g>
			<path fill="#0A032C" d="M110.55,13.553c-0.05,0.096-0.086,0.22-0.103,0.384c-0.472-0.321-0.39,0.754-0.881,0.646
				c-0.382,0.095-0.631,0.371-1.07,0.22c0.041,1.009-0.825-0.035-1.03,0.664c-0.19,0.158-0.229,0.562-0.042,0.696
				c-0.277,0.092-0.287-0.345-0.495-0.128l0.015-0.349c-0.097-0.066-0.224-0.217-0.319-0.135l-0.047,0.362
				c-0.38-0.302-0.386,0.391-0.753,0.247c0.268,0.19-0.04,0.218,0.058,0.479c-0.082-0.118-0.285-0.131-0.251-0.247
				c-0.292-0.02-0.346,0.616-0.643,0.197l-0.044,0.177c-0.091,0.251-0.301,0.046-0.472,0.033l0.046,0.186
				c-0.058,0.136-0.238,0.178-0.384,0.049c-0.29,0.001-0.439,0.519-0.592,0.832c-0.325-0.068,0.006,0.381-0.155,0.594
				c-0.189-0.047-0.301,0.316-0.503,0.115c0.174-0.117-0.027-0.6,0.225-0.598c-0.155-0.122,0.268-0.336-0.023-0.481
				c-0.215,0.574-0.875,0.47-1.027,1.039c-0.22-0.471-0.587-0.028-0.702,0.124l-0.08-0.115c-0.169,0.012-0.284,0.043-0.401,0.317
				c-0.229,0.182-0.419,0.407-0.785,0.29c-0.509-0.116-0.55,0.606-0.474,0.976c0.61,0.135,0.534-0.724,1.26-0.182
				c-0.328,0.034-0.242,0.209-0.284,0.552l0.193,0.078l-0.021,0.142c0.14,0.124,0.122,0.325,0.237,0.471l0.283-0.188
				c-0.24-0.035-0.252-0.272-0.312-0.466l0.187-0.039c-0.082-0.052-0.218-0.059-0.168-0.223c0.081-0.007,0.105-0.15,0.241-0.083
				l0.091,0.41c0.018-0.381,0.562,0.19,0.581-0.185l0.267,0.32l0.155-0.126l0.053,0.135l0.233-0.067
				c0.077-0.121,0-0.296-0.051-0.432c0.08-0.061,0.134-0.16,0.212-0.102l0.021,0.274l0.13,0.018
				c-0.103-0.038,0.003-0.177-0.021-0.275c0.235-0.064,0.158-0.06,0.387,0.058c0.06-0.216,0.361-0.034,0.221-0.33
				c0.334,0.047,0.596-0.074,0.836-0.175l0.022-0.233c0.376,0.09,0.385-0.238,0.669-0.404l0.012,0.1l0.072-0.305
				c0.294,0.1,0.225-0.388,0.586-0.207c0.331,0.039,0.357-0.328,0.335-0.779c0.09-0.245,0.359-0.005,0.495-0.015l-0.047,0.172
				l0.15,0.136c0.169-0.118,0.21,0.015,0.414-0.217c0.376,0.106,0.185-0.562,0.29-0.844l0.421,0.348l-0.024-0.09
				c0.118-0.526,0.12-0.235,0.611-0.341l-0.069-0.27c0.218,0.272,0.219-0.165,0.438-0.185c0.102-0.032,0.512,0.374,0.638-0.009
				c0.44,0.198,0.463-0.648,0.786-0.673c0.243,0.154,0.255-0.353,0.411,0.083l-0.033,0.014l0.193,0.422l-0.079-0.32
				c0.152,0.089,0.285-0.075,0.497,0.236l0.079-0.66c-0.045,0.075-0.129,0.067-0.212,0.055l0.036,0.086
				c-0.066,0.03-0.215,0.152-0.331,0.051l0.065-0.132c-0.13-0.041-0.083-0.216-0.069-0.274c0.258,0.082,0.107-0.202,0.237-0.323
				c0.048,0.027,0.127,0.038,0.135,0.138c0.071-0.085,0.401,0.04,0.285-0.265l0.035,0.035
				C111.148,14.524,110.835,14.024,110.55,13.553z"/>
		</g>
		<g>
			<path fill="#0A032C" d="M124.971,0c-0.11,0.047-0.219,0.126-0.322,0.253c-0.289-0.533-0.668,0.485-0.983,0.243
				c-0.336-0.012-0.546,0.22-0.867,0.024c-0.008,0.499-0.14,0.469-0.305,0.413c-0.162-0.06-0.371-0.16-0.394,0.188
				c-0.107,0.155-0.063,0.547,0.068,0.683c-0.147,0.081-0.23-0.344-0.32-0.139l-0.054-0.337c-0.074-0.068-0.182-0.211-0.228-0.131
				l0.044,0.35c-0.307-0.293-0.153,0.367-0.409,0.228c0.213,0.18,0.032,0.205,0.163,0.451c-0.08-0.111-0.208-0.126-0.219-0.234
				c-0.196-0.028-0.026,0.566-0.341,0.175l0.028,0.161c0.026,0.228-0.174,0.034-0.285,0.024l0.092,0.167
				c0.011,0.122-0.084,0.158-0.224,0.041c-0.189-0.005-0.091,0.453-0.064,0.714c-0.235-0.067,0.15,0.319,0.14,0.496
				c-0.136-0.04-0.059,0.251-0.271,0.08c0.061-0.091-0.265-0.496-0.101-0.492c-0.15-0.105,0.038-0.283-0.208-0.409
				c0.095,0.489-0.391,0.388-0.248,0.853c-0.351-0.385-0.413-0.027-0.422,0.093l-0.105-0.091c-0.11,0.011-0.178,0.037-0.139,0.249
				c-0.074,0.147-0.106,0.316-0.421,0.232c-0.417-0.076-0.112,0.471,0.121,0.737c0.501,0.1,0.037-0.55,0.8-0.137
				c-0.211,0.021-0.072,0.153,0.068,0.407l0.17,0.059l0.055,0.104c0.156,0.093,0.243,0.24,0.393,0.348l0.097-0.128
				c-0.179-0.034-0.304-0.207-0.437-0.351l0.109-0.023c-0.081-0.041-0.177-0.048-0.221-0.169c0.051-0.004,0.001-0.11,0.125-0.057
				l0.256,0.308c-0.167-0.283,0.464,0.161,0.297-0.119l0.326,0.254l0.041-0.086l0.098,0.105l0.115-0.037
				c-0.009-0.087-0.139-0.227-0.235-0.335c0.02-0.046,0.011-0.116,0.086-0.068l0.14,0.213l0.089,0.023
				c-0.082-0.036-0.08-0.136-0.139-0.214c0.118-0.033,0.071-0.038,0.264,0.07c-0.062-0.17,0.201,0-0.016-0.247
				c0.222,0.066,0.315-0.023,0.408-0.079L121.5,4.673c0.246,0.104,0.112-0.174,0.203-0.29l0.045,0.087l-0.08-0.26
				c0.19,0.106-0.021-0.323,0.229-0.139c0.178,0.057,0.063-0.272-0.083-0.684c-0.025-0.22,0.184,0.013,0.248,0.012l0.025,0.158
				l0.111,0.135c0.047-0.098,0.099,0.032,0.136-0.172c0.191,0.12-0.044-0.528-0.045-0.794l0.263,0.363L122.527,3
				c-0.027-0.509,0.024-0.228,0.239-0.284l-0.054-0.272c0.125,0.291,0.095-0.152,0.21-0.141c0.061-0.018,0.233,0.442,0.311,0.083
				c0.169,0.284,0.3-0.54,0.491-0.47c0.077,0.222,0.23-0.247,0.175,0.213l-0.019,0.002l-0.042,0.457l0.062-0.323
				c0.035,0.132,0.147,0.029,0.111,0.397c0,0,0.068-0.137,0.136-0.273c0.073-0.135,0.147-0.27,0.147-0.27
				c-0.05,0.044-0.079-0.001-0.11-0.048l-0.018,0.091c-0.04-0.002-0.142,0.044-0.161-0.086l0.075-0.097
				c-0.047-0.086,0.036-0.228,0.066-0.275c0.096,0.185,0.131-0.134,0.255-0.174c0.013,0.046,0.048,0.094,0.005,0.183
				c0.079-0.041,0.16,0.234,0.269-0.077l-0.002,0.047C124.836,1.129,124.941,0.557,124.971,0z"/>
		</g>
	</g>
</g>
</svg>